<?xml version="1.0" encoding="utf-8" standalone="no"?>
<!DOCTYPE svg PUBLIC "-//W3C//DTD SVG 1.1//EN"
  "http://www.w3.org/Graphics/SVG/1.1/DTD/svg11.dtd">
<svg xmlns:xlink="http://www.w3.org/1999/xlink" width="795.455565pt" height="1698.619093pt" viewBox="0 0 795.455565 1698.619093" xmlns="http://www.w3.org/2000/svg" version="1.1">
 <metadata>
  <rdf:RDF xmlns:dc="http://purl.org/dc/elements/1.1/" xmlns:cc="http://creativecommons.org/ns#" xmlns:rdf="http://www.w3.org/1999/02/22-rdf-syntax-ns#">
   <cc:Work>
    <dc:type rdf:resource="http://purl.org/dc/dcmitype/StillImage"/>
    <dc:date>2023-10-03T22:21:31.984996</dc:date>
    <dc:format>image/svg+xml</dc:format>
    <dc:creator>
     <cc:Agent>
      <dc:title>Matplotlib v3.8.0, https://matplotlib.org/</dc:title>
     </cc:Agent>
    </dc:creator>
   </cc:Work>
  </rdf:RDF>
 </metadata>
 <defs>
  <style type="text/css">*{stroke-linejoin: round; stroke-linecap: butt}</style>
 </defs>
 <g id="figure_1">
  <g id="patch_1">
   <path d="M 0 1698.619093 
L 795.455565 1698.619093 
L 795.455565 0 
L 0 0 
z
" style="fill: #ffffff"/>
  </g>
  <g id="axes_1">
   <g id="patch_2">
    <path d="M 489.872405 1652.320453 
L 768.872405 1652.320453 
L 768.872405 1375.120453 
L 489.872405 1375.120453 
z
" style="fill: #eaeaf2"/>
   </g>
   <g id="matplotlib.axis_1">
    <g id="xtick_1">
     <g id="line2d_1">
      <path d="M 489.872405 1652.320453 
L 489.872405 1375.120453 
" clip-path="url(#p49da269ade)" style="fill: none; stroke: #ffffff; stroke-linecap: round"/>
     </g>
     <g id="text_1">
      <!-- −1.50 -->
      <g style="fill: #262626" transform="translate(470.489245 1671.432476) scale(0.1265 -0.1265)">
       <defs>
        <path id="DejaVuSans-2212" d="M 678 2272 
L 4684 2272 
L 4684 1741 
L 678 1741 
L 678 2272 
z
" transform="scale(0.015625)"/>
        <path id="DejaVuSans-31" d="M 794 531 
L 1825 531 
L 1825 4091 
L 703 3866 
L 703 4441 
L 1819 4666 
L 2450 4666 
L 2450 531 
L 3481 531 
L 3481 0 
L 794 0 
L 794 531 
z
" transform="scale(0.015625)"/>
        <path id="DejaVuSans-2e" d="M 684 794 
L 1344 794 
L 1344 0 
L 684 0 
L 684 794 
z
" transform="scale(0.015625)"/>
        <path id="DejaVuSans-35" d="M 691 4666 
L 3169 4666 
L 3169 4134 
L 1269 4134 
L 1269 2991 
Q 1406 3038 1543 3061 
Q 1681 3084 1819 3084 
Q 2600 3084 3056 2656 
Q 3513 2228 3513 1497 
Q 3513 744 3044 326 
Q 2575 -91 1722 -91 
Q 1428 -91 1123 -41 
Q 819 9 494 109 
L 494 744 
Q 775 591 1075 516 
Q 1375 441 1709 441 
Q 2250 441 2565 725 
Q 2881 1009 2881 1497 
Q 2881 1984 2565 2268 
Q 2250 2553 1709 2553 
Q 1456 2553 1204 2497 
Q 953 2441 691 2322 
L 691 4666 
z
" transform="scale(0.015625)"/>
        <path id="DejaVuSans-30" d="M 2034 4250 
Q 1547 4250 1301 3770 
Q 1056 3291 1056 2328 
Q 1056 1369 1301 889 
Q 1547 409 2034 409 
Q 2525 409 2770 889 
Q 3016 1369 3016 2328 
Q 3016 3291 2770 3770 
Q 2525 4250 2034 4250 
z
M 2034 4750 
Q 2819 4750 3233 4129 
Q 3647 3509 3647 2328 
Q 3647 1150 3233 529 
Q 2819 -91 2034 -91 
Q 1250 -91 836 529 
Q 422 1150 422 2328 
Q 422 3509 836 4129 
Q 1250 4750 2034 4750 
z
" transform="scale(0.015625)"/>
       </defs>
       <use xlink:href="#DejaVuSans-2212"/>
       <use xlink:href="#DejaVuSans-31" x="83.789062"/>
       <use xlink:href="#DejaVuSans-2e" x="147.412109"/>
       <use xlink:href="#DejaVuSans-35" x="179.199219"/>
       <use xlink:href="#DejaVuSans-30" x="242.822266"/>
      </g>
     </g>
    </g>
    <g id="xtick_2">
     <g id="line2d_2">
      <path d="M 559.622405 1652.320453 
L 559.622405 1375.120453 
" clip-path="url(#p49da269ade)" style="fill: none; stroke: #ffffff; stroke-linecap: round"/>
     </g>
     <g id="text_2">
      <!-- −1.45 -->
      <g style="fill: #262626" transform="translate(540.239245 1671.432476) scale(0.1265 -0.1265)">
       <defs>
        <path id="DejaVuSans-34" d="M 2419 4116 
L 825 1625 
L 2419 1625 
L 2419 4116 
z
M 2253 4666 
L 3047 4666 
L 3047 1625 
L 3713 1625 
L 3713 1100 
L 3047 1100 
L 3047 0 
L 2419 0 
L 2419 1100 
L 313 1100 
L 313 1709 
L 2253 4666 
z
" transform="scale(0.015625)"/>
       </defs>
       <use xlink:href="#DejaVuSans-2212"/>
       <use xlink:href="#DejaVuSans-31" x="83.789062"/>
       <use xlink:href="#DejaVuSans-2e" x="147.412109"/>
       <use xlink:href="#DejaVuSans-34" x="179.199219"/>
       <use xlink:href="#DejaVuSans-35" x="242.822266"/>
      </g>
     </g>
    </g>
    <g id="xtick_3">
     <g id="line2d_3">
      <path d="M 629.372405 1652.320453 
L 629.372405 1375.120453 
" clip-path="url(#p49da269ade)" style="fill: none; stroke: #ffffff; stroke-linecap: round"/>
     </g>
     <g id="text_3">
      <!-- −1.40 -->
      <g style="fill: #262626" transform="translate(609.989245 1671.432476) scale(0.1265 -0.1265)">
       <use xlink:href="#DejaVuSans-2212"/>
       <use xlink:href="#DejaVuSans-31" x="83.789062"/>
       <use xlink:href="#DejaVuSans-2e" x="147.412109"/>
       <use xlink:href="#DejaVuSans-34" x="179.199219"/>
       <use xlink:href="#DejaVuSans-30" x="242.822266"/>
      </g>
     </g>
    </g>
    <g id="xtick_4">
     <g id="line2d_4">
      <path d="M 699.122405 1652.320453 
L 699.122405 1375.120453 
" clip-path="url(#p49da269ade)" style="fill: none; stroke: #ffffff; stroke-linecap: round"/>
     </g>
     <g id="text_4">
      <!-- −1.35 -->
      <g style="fill: #262626" transform="translate(679.739245 1671.432476) scale(0.1265 -0.1265)">
       <defs>
        <path id="DejaVuSans-33" d="M 2597 2516 
Q 3050 2419 3304 2112 
Q 3559 1806 3559 1356 
Q 3559 666 3084 287 
Q 2609 -91 1734 -91 
Q 1441 -91 1130 -33 
Q 819 25 488 141 
L 488 750 
Q 750 597 1062 519 
Q 1375 441 1716 441 
Q 2309 441 2620 675 
Q 2931 909 2931 1356 
Q 2931 1769 2642 2001 
Q 2353 2234 1838 2234 
L 1294 2234 
L 1294 2753 
L 1863 2753 
Q 2328 2753 2575 2939 
Q 2822 3125 2822 3475 
Q 2822 3834 2567 4026 
Q 2313 4219 1838 4219 
Q 1578 4219 1281 4162 
Q 984 4106 628 3988 
L 628 4550 
Q 988 4650 1302 4700 
Q 1616 4750 1894 4750 
Q 2613 4750 3031 4423 
Q 3450 4097 3450 3541 
Q 3450 3153 3228 2886 
Q 3006 2619 2597 2516 
z
" transform="scale(0.015625)"/>
       </defs>
       <use xlink:href="#DejaVuSans-2212"/>
       <use xlink:href="#DejaVuSans-31" x="83.789062"/>
       <use xlink:href="#DejaVuSans-2e" x="147.412109"/>
       <use xlink:href="#DejaVuSans-33" x="179.199219"/>
       <use xlink:href="#DejaVuSans-35" x="242.822266"/>
      </g>
     </g>
    </g>
    <g id="xtick_5">
     <g id="line2d_5">
      <path d="M 768.872405 1652.320453 
L 768.872405 1375.120453 
" clip-path="url(#p49da269ade)" style="fill: none; stroke: #ffffff; stroke-linecap: round"/>
     </g>
     <g id="text_5">
      <!-- −1.30 -->
      <g style="fill: #262626" transform="translate(749.489245 1671.432476) scale(0.1265 -0.1265)">
       <use xlink:href="#DejaVuSans-2212"/>
       <use xlink:href="#DejaVuSans-31" x="83.789062"/>
       <use xlink:href="#DejaVuSans-2e" x="147.412109"/>
       <use xlink:href="#DejaVuSans-33" x="179.199219"/>
       <use xlink:href="#DejaVuSans-30" x="242.822266"/>
      </g>
     </g>
    </g>
    <g id="text_6">
     <!-- PC1 16.91% -->
     <g style="fill: #262626" transform="translate(587.501264 1688.549124) scale(0.138 -0.138)">
      <defs>
       <path id="DejaVuSans-50" d="M 1259 4147 
L 1259 2394 
L 2053 2394 
Q 2494 2394 2734 2622 
Q 2975 2850 2975 3272 
Q 2975 3691 2734 3919 
Q 2494 4147 2053 4147 
L 1259 4147 
z
M 628 4666 
L 2053 4666 
Q 2838 4666 3239 4311 
Q 3641 3956 3641 3272 
Q 3641 2581 3239 2228 
Q 2838 1875 2053 1875 
L 1259 1875 
L 1259 0 
L 628 0 
L 628 4666 
z
" transform="scale(0.015625)"/>
       <path id="DejaVuSans-43" d="M 4122 4306 
L 4122 3641 
Q 3803 3938 3442 4084 
Q 3081 4231 2675 4231 
Q 1875 4231 1450 3742 
Q 1025 3253 1025 2328 
Q 1025 1406 1450 917 
Q 1875 428 2675 428 
Q 3081 428 3442 575 
Q 3803 722 4122 1019 
L 4122 359 
Q 3791 134 3420 21 
Q 3050 -91 2638 -91 
Q 1578 -91 968 557 
Q 359 1206 359 2328 
Q 359 3453 968 4101 
Q 1578 4750 2638 4750 
Q 3056 4750 3426 4639 
Q 3797 4528 4122 4306 
z
" transform="scale(0.015625)"/>
       <path id="DejaVuSans-20" transform="scale(0.015625)"/>
       <path id="DejaVuSans-36" d="M 2113 2584 
Q 1688 2584 1439 2293 
Q 1191 2003 1191 1497 
Q 1191 994 1439 701 
Q 1688 409 2113 409 
Q 2538 409 2786 701 
Q 3034 994 3034 1497 
Q 3034 2003 2786 2293 
Q 2538 2584 2113 2584 
z
M 3366 4563 
L 3366 3988 
Q 3128 4100 2886 4159 
Q 2644 4219 2406 4219 
Q 1781 4219 1451 3797 
Q 1122 3375 1075 2522 
Q 1259 2794 1537 2939 
Q 1816 3084 2150 3084 
Q 2853 3084 3261 2657 
Q 3669 2231 3669 1497 
Q 3669 778 3244 343 
Q 2819 -91 2113 -91 
Q 1303 -91 875 529 
Q 447 1150 447 2328 
Q 447 3434 972 4092 
Q 1497 4750 2381 4750 
Q 2619 4750 2861 4703 
Q 3103 4656 3366 4563 
z
" transform="scale(0.015625)"/>
       <path id="DejaVuSans-39" d="M 703 97 
L 703 672 
Q 941 559 1184 500 
Q 1428 441 1663 441 
Q 2288 441 2617 861 
Q 2947 1281 2994 2138 
Q 2813 1869 2534 1725 
Q 2256 1581 1919 1581 
Q 1219 1581 811 2004 
Q 403 2428 403 3163 
Q 403 3881 828 4315 
Q 1253 4750 1959 4750 
Q 2769 4750 3195 4129 
Q 3622 3509 3622 2328 
Q 3622 1225 3098 567 
Q 2575 -91 1691 -91 
Q 1453 -91 1209 -44 
Q 966 3 703 97 
z
M 1959 2075 
Q 2384 2075 2632 2365 
Q 2881 2656 2881 3163 
Q 2881 3666 2632 3958 
Q 2384 4250 1959 4250 
Q 1534 4250 1286 3958 
Q 1038 3666 1038 3163 
Q 1038 2656 1286 2365 
Q 1534 2075 1959 2075 
z
" transform="scale(0.015625)"/>
       <path id="DejaVuSans-25" d="M 4653 2053 
Q 4381 2053 4226 1822 
Q 4072 1591 4072 1178 
Q 4072 772 4226 539 
Q 4381 306 4653 306 
Q 4919 306 5073 539 
Q 5228 772 5228 1178 
Q 5228 1588 5073 1820 
Q 4919 2053 4653 2053 
z
M 4653 2450 
Q 5147 2450 5437 2106 
Q 5728 1763 5728 1178 
Q 5728 594 5436 251 
Q 5144 -91 4653 -91 
Q 4153 -91 3862 251 
Q 3572 594 3572 1178 
Q 3572 1766 3864 2108 
Q 4156 2450 4653 2450 
z
M 1428 4353 
Q 1159 4353 1004 4120 
Q 850 3888 850 3481 
Q 850 3069 1003 2837 
Q 1156 2606 1428 2606 
Q 1700 2606 1854 2837 
Q 2009 3069 2009 3481 
Q 2009 3884 1853 4118 
Q 1697 4353 1428 4353 
z
M 4250 4750 
L 4750 4750 
L 1831 -91 
L 1331 -91 
L 4250 4750 
z
M 1428 4750 
Q 1922 4750 2215 4408 
Q 2509 4066 2509 3481 
Q 2509 2891 2217 2550 
Q 1925 2209 1428 2209 
Q 931 2209 642 2551 
Q 353 2894 353 3481 
Q 353 4063 643 4406 
Q 934 4750 1428 4750 
z
" transform="scale(0.015625)"/>
      </defs>
      <use xlink:href="#DejaVuSans-50"/>
      <use xlink:href="#DejaVuSans-43" x="60.302734"/>
      <use xlink:href="#DejaVuSans-31" x="130.126953"/>
      <use xlink:href="#DejaVuSans-20" x="193.75"/>
      <use xlink:href="#DejaVuSans-31" x="225.537109"/>
      <use xlink:href="#DejaVuSans-36" x="289.160156"/>
      <use xlink:href="#DejaVuSans-2e" x="352.783203"/>
      <use xlink:href="#DejaVuSans-39" x="384.570312"/>
      <use xlink:href="#DejaVuSans-31" x="448.193359"/>
      <use xlink:href="#DejaVuSans-25" x="511.816406"/>
     </g>
    </g>
   </g>
   <g id="matplotlib.axis_2">
    <g id="ytick_1">
     <g id="line2d_6">
      <path d="M 489.872405 1652.320453 
L 768.872405 1652.320453 
" clip-path="url(#p49da269ade)" style="fill: none; stroke: #ffffff; stroke-linecap: round"/>
     </g>
     <g id="text_7">
      <!-- 1.300 -->
      <g style="fill: #262626" transform="translate(444.157827 1657.126464) scale(0.1265 -0.1265)">
       <use xlink:href="#DejaVuSans-31"/>
       <use xlink:href="#DejaVuSans-2e" x="63.623047"/>
       <use xlink:href="#DejaVuSans-33" x="95.410156"/>
       <use xlink:href="#DejaVuSans-30" x="159.033203"/>
       <use xlink:href="#DejaVuSans-30" x="222.65625"/>
      </g>
     </g>
    </g>
    <g id="ytick_2">
     <g id="line2d_7">
      <path d="M 489.872405 1617.670453 
L 768.872405 1617.670453 
" clip-path="url(#p49da269ade)" style="fill: none; stroke: #ffffff; stroke-linecap: round"/>
     </g>
     <g id="text_8">
      <!-- 1.325 -->
      <g style="fill: #262626" transform="translate(444.157827 1622.476464) scale(0.1265 -0.1265)">
       <defs>
        <path id="DejaVuSans-32" d="M 1228 531 
L 3431 531 
L 3431 0 
L 469 0 
L 469 531 
Q 828 903 1448 1529 
Q 2069 2156 2228 2338 
Q 2531 2678 2651 2914 
Q 2772 3150 2772 3378 
Q 2772 3750 2511 3984 
Q 2250 4219 1831 4219 
Q 1534 4219 1204 4116 
Q 875 4013 500 3803 
L 500 4441 
Q 881 4594 1212 4672 
Q 1544 4750 1819 4750 
Q 2544 4750 2975 4387 
Q 3406 4025 3406 3419 
Q 3406 3131 3298 2873 
Q 3191 2616 2906 2266 
Q 2828 2175 2409 1742 
Q 1991 1309 1228 531 
z
" transform="scale(0.015625)"/>
       </defs>
       <use xlink:href="#DejaVuSans-31"/>
       <use xlink:href="#DejaVuSans-2e" x="63.623047"/>
       <use xlink:href="#DejaVuSans-33" x="95.410156"/>
       <use xlink:href="#DejaVuSans-32" x="159.033203"/>
       <use xlink:href="#DejaVuSans-35" x="222.65625"/>
      </g>
     </g>
    </g>
    <g id="ytick_3">
     <g id="line2d_8">
      <path d="M 489.872405 1583.020453 
L 768.872405 1583.020453 
" clip-path="url(#p49da269ade)" style="fill: none; stroke: #ffffff; stroke-linecap: round"/>
     </g>
     <g id="text_9">
      <!-- 1.350 -->
      <g style="fill: #262626" transform="translate(444.157827 1587.826464) scale(0.1265 -0.1265)">
       <use xlink:href="#DejaVuSans-31"/>
       <use xlink:href="#DejaVuSans-2e" x="63.623047"/>
       <use xlink:href="#DejaVuSans-33" x="95.410156"/>
       <use xlink:href="#DejaVuSans-35" x="159.033203"/>
       <use xlink:href="#DejaVuSans-30" x="222.65625"/>
      </g>
     </g>
    </g>
    <g id="ytick_4">
     <g id="line2d_9">
      <path d="M 489.872405 1548.370453 
L 768.872405 1548.370453 
" clip-path="url(#p49da269ade)" style="fill: none; stroke: #ffffff; stroke-linecap: round"/>
     </g>
     <g id="text_10">
      <!-- 1.375 -->
      <g style="fill: #262626" transform="translate(444.157827 1553.176464) scale(0.1265 -0.1265)">
       <defs>
        <path id="DejaVuSans-37" d="M 525 4666 
L 3525 4666 
L 3525 4397 
L 1831 0 
L 1172 0 
L 2766 4134 
L 525 4134 
L 525 4666 
z
" transform="scale(0.015625)"/>
       </defs>
       <use xlink:href="#DejaVuSans-31"/>
       <use xlink:href="#DejaVuSans-2e" x="63.623047"/>
       <use xlink:href="#DejaVuSans-33" x="95.410156"/>
       <use xlink:href="#DejaVuSans-37" x="159.033203"/>
       <use xlink:href="#DejaVuSans-35" x="222.65625"/>
      </g>
     </g>
    </g>
    <g id="ytick_5">
     <g id="line2d_10">
      <path d="M 489.872405 1513.720453 
L 768.872405 1513.720453 
" clip-path="url(#p49da269ade)" style="fill: none; stroke: #ffffff; stroke-linecap: round"/>
     </g>
     <g id="text_11">
      <!-- 1.400 -->
      <g style="fill: #262626" transform="translate(444.157827 1518.526464) scale(0.1265 -0.1265)">
       <use xlink:href="#DejaVuSans-31"/>
       <use xlink:href="#DejaVuSans-2e" x="63.623047"/>
       <use xlink:href="#DejaVuSans-34" x="95.410156"/>
       <use xlink:href="#DejaVuSans-30" x="159.033203"/>
       <use xlink:href="#DejaVuSans-30" x="222.65625"/>
      </g>
     </g>
    </g>
    <g id="ytick_6">
     <g id="line2d_11">
      <path d="M 489.872405 1479.070453 
L 768.872405 1479.070453 
" clip-path="url(#p49da269ade)" style="fill: none; stroke: #ffffff; stroke-linecap: round"/>
     </g>
     <g id="text_12">
      <!-- 1.425 -->
      <g style="fill: #262626" transform="translate(444.157827 1483.876464) scale(0.1265 -0.1265)">
       <use xlink:href="#DejaVuSans-31"/>
       <use xlink:href="#DejaVuSans-2e" x="63.623047"/>
       <use xlink:href="#DejaVuSans-34" x="95.410156"/>
       <use xlink:href="#DejaVuSans-32" x="159.033203"/>
       <use xlink:href="#DejaVuSans-35" x="222.65625"/>
      </g>
     </g>
    </g>
    <g id="ytick_7">
     <g id="line2d_12">
      <path d="M 489.872405 1444.420453 
L 768.872405 1444.420453 
" clip-path="url(#p49da269ade)" style="fill: none; stroke: #ffffff; stroke-linecap: round"/>
     </g>
     <g id="text_13">
      <!-- 1.450 -->
      <g style="fill: #262626" transform="translate(444.157827 1449.226464) scale(0.1265 -0.1265)">
       <use xlink:href="#DejaVuSans-31"/>
       <use xlink:href="#DejaVuSans-2e" x="63.623047"/>
       <use xlink:href="#DejaVuSans-34" x="95.410156"/>
       <use xlink:href="#DejaVuSans-35" x="159.033203"/>
       <use xlink:href="#DejaVuSans-30" x="222.65625"/>
      </g>
     </g>
    </g>
    <g id="ytick_8">
     <g id="line2d_13">
      <path d="M 489.872405 1409.770453 
L 768.872405 1409.770453 
" clip-path="url(#p49da269ade)" style="fill: none; stroke: #ffffff; stroke-linecap: round"/>
     </g>
     <g id="text_14">
      <!-- 1.475 -->
      <g style="fill: #262626" transform="translate(444.157827 1414.576464) scale(0.1265 -0.1265)">
       <use xlink:href="#DejaVuSans-31"/>
       <use xlink:href="#DejaVuSans-2e" x="63.623047"/>
       <use xlink:href="#DejaVuSans-34" x="95.410156"/>
       <use xlink:href="#DejaVuSans-37" x="159.033203"/>
       <use xlink:href="#DejaVuSans-35" x="222.65625"/>
      </g>
     </g>
    </g>
    <g id="ytick_9">
     <g id="line2d_14">
      <path d="M 489.872405 1375.120453 
L 768.872405 1375.120453 
" clip-path="url(#p49da269ade)" style="fill: none; stroke: #ffffff; stroke-linecap: round"/>
     </g>
     <g id="text_15">
      <!-- 1.500 -->
      <g style="fill: #262626" transform="translate(444.157827 1379.926464) scale(0.1265 -0.1265)">
       <use xlink:href="#DejaVuSans-31"/>
       <use xlink:href="#DejaVuSans-2e" x="63.623047"/>
       <use xlink:href="#DejaVuSans-35" x="95.410156"/>
       <use xlink:href="#DejaVuSans-30" x="159.033203"/>
       <use xlink:href="#DejaVuSans-30" x="222.65625"/>
      </g>
     </g>
    </g>
    <g id="text_16">
     <!-- PC2 8.06% -->
     <g style="fill: #262626" transform="translate(437.287858 1551.201468) rotate(-90) scale(0.138 -0.138)">
      <defs>
       <path id="DejaVuSans-38" d="M 2034 2216 
Q 1584 2216 1326 1975 
Q 1069 1734 1069 1313 
Q 1069 891 1326 650 
Q 1584 409 2034 409 
Q 2484 409 2743 651 
Q 3003 894 3003 1313 
Q 3003 1734 2745 1975 
Q 2488 2216 2034 2216 
z
M 1403 2484 
Q 997 2584 770 2862 
Q 544 3141 544 3541 
Q 544 4100 942 4425 
Q 1341 4750 2034 4750 
Q 2731 4750 3128 4425 
Q 3525 4100 3525 3541 
Q 3525 3141 3298 2862 
Q 3072 2584 2669 2484 
Q 3125 2378 3379 2068 
Q 3634 1759 3634 1313 
Q 3634 634 3220 271 
Q 2806 -91 2034 -91 
Q 1263 -91 848 271 
Q 434 634 434 1313 
Q 434 1759 690 2068 
Q 947 2378 1403 2484 
z
M 1172 3481 
Q 1172 3119 1398 2916 
Q 1625 2713 2034 2713 
Q 2441 2713 2670 2916 
Q 2900 3119 2900 3481 
Q 2900 3844 2670 4047 
Q 2441 4250 2034 4250 
Q 1625 4250 1398 4047 
Q 1172 3844 1172 3481 
z
" transform="scale(0.015625)"/>
      </defs>
      <use xlink:href="#DejaVuSans-50"/>
      <use xlink:href="#DejaVuSans-43" x="60.302734"/>
      <use xlink:href="#DejaVuSans-32" x="130.126953"/>
      <use xlink:href="#DejaVuSans-20" x="193.75"/>
      <use xlink:href="#DejaVuSans-38" x="225.537109"/>
      <use xlink:href="#DejaVuSans-2e" x="289.160156"/>
      <use xlink:href="#DejaVuSans-30" x="320.947266"/>
      <use xlink:href="#DejaVuSans-36" x="384.570312"/>
      <use xlink:href="#DejaVuSans-25" x="448.193359"/>
     </g>
    </g>
   </g>
   <g id="PathCollection_1">
    <path d="M -1649.105716 1106.369416 
C -1647.536753 1106.369416 -1646.03184 1105.74606 -1644.922416 1104.636636 
C -1643.812991 1103.527212 -1643.189636 1102.022299 -1643.189636 1100.453336 
C -1643.189636 1098.884373 -1643.812991 1097.37946 -1644.922416 1096.270036 
C -1646.03184 1095.160612 -1647.536753 1094.537256 -1649.105716 1094.537256 
C -1650.674678 1094.537256 -1652.179592 1095.160612 -1653.289016 1096.270036 
C -1654.39844 1097.37946 -1655.021796 1098.884373 -1655.021796 1100.453336 
C -1655.021796 1102.022299 -1654.39844 1103.527212 -1653.289016 1104.636636 
C -1652.179592 1105.74606 -1650.674678 1106.369416 -1649.105716 1106.369416 
z
" clip-path="url(#p49da269ade)" style="fill: #f77189; stroke: #ffffff; stroke-width: 0.946573"/>
    <path d="M -2327.532183 5891.489549 
L -2324.574143 5888.531509 
L -2321.616104 5891.489549 
L -2318.658064 5888.531509 
L -2321.616104 5885.573469 
L -2318.658064 5882.615429 
L -2321.616104 5879.657389 
L -2324.574143 5882.615429 
L -2327.532183 5879.657389 
L -2330.490223 5882.615429 
L -2327.532183 5885.573469 
L -2330.490223 5888.531509 
z
" clip-path="url(#p49da269ade)" style="fill: #f8763b; stroke: #ffffff; stroke-width: 0.946573"/>
    <path d="M -954.200866 5947.590634 
L -954.200866 5955.957234 
L -945.834266 5955.957234 
L -945.834266 5947.590634 
z
" clip-path="url(#p49da269ade)" style="fill: #d28e32; stroke: #ffffff; stroke-width: 0.946573"/>
    <path d="M -1444.490285 5504.308583 
L -1444.490285 5512.675183 
L -1436.123684 5512.675183 
L -1436.123684 5504.308583 
z
" clip-path="url(#p49da269ade)" style="fill: #d28e32; stroke: #ffffff; stroke-width: 0.946573"/>
    <path d="M -2030.84442 -1272.576238 
L -2026.900367 -1272.576238 
L -2026.900367 -1276.520291 
L -2022.956313 -1276.520291 
L -2022.956313 -1280.464344 
L -2026.900367 -1280.464344 
L -2026.900367 -1284.408398 
L -2030.84442 -1284.408398 
L -2030.84442 -1280.464344 
L -2034.788473 -1280.464344 
L -2034.788473 -1276.520291 
L -2030.84442 -1276.520291 
z
" clip-path="url(#p49da269ade)" style="fill: #b79932; stroke: #ffffff; stroke-width: 0.946573"/>
    <path d="M -1541.354007 4761.236499 
L -1547.270087 4767.152579 
L -1541.354007 4773.068659 
L -1535.437927 4767.152579 
z
" clip-path="url(#p49da269ade)" style="fill: #9ea231; stroke: #ffffff; stroke-width: 0.946573"/>
    <path d="M -1901.2723 5777.37332 
L -1901.2723 5785.73992 
L -1892.9057 5785.73992 
L -1892.9057 5777.37332 
z
" clip-path="url(#p49da269ade)" style="fill: #d28e32; stroke: #ffffff; stroke-width: 0.946573"/>
    <path d="M -2883.228819 -9721.395926 
L -2885.320469 -9717.571496 
L -2889.144899 -9715.479846 
L -2885.320469 -9713.388196 
L -2883.228819 -9709.563766 
L -2881.137169 -9713.388196 
L -2877.312739 -9715.479846 
L -2881.137169 -9717.571496 
z
" clip-path="url(#p49da269ade)" style="fill: #7caa31; stroke: #ffffff; stroke-width: 0.946573"/>
    <path d="M -528.852768 7006.002553 
L -534.768848 7017.834712 
L -522.936688 7017.834712 
z
" clip-path="url(#p49da269ade)" style="fill: #31b345; stroke: #ffffff; stroke-width: 0.946573"/>
    <path d="M -115.493258 6940.401584 
L -121.409338 6952.233743 
L -109.577179 6952.233743 
z
" clip-path="url(#p49da269ade)" style="fill: #31b345; stroke: #ffffff; stroke-width: 0.946573"/>
    <path d="M -410.310059 6946.446232 
L -416.226139 6958.278392 
L -404.393979 6958.278392 
z
" clip-path="url(#p49da269ade)" style="fill: #31b345; stroke: #ffffff; stroke-width: 0.946573"/>
    <path d="M -512.671738 6987.740131 
L -518.587818 6999.57229 
L -506.755658 6999.57229 
z
" clip-path="url(#p49da269ade)" style="fill: #31b345; stroke: #ffffff; stroke-width: 0.946573"/>
    <path d="M -410.310059 6946.446232 
L -416.226139 6958.278392 
L -404.393979 6958.278392 
z
" clip-path="url(#p49da269ade)" style="fill: #31b345; stroke: #ffffff; stroke-width: 0.946573"/>
    <path d="M -1567.58654 4530.481653 
L -1573.50262 4542.313813 
L -1561.67046 4542.313813 
z
" clip-path="url(#p49da269ade)" style="fill: #31b345; stroke: #ffffff; stroke-width: 0.946573"/>
    <path d="M -795.7345 7019.247151 
L -801.650579 7031.07931 
L -789.81842 7031.07931 
z
" clip-path="url(#p49da269ade)" style="fill: #31b345; stroke: #ffffff; stroke-width: 0.946573"/>
    <path d="M -3010.730202 -10007.406686 
L -3012.821853 -10003.582256 
L -3016.646282 -10001.490606 
L -3012.821853 -9999.398956 
L -3010.730202 -9995.574526 
L -3008.638552 -9999.398956 
L -3004.814123 -10001.490606 
L -3008.638552 -10003.582256 
z
" clip-path="url(#p49da269ade)" style="fill: #7caa31; stroke: #ffffff; stroke-width: 0.946573"/>
    <path d="M -2488.786706 8861.39765 
L -2488.786706 8869.76425 
L -2480.420106 8869.76425 
L -2480.420106 8861.39765 
z
" clip-path="url(#p49da269ade)" style="fill: #d28e32; stroke: #ffffff; stroke-width: 0.946573"/>
    <path d="M -2046.79192 -1129.792894 
L -2042.847867 -1129.792894 
L -2042.847867 -1133.736947 
L -2038.903813 -1133.736947 
L -2038.903813 -1137.681 
L -2042.847867 -1137.681 
L -2042.847867 -1141.625053 
L -2046.79192 -1141.625053 
L -2046.79192 -1137.681 
L -2050.735973 -1137.681 
L -2050.735973 -1133.736947 
L -2046.79192 -1133.736947 
z
" clip-path="url(#p49da269ade)" style="fill: #b79932; stroke: #ffffff; stroke-width: 0.946573"/>
    <path d="M -395.374895 6273.667141 
L -401.290975 6285.499301 
L -389.458815 6285.499301 
z
" clip-path="url(#p49da269ade)" style="fill: #31b345; stroke: #ffffff; stroke-width: 0.946573"/>
    <path d="M -528.852768 7006.002553 
L -534.768848 7017.834712 
L -522.936688 7017.834712 
z
" clip-path="url(#p49da269ade)" style="fill: #31b345; stroke: #ffffff; stroke-width: 0.946573"/>
    <path d="M -1677.426522 4260.816397 
L -1683.342602 4272.648557 
L -1671.510442 4272.648557 
z
" clip-path="url(#p49da269ade)" style="fill: #31b345; stroke: #ffffff; stroke-width: 0.946573"/>
    <path d="M -1634.457664 6108.955313 
L -1631.499624 6105.997273 
L -1628.541584 6108.955313 
L -1625.583544 6105.997273 
L -1628.541584 6103.039233 
L -1625.583544 6100.081193 
L -1628.541584 6097.123153 
L -1631.499624 6100.081193 
L -1634.457664 6097.123153 
L -1637.415704 6100.081193 
L -1634.457664 6103.039233 
L -1637.415704 6105.997273 
z
" clip-path="url(#p49da269ade)" style="fill: #f8763b; stroke: #ffffff; stroke-width: 0.946573"/>
    <path d="M -144.170824 6796.983274 
L -150.086903 6808.815434 
L -138.254744 6808.815434 
z
" clip-path="url(#p49da269ade)" style="fill: #31b345; stroke: #ffffff; stroke-width: 0.946573"/>
    <path d="M -410.310059 6946.446232 
L -416.226139 6958.278392 
L -404.393979 6958.278392 
z
" clip-path="url(#p49da269ade)" style="fill: #31b345; stroke: #ffffff; stroke-width: 0.946573"/>
    <path d="M -2004.853461 5323.658851 
L -2003.628201 5327.842151 
L -2004.853461 5332.025451 
L -2000.670161 5330.800191 
L -1996.486861 5332.025451 
L -1997.712121 5327.842151 
L -1996.486861 5323.658851 
L -2000.670161 5324.884111 
z
" clip-path="url(#p49da269ade)" style="fill: #34b081; stroke: #ffffff; stroke-width: 0.946573"/>
    <path d="M -137.72785 6634.228403 
L -143.64393 6646.060562 
L -131.811771 6646.060562 
z
" clip-path="url(#p49da269ade)" style="fill: #31b345; stroke: #ffffff; stroke-width: 0.946573"/>
    <path d="M -477.485398 6952.509791 
L -483.401477 6964.341951 
L -471.569318 6964.341951 
z
" clip-path="url(#p49da269ade)" style="fill: #31b345; stroke: #ffffff; stroke-width: 0.946573"/>
    <path d="M -659.493873 5816.719023 
L -665.409953 5828.551183 
L -653.577793 5828.551183 
z
" clip-path="url(#p49da269ade)" style="fill: #31b345; stroke: #ffffff; stroke-width: 0.946573"/>
    <path d="M -793.729405 4138.002596 
L -787.813326 4126.170437 
L -799.645485 4126.170437 
z
" clip-path="url(#p49da269ade)" style="fill: #35ae9a; stroke: #ffffff; stroke-width: 0.946573"/>
    <path d="M -490.792954 5110.763031 
L -496.709034 5122.59519 
L -484.876874 5122.59519 
z
" clip-path="url(#p49da269ade)" style="fill: #31b345; stroke: #ffffff; stroke-width: 0.946573"/>
    <path d="M -941.19628 6262.939528 
L -947.11236 6268.855608 
L -941.19628 6274.771688 
L -935.2802 6268.855608 
z
" clip-path="url(#p49da269ade)" style="fill: #9ea231; stroke: #ffffff; stroke-width: 0.946573"/>
    <path d="M -4321.991785 1582.319118 
L -4321.595482 1585.963574 
L -4324.949825 1587.442594 
L -4321.595482 1588.921614 
L -4321.991785 1592.566069 
L -4319.033745 1590.400634 
L -4316.075705 1592.566069 
L -4316.472007 1588.921614 
L -4313.117665 1587.442594 
L -4316.472007 1585.963574 
L -4316.075705 1582.319118 
L -4319.033745 1584.484554 
z
" clip-path="url(#p49da269ade)" style="fill: #36acad; stroke: #ffffff; stroke-width: 0.946573"/>
    <path d="M -1110.944714 5381.883075 
L -1116.860794 5387.799155 
L -1110.944714 5393.715235 
L -1105.028634 5387.799155 
z
" clip-path="url(#p49da269ade)" style="fill: #9ea231; stroke: #ffffff; stroke-width: 0.946573"/>
    <path d="M -883.326014 6254.106052 
L -883.326014 6262.472653 
L -874.959414 6262.472653 
L -874.959414 6254.106052 
z
" clip-path="url(#p49da269ade)" style="fill: #d28e32; stroke: #ffffff; stroke-width: 0.946573"/>
    <path d="M -1934.004351 1538.090929 
C -1932.435388 1538.090929 -1930.930475 1537.467573 -1929.821051 1536.358149 
C -1928.711627 1535.248725 -1928.088271 1533.743812 -1928.088271 1532.174849 
C -1928.088271 1530.605886 -1928.711627 1529.100973 -1929.821051 1527.991549 
C -1930.930475 1526.882125 -1932.435388 1526.258769 -1934.004351 1526.258769 
C -1935.573314 1526.258769 -1937.078227 1526.882125 -1938.187651 1527.991549 
C -1939.297075 1529.100973 -1939.920431 1530.605886 -1939.920431 1532.174849 
C -1939.920431 1533.743812 -1939.297075 1535.248725 -1938.187651 1536.358149 
C -1937.078227 1537.467573 -1935.573314 1538.090929 -1934.004351 1538.090929 
z
" clip-path="url(#p49da269ade)" style="fill: #f77189; stroke: #ffffff; stroke-width: 0.946573"/>
    <path d="M -2699.951774 -2303.098844 
L -2696.007721 -2303.098844 
L -2696.007721 -2307.042897 
L -2692.063667 -2307.042897 
L -2692.063667 -2310.986951 
L -2696.007721 -2310.986951 
L -2696.007721 -2314.931004 
L -2699.951774 -2314.931004 
L -2699.951774 -2310.986951 
L -2703.895827 -2310.986951 
L -2703.895827 -2307.042897 
L -2699.951774 -2307.042897 
z
" clip-path="url(#p49da269ade)" style="fill: #b79932; stroke: #ffffff; stroke-width: 0.946573"/>
    <path d="M -1736.697876 4290.594558 
L -1742.613956 4302.426717 
L -1730.781797 4302.426717 
z
" clip-path="url(#p49da269ade)" style="fill: #31b345; stroke: #ffffff; stroke-width: 0.946573"/>
    <path d="M -469.581413 6976.224392 
L -475.497493 6988.056552 
L -463.665334 6988.056552 
z
" clip-path="url(#p49da269ade)" style="fill: #31b345; stroke: #ffffff; stroke-width: 0.946573"/>
    <path d="M -378.538811 5771.285668 
L -384.45489 5783.117828 
L -372.622731 5783.117828 
z
" clip-path="url(#p49da269ade)" style="fill: #31b345; stroke: #ffffff; stroke-width: 0.946573"/>
    <path d="M -2360.176637 -448.495797 
L -2354.260557 -460.327956 
L -2366.092716 -460.327956 
z
" clip-path="url(#p49da269ade)" style="fill: #35ae9a; stroke: #ffffff; stroke-width: 0.946573"/>
    <path d="M -1868.182499 -1759.063334 
L -1864.238445 -1759.063334 
L -1864.238445 -1763.007387 
L -1860.294392 -1763.007387 
L -1860.294392 -1766.95144 
L -1864.238445 -1766.95144 
L -1864.238445 -1770.895493 
L -1868.182499 -1770.895493 
L -1868.182499 -1766.95144 
L -1872.126552 -1766.95144 
L -1872.126552 -1763.007387 
L -1868.182499 -1763.007387 
z
" clip-path="url(#p49da269ade)" style="fill: #b79932; stroke: #ffffff; stroke-width: 0.946573"/>
    <path d="M -1883.71169 5340.559044 
L -1889.62777 5346.475124 
L -1883.71169 5352.391204 
L -1877.795611 5346.475124 
z
" clip-path="url(#p49da269ade)" style="fill: #9ea231; stroke: #ffffff; stroke-width: 0.946573"/>
    <path d="M 74.380804 4988.096615 
L 75.606064 4992.279915 
L 74.380804 4996.463215 
L 78.564104 4995.237955 
L 82.747404 4996.463215 
L 81.522144 4992.279915 
L 82.747404 4988.096615 
L 78.564104 4989.321875 
z
" clip-path="url(#p49da269ade)" style="fill: #34b081; stroke: #ffffff; stroke-width: 0.946573"/>
    <path d="M -1905.957112 3926.961362 
L -1900.041032 3915.129202 
L -1911.873191 3915.129202 
z
" clip-path="url(#p49da269ade)" style="fill: #35ae9a; stroke: #ffffff; stroke-width: 0.946573"/>
    <path d="M -410.310059 6946.446232 
L -416.226139 6958.278392 
L -404.393979 6958.278392 
z
" clip-path="url(#p49da269ade)" style="fill: #31b345; stroke: #ffffff; stroke-width: 0.946573"/>
    <path d="M -1619.319833 5796.089971 
L -1619.319833 5804.456571 
L -1610.953233 5804.456571 
L -1610.953233 5796.089971 
z
" clip-path="url(#p49da269ade)" style="fill: #d28e32; stroke: #ffffff; stroke-width: 0.946573"/>
    <path d="M -469.581413 6976.224392 
L -475.497493 6988.056552 
L -463.665334 6988.056552 
z
" clip-path="url(#p49da269ade)" style="fill: #31b345; stroke: #ffffff; stroke-width: 0.946573"/>
    <path d="M -2476.62002 -9389.472866 
L -2478.71167 -9385.648436 
L -2482.5361 -9383.556786 
L -2478.71167 -9381.465136 
L -2476.62002 -9377.640706 
L -2474.52837 -9381.465136 
L -2470.703941 -9383.556786 
L -2474.52837 -9385.648436 
z
" clip-path="url(#p49da269ade)" style="fill: #7caa31; stroke: #ffffff; stroke-width: 0.946573"/>
    <path d="M -1080.425408 -5566.402658 
L -1082.517058 -5562.578228 
L -1086.341488 -5560.486578 
L -1082.517058 -5558.394928 
L -1080.425408 -5554.570499 
L -1078.333758 -5558.394928 
L -1074.509328 -5560.486578 
L -1078.333758 -5562.578228 
z
" clip-path="url(#p49da269ade)" style="fill: #7caa31; stroke: #ffffff; stroke-width: 0.946573"/>
    <path d="M -550.301692 4477.699011 
L -550.301692 4486.065611 
L -541.935091 4486.065611 
L -541.935091 4477.699011 
z
" clip-path="url(#p49da269ade)" style="fill: #d28e32; stroke: #ffffff; stroke-width: 0.946573"/>
    <path d="M -812.879567 5570.555368 
L -818.795647 5582.387528 
L -806.963488 5582.387528 
z
" clip-path="url(#p49da269ade)" style="fill: #31b345; stroke: #ffffff; stroke-width: 0.946573"/>
    <path d="M -1080.766351 5948.568145 
L -1086.682431 5960.400305 
L -1074.850272 5960.400305 
z
" clip-path="url(#p49da269ade)" style="fill: #31b345; stroke: #ffffff; stroke-width: 0.946573"/>
    <path d="M -1232.49535 4284.355073 
L -1238.41143 4290.271153 
L -1232.49535 4296.187233 
L -1226.57927 4290.271153 
z
" clip-path="url(#p49da269ade)" style="fill: #9ea231; stroke: #ffffff; stroke-width: 0.946573"/>
    <path d="M -927.090837 2026.1298 
L -925.865576 2030.3131 
L -927.090837 2034.4964 
L -922.907537 2033.27114 
L -918.724236 2034.4964 
L -919.949497 2030.3131 
L -918.724236 2026.1298 
L -922.907537 2027.35506 
z
" clip-path="url(#p49da269ade)" style="fill: #34b081; stroke: #ffffff; stroke-width: 0.946573"/>
    <path d="M -1384.630073 3780.94626 
L -1387.588113 3786.069735 
L -1384.630073 3791.193211 
L -1378.713994 3791.193211 
L -1375.755954 3786.069735 
L -1378.713994 3780.94626 
z
" clip-path="url(#p49da269ade)" style="fill: #38aac1; stroke: #ffffff; stroke-width: 0.946573"/>
    <path d="M -1449.402152 5225.821581 
L -1449.402152 5234.188181 
L -1441.035552 5234.188181 
L -1441.035552 5225.821581 
z
" clip-path="url(#p49da269ade)" style="fill: #d28e32; stroke: #ffffff; stroke-width: 0.946573"/>
    <path d="M -2151.610938 -6223.017077 
L -2153.702589 -6219.192648 
L -2157.527018 -6217.100998 
L -2153.702589 -6215.009348 
L -2151.610938 -6211.184918 
L -2149.519288 -6215.009348 
L -2145.694859 -6217.100998 
L -2149.519288 -6219.192648 
z
" clip-path="url(#p49da269ade)" style="fill: #7caa31; stroke: #ffffff; stroke-width: 0.946573"/>
    <path d="M -1734.16346 -6401.382731 
L -1736.25511 -6397.558301 
L -1740.079539 -6395.466651 
L -1736.25511 -6393.375001 
L -1734.16346 -6389.550571 
L -1732.071809 -6393.375001 
L -1728.24738 -6395.466651 
L -1732.071809 -6397.558301 
z
" clip-path="url(#p49da269ade)" style="fill: #7caa31; stroke: #ffffff; stroke-width: 0.946573"/>
    <path d="M -442.382567 5344.540741 
L -448.298647 5356.372901 
L -436.466488 5356.372901 
z
" clip-path="url(#p49da269ade)" style="fill: #31b345; stroke: #ffffff; stroke-width: 0.946573"/>
    <path d="M -1863.196752 6738.347736 
L -1863.196752 6746.714336 
L -1854.830152 6746.714336 
L -1854.830152 6738.347736 
z
" clip-path="url(#p49da269ade)" style="fill: #d28e32; stroke: #ffffff; stroke-width: 0.946573"/>
    <path d="M -159.005186 5560.25351 
L -164.921266 5572.08567 
L -153.089107 5572.08567 
z
" clip-path="url(#p49da269ade)" style="fill: #31b345; stroke: #ffffff; stroke-width: 0.946573"/>
    <path d="M -813.650724 4346.29808 
L -815.389416 4349.821055 
L -819.27725 4350.385991 
L -816.463987 4353.128245 
L -817.128108 4357.000369 
L -813.650724 4355.1722 
L -810.173339 4357.000369 
L -810.837461 4353.128245 
L -808.024198 4350.385991 
L -811.912032 4349.821055 
z
" clip-path="url(#p49da269ade)" style="fill: #3aa6dd; stroke: #ffffff; stroke-width: 0.946573"/>
    <path d="M -1021.376204 5953.654193 
L -1021.376204 5962.020793 
L -1013.009604 5962.020793 
L -1013.009604 5953.654193 
z
" clip-path="url(#p49da269ade)" style="fill: #d28e32; stroke: #ffffff; stroke-width: 0.946573"/>
    <path d="M -490.792954 5110.763031 
L -496.709034 5122.59519 
L -484.876874 5122.59519 
z
" clip-path="url(#p49da269ade)" style="fill: #31b345; stroke: #ffffff; stroke-width: 0.946573"/>
    <path d="M 97.15432 5403.817461 
L 91.238241 5415.64962 
L 103.0704 5415.64962 
z
" clip-path="url(#p49da269ade)" style="fill: #31b345; stroke: #ffffff; stroke-width: 0.946573"/>
    <path d="M -2243.512812 7499.927914 
L -2243.512812 7508.294514 
L -2235.146212 7508.294514 
L -2235.146212 7499.927914 
z
" clip-path="url(#p49da269ade)" style="fill: #d28e32; stroke: #ffffff; stroke-width: 0.946573"/>
    <path d="M -410.310059 6946.446232 
L -416.226139 6958.278392 
L -404.393979 6958.278392 
z
" clip-path="url(#p49da269ade)" style="fill: #31b345; stroke: #ffffff; stroke-width: 0.946573"/>
    <path d="M -1322.680328 5035.676765 
L -1328.596408 5047.508925 
L -1316.764248 5047.508925 
z
" clip-path="url(#p49da269ade)" style="fill: #31b345; stroke: #ffffff; stroke-width: 0.946573"/>
    <path d="M -3192.801472 -9781.345886 
L -3194.893122 -9777.521456 
L -3198.717552 -9775.429806 
L -3194.893122 -9773.338156 
L -3192.801472 -9769.513726 
L -3190.709822 -9773.338156 
L -3186.885392 -9775.429806 
L -3190.709822 -9777.521456 
z
" clip-path="url(#p49da269ade)" style="fill: #7caa31; stroke: #ffffff; stroke-width: 0.946573"/>
    <path d="M -605.381238 6583.166859 
L -611.297318 6594.999019 
L -599.465158 6594.999019 
z
" clip-path="url(#p49da269ade)" style="fill: #31b345; stroke: #ffffff; stroke-width: 0.946573"/>
    <path d="M -1269.91214 -543.755365 
L -1265.968087 -543.755365 
L -1265.968087 -547.699418 
L -1262.024034 -547.699418 
L -1262.024034 -551.643471 
L -1265.968087 -551.643471 
L -1265.968087 -555.587524 
L -1269.91214 -555.587524 
L -1269.91214 -551.643471 
L -1273.856194 -551.643471 
L -1273.856194 -547.699418 
L -1269.91214 -547.699418 
z
" clip-path="url(#p49da269ade)" style="fill: #b79932; stroke: #ffffff; stroke-width: 0.946573"/>
    <path d="M -1134.184846 4344.206737 
L -1140.100926 4356.038896 
L -1128.268766 4356.038896 
z
" clip-path="url(#p49da269ade)" style="fill: #31b345; stroke: #ffffff; stroke-width: 0.946573"/>
    <path d="M -2167.344733 5924.639313 
L -2173.260813 5936.471473 
L -2161.428653 5936.471473 
z
" clip-path="url(#p49da269ade)" style="fill: #31b345; stroke: #ffffff; stroke-width: 0.946573"/>
    <path d="M -1650.704934 4961.872111 
L -1656.621014 4973.704271 
L -1644.788855 4973.704271 
z
" clip-path="url(#p49da269ade)" style="fill: #31b345; stroke: #ffffff; stroke-width: 0.946573"/>
    <path d="M -1524.105661 -5996.473202 
L -1526.197311 -5992.648772 
L -1530.02174 -5990.557122 
L -1526.197311 -5988.465472 
L -1524.105661 -5984.641042 
L -1522.01401 -5988.465472 
L -1518.189581 -5990.557122 
L -1522.01401 -5992.648772 
z
" clip-path="url(#p49da269ade)" style="fill: #7caa31; stroke: #ffffff; stroke-width: 0.946573"/>
    <path d="M -1883.615844 -6341.978064 
L -1885.707495 -6338.153635 
L -1889.531924 -6336.061985 
L -1885.707495 -6333.970334 
L -1883.615844 -6330.145905 
L -1881.524194 -6333.970334 
L -1877.699765 -6336.061985 
L -1881.524194 -6338.153635 
z
" clip-path="url(#p49da269ade)" style="fill: #7caa31; stroke: #ffffff; stroke-width: 0.946573"/>
    <path d="M -2082.125111 6786.696155 
L -2082.125111 6795.062756 
L -2073.75851 6795.062756 
L -2073.75851 6786.696155 
z
" clip-path="url(#p49da269ade)" style="fill: #d28e32; stroke: #ffffff; stroke-width: 0.946573"/>
    <path d="M -410.310059 6946.446232 
L -416.226139 6958.278392 
L -404.393979 6958.278392 
z
" clip-path="url(#p49da269ade)" style="fill: #31b345; stroke: #ffffff; stroke-width: 0.946573"/>
    <path d="M -1613.313816 4246.752041 
L -1607.397736 4234.919882 
L -1619.229896 4234.919882 
z
" clip-path="url(#p49da269ade)" style="fill: #35ae9a; stroke: #ffffff; stroke-width: 0.946573"/>
    <path d="M -410.310059 6946.446232 
L -416.226139 6958.278392 
L -404.393979 6958.278392 
z
" clip-path="url(#p49da269ade)" style="fill: #31b345; stroke: #ffffff; stroke-width: 0.946573"/>
    <path d="M -1464.834306 -6026.251362 
L -1466.925956 -6022.426932 
L -1470.750386 -6020.335282 
L -1466.925956 -6018.243632 
L -1464.834306 -6014.419202 
L -1462.742656 -6018.243632 
L -1458.918226 -6020.335282 
L -1462.742656 -6022.426932 
z
" clip-path="url(#p49da269ade)" style="fill: #7caa31; stroke: #ffffff; stroke-width: 0.946573"/>
    <path d="M -144.054897 6191.420561 
L -149.970977 6203.25272 
L -138.138817 6203.25272 
z
" clip-path="url(#p49da269ade)" style="fill: #31b345; stroke: #ffffff; stroke-width: 0.946573"/>
    <path d="M -1936.627001 9030.870867 
L -1936.627001 9039.237468 
L -1928.260401 9039.237468 
L -1928.260401 9030.870867 
z
" clip-path="url(#p49da269ade)" style="fill: #d28e32; stroke: #ffffff; stroke-width: 0.946573"/>
    <path d="M -916.68866 5408.894552 
L -922.60474 5414.810632 
L -916.68866 5420.726712 
L -910.77258 5414.810632 
z
" clip-path="url(#p49da269ade)" style="fill: #9ea231; stroke: #ffffff; stroke-width: 0.946573"/>
    <path d="M -2384.042574 6416.682202 
L -2384.042574 6425.048802 
L -2375.675974 6425.048802 
L -2375.675974 6416.682202 
z
" clip-path="url(#p49da269ade)" style="fill: #d28e32; stroke: #ffffff; stroke-width: 0.946573"/>
    <path d="M -152.519383 6814.106861 
L -158.435463 6825.939021 
L -146.603304 6825.939021 
z
" clip-path="url(#p49da269ade)" style="fill: #31b345; stroke: #ffffff; stroke-width: 0.946573"/>
    <path d="M -3133.080621 8227.558686 
L -3133.080621 8235.925287 
L -3124.71402 8235.925287 
L -3124.71402 8227.558686 
z
" clip-path="url(#p49da269ade)" style="fill: #d28e32; stroke: #ffffff; stroke-width: 0.946573"/>
    <path d="M -2307.070495 6414.669416 
L -2312.986575 6426.501575 
L -2301.154416 6426.501575 
z
" clip-path="url(#p49da269ade)" style="fill: #31b345; stroke: #ffffff; stroke-width: 0.946573"/>
    <path d="M -1979.694774 397.481726 
C -1978.125811 397.481726 -1976.620898 396.85837 -1975.511474 395.748946 
C -1974.40205 394.639522 -1973.778694 393.134609 -1973.778694 391.565646 
C -1973.778694 389.996683 -1974.40205 388.49177 -1975.511474 387.382346 
C -1976.620898 386.272922 -1978.125811 385.649566 -1979.694774 385.649566 
C -1981.263737 385.649566 -1982.76865 386.272922 -1983.878074 387.382346 
C -1984.987498 388.49177 -1985.610854 389.996683 -1985.610854 391.565646 
C -1985.610854 393.134609 -1984.987498 394.639522 -1983.878074 395.748946 
C -1982.76865 396.85837 -1981.263737 397.481726 -1979.694774 397.481726 
z
" clip-path="url(#p49da269ade)" style="fill: #f77189; stroke: #ffffff; stroke-width: 0.946573"/>
    <path d="M -2928.700158 3150.700991 
L -2934.326684 3154.788902 
L -2932.177543 3161.40328 
L -2925.222774 3161.40328 
L -2923.073632 3154.788902 
z
" clip-path="url(#p49da269ade)" style="fill: #7699f4; stroke: #ffffff; stroke-width: 0.946573"/>
    <path d="M -2072.953586 -1332.774754 
L -2069.009533 -1332.774754 
L -2069.009533 -1336.718807 
L -2065.06548 -1336.718807 
L -2065.06548 -1340.66286 
L -2069.009533 -1340.66286 
L -2069.009533 -1344.606913 
L -2072.953586 -1344.606913 
L -2072.953586 -1340.66286 
L -2076.897639 -1340.66286 
L -2076.897639 -1336.718807 
L -2072.953586 -1336.718807 
z
" clip-path="url(#p49da269ade)" style="fill: #b79932; stroke: #ffffff; stroke-width: 0.946573"/>
    <path d="M -1650.498797 6928.766124 
L -1650.498797 6937.132725 
L -1642.132197 6937.132725 
L -1642.132197 6928.766124 
z
" clip-path="url(#p49da269ade)" style="fill: #d28e32; stroke: #ffffff; stroke-width: 0.946573"/>
    <path d="M -849.671043 5575.382043 
L -855.587123 5587.214202 
L -843.754963 5587.214202 
z
" clip-path="url(#p49da269ade)" style="fill: #31b345; stroke: #ffffff; stroke-width: 0.946573"/>
    <path d="M -1508.4484 -5345.965947 
L -1510.54005 -5342.141517 
L -1514.36448 -5340.049867 
L -1510.54005 -5337.958217 
L -1508.4484 -5334.133787 
L -1506.35675 -5337.958217 
L -1502.532321 -5340.049867 
L -1506.35675 -5342.141517 
z
" clip-path="url(#p49da269ade)" style="fill: #7caa31; stroke: #ffffff; stroke-width: 0.946573"/>
    <path d="M -3029.36355 3129.169982 
L -3028.13829 3133.353282 
L -3029.36355 3137.536582 
L -3025.18025 3136.311322 
L -3020.99695 3137.536582 
L -3022.22221 3133.353282 
L -3020.99695 3129.169982 
L -3025.18025 3130.395242 
z
" clip-path="url(#p49da269ade)" style="fill: #34b081; stroke: #ffffff; stroke-width: 0.946573"/>
    <path d="M 3.909136 0.00307 
L 4.163338 3.488966 
L 0.708276 4.016822 
L 3.592151 5.991499 
L 1.85065 9.021889 
L 5.192582 7.998375 
L 6.476027 11.249353 
L 7.759472 7.998375 
L 11.101404 9.021889 
L 9.359903 5.991499 
L 12.243778 4.016822 
L 8.788716 3.488966 
L 9.042918 0.00307 
L 6.476027 2.375234 
z
" clip-path="url(#p49da269ade)" style="fill: #b087f4; stroke: #ffffff; stroke-width: 0.946573"/>
    <path d="M -1767.672758 4237.822609 
L -1767.672758 4246.189209 
L -1759.306158 4246.189209 
L -1759.306158 4237.822609 
z
" clip-path="url(#p49da269ade)" style="fill: #d28e32; stroke: #ffffff; stroke-width: 0.946573"/>
    <path d="M -829.060597 5588.81779 
L -834.976677 5600.649949 
L -823.144518 5600.649949 
z
" clip-path="url(#p49da269ade)" style="fill: #31b345; stroke: #ffffff; stroke-width: 0.946573"/>
    <path d="M -632.105878 5132.497325 
L -638.021958 5138.413405 
L -632.105878 5144.329485 
L -626.189798 5138.413405 
z
" clip-path="url(#p49da269ade)" style="fill: #9ea231; stroke: #ffffff; stroke-width: 0.946573"/>
    <path d="M -1410.653412 5855.015743 
L -1407.695372 5852.057703 
L -1404.737332 5855.015743 
L -1401.779292 5852.057703 
L -1404.737332 5849.099663 
L -1401.779292 5846.141623 
L -1404.737332 5843.183583 
L -1407.695372 5846.141623 
L -1410.653412 5843.183583 
L -1413.611452 5846.141623 
L -1410.653412 5849.099663 
L -1413.611452 5852.057703 
z
" clip-path="url(#p49da269ade)" style="fill: #f8763b; stroke: #ffffff; stroke-width: 0.946573"/>
    <path d="M -2354.734724 2856.524733 
L -2360.650804 2862.440813 
L -2354.734724 2868.356893 
L -2348.818644 2862.440813 
z
" clip-path="url(#p49da269ade)" style="fill: #9ea231; stroke: #ffffff; stroke-width: 0.946573"/>
    <path d="M -1836.651363 -923.908845 
L -1832.707309 -923.908845 
L -1832.707309 -927.852898 
L -1828.763256 -927.852898 
L -1828.763256 -931.796951 
L -1832.707309 -931.796951 
L -1832.707309 -935.741004 
L -1836.651363 -935.741004 
L -1836.651363 -931.796951 
L -1840.595416 -931.796951 
L -1840.595416 -927.852898 
L -1836.651363 -927.852898 
z
" clip-path="url(#p49da269ade)" style="fill: #b79932; stroke: #ffffff; stroke-width: 0.946573"/>
    <path d="M -2327.167635 -9448.877532 
L -2329.259285 -9445.053102 
L -2333.083715 -9442.961452 
L -2329.259285 -9440.869802 
L -2327.167635 -9437.045372 
L -2325.075985 -9440.869802 
L -2321.251556 -9442.961452 
L -2325.075985 -9445.053102 
z
" clip-path="url(#p49da269ade)" style="fill: #7caa31; stroke: #ffffff; stroke-width: 0.946573"/>
    <path d="M -996.99248 5666.578913 
L -1002.90856 5678.411072 
L -991.0764 5678.411072 
z
" clip-path="url(#p49da269ade)" style="fill: #31b345; stroke: #ffffff; stroke-width: 0.946573"/>
    <path d="M -410.310059 6946.446232 
L -416.226139 6958.278392 
L -404.393979 6958.278392 
z
" clip-path="url(#p49da269ade)" style="fill: #31b345; stroke: #ffffff; stroke-width: 0.946573"/>
    <path d="M -878.224197 6535.251707 
L -884.140277 6547.083867 
L -872.308117 6547.083867 
z
" clip-path="url(#p49da269ade)" style="fill: #31b345; stroke: #ffffff; stroke-width: 0.946573"/>
    <path d="M -410.310059 6946.446232 
L -416.226139 6958.278392 
L -404.393979 6958.278392 
z
" clip-path="url(#p49da269ade)" style="fill: #31b345; stroke: #ffffff; stroke-width: 0.946573"/>
    <path d="M -1080.425408 -5566.402658 
L -1082.517058 -5562.578228 
L -1086.341488 -5560.486578 
L -1082.517058 -5558.394928 
L -1080.425408 -5554.570499 
L -1078.333758 -5558.394928 
L -1074.509328 -5560.486578 
L -1078.333758 -5562.578228 
z
" clip-path="url(#p49da269ade)" style="fill: #7caa31; stroke: #ffffff; stroke-width: 0.946573"/>
    <path d="M -1989.091574 7534.496826 
L -1989.091574 7542.863426 
L -1980.724974 7542.863426 
L -1980.724974 7534.496826 
z
" clip-path="url(#p49da269ade)" style="fill: #d28e32; stroke: #ffffff; stroke-width: 0.946573"/>
    <path d="M -803.849371 4332.242583 
L -809.765451 4344.074743 
L -797.933291 4344.074743 
z
" clip-path="url(#p49da269ade)" style="fill: #31b345; stroke: #ffffff; stroke-width: 0.946573"/>
    <path d="M -410.310059 6946.446232 
L -416.226139 6958.278392 
L -404.393979 6958.278392 
z
" clip-path="url(#p49da269ade)" style="fill: #31b345; stroke: #ffffff; stroke-width: 0.946573"/>
    <path d="M -818.888376 6257.527346 
L -824.804456 6269.359506 
L -812.972296 6269.359506 
z
" clip-path="url(#p49da269ade)" style="fill: #31b345; stroke: #ffffff; stroke-width: 0.946573"/>
    <path d="M -80.826605 6491.716473 
L -86.742684 6503.548632 
L -74.910525 6503.548632 
z
" clip-path="url(#p49da269ade)" style="fill: #31b345; stroke: #ffffff; stroke-width: 0.946573"/>
    <path d="M -29.644451 6832.662809 
L -35.560531 6844.494969 
L -23.728371 6844.494969 
z
" clip-path="url(#p49da269ade)" style="fill: #31b345; stroke: #ffffff; stroke-width: 0.946573"/>
    <path d="M -559.965751 5549.622545 
L -565.881831 5561.454704 
L -554.049672 5561.454704 
z
" clip-path="url(#p49da269ade)" style="fill: #31b345; stroke: #ffffff; stroke-width: 0.946573"/>
    <path d="M 29.626903 6802.884649 
L 23.710823 6814.716808 
L 35.542983 6814.716808 
z
" clip-path="url(#p49da269ade)" style="fill: #31b345; stroke: #ffffff; stroke-width: 0.946573"/>
    <path d="M -2638.239091 8920.802316 
L -2638.239091 8929.168917 
L -2629.872491 8929.168917 
L -2629.872491 8920.802316 
z
" clip-path="url(#p49da269ade)" style="fill: #d28e32; stroke: #ffffff; stroke-width: 0.946573"/>
    <path d="M -1179.222349 5071.905974 
L -1185.138429 5083.738134 
L -1173.306269 5083.738134 
z
" clip-path="url(#p49da269ade)" style="fill: #31b345; stroke: #ffffff; stroke-width: 0.946573"/>
    <path d="M -1911.941021 1987.56759 
L -1915.141881 1991.581343 
L -1913.999507 1996.58641 
L -1909.37413 1998.813874 
L -1904.748752 1996.58641 
L -1903.606378 1991.581343 
L -1906.807239 1987.56759 
z
" clip-path="url(#p49da269ade)" style="fill: #df6df4; stroke: #ffffff; stroke-width: 0.946573"/>
    <path d="M 122.019905 6832.50313 
L 116.103825 6844.33529 
L 127.935984 6844.33529 
z
" clip-path="url(#p49da269ade)" style="fill: #31b345; stroke: #ffffff; stroke-width: 0.946573"/>
    <path d="M -550.301692 4477.699011 
L -550.301692 4486.065611 
L -541.935091 4486.065611 
L -541.935091 4477.699011 
z
" clip-path="url(#p49da269ade)" style="fill: #d28e32; stroke: #ffffff; stroke-width: 0.946573"/>
    <path d="M -2229.868402 3089.352187 
L -2235.784481 3095.268267 
L -2229.868402 3101.184347 
L -2223.952322 3095.268267 
z
" clip-path="url(#p49da269ade)" style="fill: #9ea231; stroke: #ffffff; stroke-width: 0.946573"/>
    <path d="M -1164.442152 6020.10153 
L -1170.358232 6026.01761 
L -1164.442152 6031.933689 
L -1158.526073 6026.01761 
z
" clip-path="url(#p49da269ade)" style="fill: #9ea231; stroke: #ffffff; stroke-width: 0.946573"/>
    <path d="M -1595.787223 5105.918394 
L -1592.829183 5102.960354 
L -1589.871143 5105.918394 
L -1586.913104 5102.960354 
L -1589.871143 5100.002314 
L -1586.913104 5097.044274 
L -1589.871143 5094.086234 
L -1592.829183 5097.044274 
L -1595.787223 5094.086234 
L -1598.745263 5097.044274 
L -1595.787223 5100.002314 
L -1598.745263 5102.960354 
z
" clip-path="url(#p49da269ade)" style="fill: #f8763b; stroke: #ffffff; stroke-width: 0.946573"/>
    <path d="M -29.644451 6832.662809 
L -35.560531 6844.494969 
L -23.728371 6844.494969 
z
" clip-path="url(#p49da269ade)" style="fill: #31b345; stroke: #ffffff; stroke-width: 0.946573"/>
    <path d="M -322.362025 6052.383675 
L -328.278104 6064.215835 
L -316.445945 6064.215835 
z
" clip-path="url(#p49da269ade)" style="fill: #31b345; stroke: #ffffff; stroke-width: 0.946573"/>
    <path d="M -2145.528879 -973.264636 
L -2141.584825 -973.264636 
L -2141.584825 -977.208689 
L -2137.640772 -977.208689 
L -2137.640772 -981.152742 
L -2141.584825 -981.152742 
L -2141.584825 -985.096796 
L -2145.528879 -985.096796 
L -2145.528879 -981.152742 
L -2149.472932 -981.152742 
L -2149.472932 -977.208689 
L -2145.528879 -977.208689 
z
" clip-path="url(#p49da269ade)" style="fill: #b79932; stroke: #ffffff; stroke-width: 0.946573"/>
    <path d="M -812.879567 5570.555368 
L -818.795647 5582.387528 
L -806.963488 5582.387528 
z
" clip-path="url(#p49da269ade)" style="fill: #31b345; stroke: #ffffff; stroke-width: 0.946573"/>
    <path d="M -2180.715219 -938.034296 
L -2176.771166 -938.034296 
L -2176.771166 -941.97835 
L -2172.827113 -941.97835 
L -2172.827113 -945.922403 
L -2176.771166 -945.922403 
L -2176.771166 -949.866456 
L -2180.715219 -949.866456 
L -2180.715219 -945.922403 
L -2184.659272 -945.922403 
L -2184.659272 -941.97835 
L -2180.715219 -941.97835 
z
" clip-path="url(#p49da269ade)" style="fill: #b79932; stroke: #ffffff; stroke-width: 0.946573"/>
    <path d="M -1903.276049 1993.563429 
L -1909.192129 2005.395589 
L -1897.359969 2005.395589 
z
" clip-path="url(#p49da269ade)" style="fill: #31b345; stroke: #ffffff; stroke-width: 0.946573"/>
    <path d="M -1441.802246 -427.28978 
L -1443.281266 -423.935438 
L -1446.925722 -424.33174 
L -1444.760286 -421.3737 
L -1446.925722 -418.41566 
L -1443.281266 -418.811963 
L -1441.802246 -415.457621 
L -1440.323226 -418.811963 
L -1436.678771 -418.41566 
L -1438.844206 -421.3737 
L -1436.678771 -424.33174 
L -1440.323226 -423.935438 
z
" clip-path="url(#p49da269ade)" style="fill: #f563d8; stroke: #ffffff; stroke-width: 0.946573"/>
    <path d="M -2705.749203 -9466.477753 
L -2707.840853 -9462.653323 
L -2711.665283 -9460.561673 
L -2707.840853 -9458.470023 
L -2705.749203 -9454.645593 
L -2703.657553 -9458.470023 
L -2699.833123 -9460.561673 
L -2703.657553 -9462.653323 
z
" clip-path="url(#p49da269ade)" style="fill: #7caa31; stroke: #ffffff; stroke-width: 0.946573"/>
    <path d="M -1587.709238 -6044.80731 
L -1589.800888 -6040.98288 
L -1593.625318 -6038.89123 
L -1589.800888 -6036.79958 
L -1587.709238 -6032.97515 
L -1585.617588 -6036.79958 
L -1581.793159 -6038.89123 
L -1585.617588 -6040.98288 
z
" clip-path="url(#p49da269ade)" style="fill: #7caa31; stroke: #ffffff; stroke-width: 0.946573"/>
    <path d="M -916.68866 5408.894552 
L -922.60474 5414.810632 
L -916.68866 5420.726712 
L -910.77258 5414.810632 
z
" clip-path="url(#p49da269ade)" style="fill: #9ea231; stroke: #ffffff; stroke-width: 0.946573"/>
    <path d="M -1449.879384 6266.946582 
L -1449.879384 6275.313182 
L -1441.512783 6275.313182 
L -1441.512783 6266.946582 
z
" clip-path="url(#p49da269ade)" style="fill: #d28e32; stroke: #ffffff; stroke-width: 0.946573"/>
    <path d="M -694.86884 5213.347776 
L -694.86884 5221.714377 
L -686.502239 5221.714377 
L -686.502239 5213.347776 
z
" clip-path="url(#p49da269ade)" style="fill: #d28e32; stroke: #ffffff; stroke-width: 0.946573"/>
    <path d="M -2320.427205 2707.040693 
L -2323.628065 2711.054445 
L -2322.485692 2716.059513 
L -2317.860314 2718.286977 
L -2313.234937 2716.059513 
L -2312.092563 2711.054445 
L -2315.293423 2707.040693 
z
" clip-path="url(#p49da269ade)" style="fill: #df6df4; stroke: #ffffff; stroke-width: 0.946573"/>
    <path d="M -2651.782984 -9416.674659 
L -2653.874634 -9412.850229 
L -2657.699064 -9410.758579 
L -2653.874634 -9408.666929 
L -2651.782984 -9404.8425 
L -2649.691334 -9408.666929 
L -2645.866904 -9410.758579 
L -2649.691334 -9412.850229 
z
" clip-path="url(#p49da269ade)" style="fill: #7caa31; stroke: #ffffff; stroke-width: 0.946573"/>
    <path d="M -1150.938465 5149.179982 
L -1156.854545 5155.096061 
L -1150.938465 5161.012141 
L -1145.022385 5155.096061 
z
" clip-path="url(#p49da269ade)" style="fill: #9ea231; stroke: #ffffff; stroke-width: 0.946573"/>
    <path d="M -1883.615844 -6341.978064 
L -1885.707495 -6338.153635 
L -1889.531924 -6336.061985 
L -1885.707495 -6333.970334 
L -1883.615844 -6330.145905 
L -1881.524194 -6333.970334 
L -1877.699765 -6336.061985 
L -1881.524194 -6338.153635 
z
" clip-path="url(#p49da269ade)" style="fill: #7caa31; stroke: #ffffff; stroke-width: 0.946573"/>
    <path d="M -1777.380008 -953.687005 
L -1773.435955 -953.687005 
L -1773.435955 -957.631058 
L -1769.491902 -957.631058 
L -1769.491902 -961.575111 
L -1773.435955 -961.575111 
L -1773.435955 -965.519164 
L -1777.380008 -965.519164 
L -1777.380008 -961.575111 
L -1781.324061 -961.575111 
L -1781.324061 -957.631058 
L -1777.380008 -957.631058 
z
" clip-path="url(#p49da269ade)" style="fill: #b79932; stroke: #ffffff; stroke-width: 0.946573"/>
    <path d="M -1743.387773 -6351.57665 
L -1745.479423 -6347.75222 
L -1749.303853 -6345.66057 
L -1745.479423 -6343.56892 
L -1743.387773 -6339.74449 
L -1741.296123 -6343.56892 
L -1737.471693 -6345.66057 
L -1741.296123 -6347.75222 
z
" clip-path="url(#p49da269ade)" style="fill: #7caa31; stroke: #ffffff; stroke-width: 0.946573"/>
    <path d="M -2046.567833 6280.967681 
L -2048.306525 6284.490657 
L -2052.194359 6285.055592 
L -2049.381096 6287.797846 
L -2050.045218 6291.66997 
L -2046.567833 6289.841801 
L -2043.090449 6291.66997 
L -2043.75457 6287.797846 
L -2040.941307 6285.055592 
L -2044.829141 6284.490657 
z
" clip-path="url(#p49da269ade)" style="fill: #3aa6dd; stroke: #ffffff; stroke-width: 0.946573"/>
    <path d="M -1736.157144 6992.640199 
L -1736.157144 7001.006799 
L -1727.790544 7001.006799 
L -1727.790544 6992.640199 
z
" clip-path="url(#p49da269ade)" style="fill: #d28e32; stroke: #ffffff; stroke-width: 0.946573"/>
    <path d="M -410.310059 6946.446232 
L -416.226139 6958.278392 
L -404.393979 6958.278392 
z
" clip-path="url(#p49da269ade)" style="fill: #31b345; stroke: #ffffff; stroke-width: 0.946573"/>
    <path d="M -799.331879 6757.966884 
L -805.247959 6769.799043 
L -793.4158 6769.799043 
z
" clip-path="url(#p49da269ade)" style="fill: #31b345; stroke: #ffffff; stroke-width: 0.946573"/>
    <path d="M -2099.952534 5393.085524 
L -2099.952534 5401.452125 
L -2091.585933 5401.452125 
L -2091.585933 5393.085524 
z
" clip-path="url(#p49da269ade)" style="fill: #d28e32; stroke: #ffffff; stroke-width: 0.946573"/>
    <path d="M -683.790009 6117.526038 
L -689.706089 6123.442118 
L -683.790009 6129.358198 
L -677.873929 6123.442118 
z
" clip-path="url(#p49da269ade)" style="fill: #9ea231; stroke: #ffffff; stroke-width: 0.946573"/>
    <path d="M -4056.828014 5439.422058 
L -4056.431711 5443.066513 
L -4059.786053 5444.545533 
L -4056.431711 5446.024553 
L -4056.828014 5449.669009 
L -4053.869974 5447.503573 
L -4050.911934 5449.669009 
L -4051.308236 5446.024553 
L -4047.953894 5444.545533 
L -4051.308236 5443.066513 
L -4050.911934 5439.422058 
L -4053.869974 5441.587493 
z
" clip-path="url(#p49da269ade)" style="fill: #36acad; stroke: #ffffff; stroke-width: 0.946573"/>
    <path d="M -1343.019502 6249.675512 
L -1343.019502 6258.042112 
L -1334.652902 6258.042112 
L -1334.652902 6249.675512 
z
" clip-path="url(#p49da269ade)" style="fill: #d28e32; stroke: #ffffff; stroke-width: 0.946573"/>
    <path d="M -2349.843872 -10099.549186 
L -2351.935522 -10095.724756 
L -2355.759952 -10093.633106 
L -2351.935522 -10091.541456 
L -2349.843872 -10087.717027 
L -2347.752222 -10091.541456 
L -2343.927792 -10093.633106 
L -2347.752222 -10095.724756 
z
" clip-path="url(#p49da269ade)" style="fill: #7caa31; stroke: #ffffff; stroke-width: 0.946573"/>
    <path d="M -1027.750764 5093.671221 
L -1033.666844 5099.587301 
L -1027.750764 5105.503381 
L -1021.834684 5099.587301 
z
" clip-path="url(#p49da269ade)" style="fill: #9ea231; stroke: #ffffff; stroke-width: 0.946573"/>
    <path d="M -1826.919779 1195.703896 
C -1825.350817 1195.703896 -1823.845903 1195.080541 -1822.736479 1193.971117 
C -1821.627055 1192.861693 -1821.003699 1191.356779 -1821.003699 1189.787817 
C -1821.003699 1188.218854 -1821.627055 1186.713941 -1822.736479 1185.604517 
C -1823.845903 1184.495092 -1825.350817 1183.871737 -1826.919779 1183.871737 
C -1828.488742 1183.871737 -1829.993655 1184.495092 -1831.103079 1185.604517 
C -1832.212504 1186.713941 -1832.835859 1188.218854 -1832.835859 1189.787817 
C -1832.835859 1191.356779 -1832.212504 1192.861693 -1831.103079 1193.971117 
C -1829.993655 1195.080541 -1828.488742 1195.703896 -1826.919779 1195.703896 
z
" clip-path="url(#p49da269ade)" style="fill: #f77189; stroke: #ffffff; stroke-width: 0.946573"/>
    <path d="M -462.999936 5748.603997 
L -468.916016 5754.520076 
L -462.999936 5760.436156 
L -457.083856 5754.520076 
z
" clip-path="url(#p49da269ade)" style="fill: #9ea231; stroke: #ffffff; stroke-width: 0.946573"/>
    <path d="M -683.790009 6117.526038 
L -689.706089 6123.442118 
L -683.790009 6129.358198 
L -677.873929 6123.442118 
z
" clip-path="url(#p49da269ade)" style="fill: #9ea231; stroke: #ffffff; stroke-width: 0.946573"/>
    <path d="M -435.76009 6158.258232 
L -441.67617 6170.090391 
L -429.844011 6170.090391 
z
" clip-path="url(#p49da269ade)" style="fill: #31b345; stroke: #ffffff; stroke-width: 0.946573"/>
    <path d="M -410.310059 6946.446232 
L -416.226139 6958.278392 
L -404.393979 6958.278392 
z
" clip-path="url(#p49da269ade)" style="fill: #31b345; stroke: #ffffff; stroke-width: 0.946573"/>
    <path d="M -410.310059 6946.446232 
L -416.226139 6958.278392 
L -404.393979 6958.278392 
z
" clip-path="url(#p49da269ade)" style="fill: #31b345; stroke: #ffffff; stroke-width: 0.946573"/>
    <path d="M -1093.989143 5224.322549 
L -1099.905222 5230.238629 
L -1093.989143 5236.154709 
L -1088.073063 5230.238629 
z
" clip-path="url(#p49da269ade)" style="fill: #9ea231; stroke: #ffffff; stroke-width: 0.946573"/>
    <path d="M -2180.715219 -938.034296 
L -2176.771166 -938.034296 
L -2176.771166 -941.97835 
L -2172.827113 -941.97835 
L -2172.827113 -945.922403 
L -2176.771166 -945.922403 
L -2176.771166 -949.866456 
L -2180.715219 -949.866456 
L -2180.715219 -945.922403 
L -2184.659272 -945.922403 
L -2184.659272 -941.97835 
L -2180.715219 -941.97835 
z
" clip-path="url(#p49da269ade)" style="fill: #b79932; stroke: #ffffff; stroke-width: 0.946573"/>
    <path d="M -965.809293 4080.255409 
L -967.547985 4083.778384 
L -971.435819 4084.34332 
L -968.622556 4087.085574 
L -969.286677 4090.957698 
L -965.809293 4089.129529 
L -962.331908 4090.957698 
L -962.996029 4087.085574 
L -960.182766 4084.34332 
L -964.0706 4083.778384 
z
" clip-path="url(#p49da269ade)" style="fill: #3aa6dd; stroke: #ffffff; stroke-width: 0.946573"/>
    <path d="M -430.086305 6478.065434 
L -436.002385 6489.897593 
L -424.170226 6489.897593 
z
" clip-path="url(#p49da269ade)" style="fill: #31b345; stroke: #ffffff; stroke-width: 0.946573"/>
    <path d="M 97.092532 5787.805917 
L 98.317793 5791.989217 
L 97.092532 5796.172517 
L 101.275833 5794.947257 
L 105.459133 5796.172517 
L 104.233873 5791.989217 
L 105.459133 5787.805917 
L 101.275833 5789.031177 
z
" clip-path="url(#p49da269ade)" style="fill: #34b081; stroke: #ffffff; stroke-width: 0.946573"/>
    <path d="M -1634.457664 6108.955313 
L -1631.499624 6105.997273 
L -1628.541584 6108.955313 
L -1625.583544 6105.997273 
L -1628.541584 6103.039233 
L -1625.583544 6100.081193 
L -1628.541584 6097.123153 
L -1631.499624 6100.081193 
L -1634.457664 6097.123153 
L -1637.415704 6100.081193 
L -1634.457664 6103.039233 
L -1637.415704 6105.997273 
z
" clip-path="url(#p49da269ade)" style="fill: #f8763b; stroke: #ffffff; stroke-width: 0.946573"/>
    <path d="M -528.852768 7006.002553 
L -534.768848 7017.834712 
L -522.936688 7017.834712 
z
" clip-path="url(#p49da269ade)" style="fill: #31b345; stroke: #ffffff; stroke-width: 0.946573"/>
    <path d="M -1199.583871 5354.17897 
L -1199.583871 5362.545571 
L -1191.217271 5362.545571 
L -1191.217271 5354.17897 
z
" clip-path="url(#p49da269ade)" style="fill: #d28e32; stroke: #ffffff; stroke-width: 0.946573"/>
    <path d="M -1778.767742 -1165.007917 
L -1780.246762 -1161.653575 
L -1783.891218 -1162.049877 
L -1781.725782 -1159.091838 
L -1783.891218 -1156.133798 
L -1780.246762 -1156.5301 
L -1778.767742 -1153.175758 
L -1777.288722 -1156.5301 
L -1773.644267 -1156.133798 
L -1775.809702 -1159.091838 
L -1773.644267 -1162.049877 
L -1777.288722 -1161.653575 
z
" clip-path="url(#p49da269ade)" style="fill: #f563d8; stroke: #ffffff; stroke-width: 0.946573"/>
    <path d="M -410.310059 6946.446232 
L -416.226139 6958.278392 
L -404.393979 6958.278392 
z
" clip-path="url(#p49da269ade)" style="fill: #31b345; stroke: #ffffff; stroke-width: 0.946573"/>
    <path d="M -2130.289898 -6418.498767 
L -2132.381548 -6414.674337 
L -2136.205978 -6412.582687 
L -2132.381548 -6410.491037 
L -2130.289898 -6406.666607 
L -2128.198248 -6410.491037 
L -2124.373818 -6412.582687 
L -2128.198248 -6414.674337 
z
" clip-path="url(#p49da269ade)" style="fill: #7caa31; stroke: #ffffff; stroke-width: 0.946573"/>
    <path d="M -1884.101906 -5219.1297 
L -1886.193556 -5215.305271 
L -1890.017986 -5213.21362 
L -1886.193556 -5211.12197 
L -1884.101906 -5207.297541 
L -1882.010256 -5211.12197 
L -1878.185826 -5213.21362 
L -1882.010256 -5215.305271 
z
" clip-path="url(#p49da269ade)" style="fill: #7caa31; stroke: #ffffff; stroke-width: 0.946573"/>
    <path d="M -1663.675682 4261.628876 
L -1669.591762 4267.544956 
L -1663.675682 4273.461036 
L -1657.759603 4267.544956 
z
" clip-path="url(#p49da269ade)" style="fill: #9ea231; stroke: #ffffff; stroke-width: 0.946573"/>
    <path d="M -2532.394787 9047.328818 
L -2532.394787 9055.695418 
L -2524.028186 9055.695418 
L -2524.028186 9047.328818 
z
" clip-path="url(#p49da269ade)" style="fill: #d28e32; stroke: #ffffff; stroke-width: 0.946573"/>
    <path d="M -2110.088073 2291.629221 
L -2115.211549 2294.587261 
L -2115.211549 2300.50334 
L -2110.088073 2303.46138 
L -2104.964598 2300.50334 
L -2104.964598 2294.587261 
z
" clip-path="url(#p49da269ade)" style="fill: #f66ab2; stroke: #ffffff; stroke-width: 0.946573"/>
    <path d="M -8.652634 6509.071158 
L -14.568713 6520.903317 
L -2.736554 6520.903317 
z
" clip-path="url(#p49da269ade)" style="fill: #31b345; stroke: #ffffff; stroke-width: 0.946573"/>
    <path d="M -528.852768 7006.002553 
L -534.768848 7017.834712 
L -522.936688 7017.834712 
z
" clip-path="url(#p49da269ade)" style="fill: #31b345; stroke: #ffffff; stroke-width: 0.946573"/>
    <path d="M -3758.889889 6154.711343 
L -3758.493586 6158.355799 
L -3761.847929 6159.834819 
L -3758.493586 6161.313839 
L -3758.889889 6164.958294 
L -3755.931849 6162.792859 
L -3752.973809 6164.958294 
L -3753.370111 6161.313839 
L -3750.015769 6159.834819 
L -3753.370111 6158.355799 
L -3752.973809 6154.711343 
L -3755.931849 6156.876779 
z
" clip-path="url(#p49da269ade)" style="fill: #36acad; stroke: #ffffff; stroke-width: 0.946573"/>
    <path d="M -609.710229 6722.656634 
L -615.626309 6734.488794 
L -603.794149 6734.488794 
z
" clip-path="url(#p49da269ade)" style="fill: #31b345; stroke: #ffffff; stroke-width: 0.946573"/>
    <path d="M -1609.68672 414.424472 
L -1609.68672 422.791073 
L -1601.320119 422.791073 
L -1601.320119 414.424472 
z
" clip-path="url(#p49da269ade)" style="fill: #d28e32; stroke: #ffffff; stroke-width: 0.946573"/>
    <path d="M -620.188454 6642.432373 
L -620.188454 6650.798973 
L -611.821854 6650.798973 
L -611.821854 6642.432373 
z
" clip-path="url(#p49da269ade)" style="fill: #d28e32; stroke: #ffffff; stroke-width: 0.946573"/>
    <path d="M -1846.685757 3897.183202 
L -1840.769677 3885.351042 
L -1852.601837 3885.351042 
z
" clip-path="url(#p49da269ade)" style="fill: #35ae9a; stroke: #ffffff; stroke-width: 0.946573"/>
    <path d="M -1754.191652 3670.019111 
L -1748.275572 3658.186952 
L -1760.107731 3658.186952 
z
" clip-path="url(#p49da269ade)" style="fill: #35ae9a; stroke: #ffffff; stroke-width: 0.946573"/>
    <path d="M -588.124122 7035.780713 
L -594.040202 7047.612872 
L -582.208043 7047.612872 
z
" clip-path="url(#p49da269ade)" style="fill: #31b345; stroke: #ffffff; stroke-width: 0.946573"/>
    <path d="M 191.879612 6659.706585 
L 193.104872 6663.889885 
L 191.879612 6668.073185 
L 196.062912 6666.847925 
L 200.246212 6668.073185 
L 199.020952 6663.889885 
L 200.246212 6659.706585 
L 196.062912 6660.931845 
z
" clip-path="url(#p49da269ade)" style="fill: #34b081; stroke: #ffffff; stroke-width: 0.946573"/>
    <path d="M -494.479269 6635.047221 
L -500.395349 6640.9633 
L -494.479269 6646.87938 
L -488.56319 6640.9633 
z
" clip-path="url(#p49da269ade)" style="fill: #9ea231; stroke: #ffffff; stroke-width: 0.946573"/>
    <path d="M -2082.125111 6786.696155 
L -2082.125111 6795.062756 
L -2073.75851 6795.062756 
L -2073.75851 6786.696155 
z
" clip-path="url(#p49da269ade)" style="fill: #d28e32; stroke: #ffffff; stroke-width: 0.946573"/>
    <path d="M -2607.821308 -952.468332 
L -2603.877255 -952.468332 
L -2603.877255 -956.412385 
L -2599.933202 -956.412385 
L -2599.933202 -960.356438 
L -2603.877255 -960.356438 
L -2603.877255 -964.300491 
L -2607.821308 -964.300491 
L -2607.821308 -960.356438 
L -2611.765361 -960.356438 
L -2611.765361 -956.412385 
L -2607.821308 -956.412385 
z
" clip-path="url(#p49da269ade)" style="fill: #b79932; stroke: #ffffff; stroke-width: 0.946573"/>
    <path d="M -159.916322 6652.7867 
L -165.832402 6658.70278 
L -159.916322 6664.61886 
L -154.000242 6658.70278 
z
" clip-path="url(#p49da269ade)" style="fill: #9ea231; stroke: #ffffff; stroke-width: 0.946573"/>
    <path d="M -1933.05524 8976.4732 
L -1933.05524 8984.8398 
L -1924.68864 8984.8398 
L -1924.68864 8976.4732 
z
" clip-path="url(#p49da269ade)" style="fill: #d28e32; stroke: #ffffff; stroke-width: 0.946573"/>
   </g>
   <g id="line2d_15"/>
   <g id="line2d_16"/>
   <g id="line2d_17"/>
   <g id="line2d_18"/>
   <g id="line2d_19"/>
   <g id="line2d_20"/>
   <g id="line2d_21"/>
   <g id="line2d_22"/>
   <g id="line2d_23"/>
   <g id="line2d_24"/>
   <g id="line2d_25"/>
   <g id="line2d_26"/>
   <g id="line2d_27"/>
   <g id="line2d_28"/>
   <g id="line2d_29"/>
   <g id="line2d_30"/>
   <g id="line2d_31"/>
   <g id="patch_3">
    <path d="M 489.872405 1652.320453 
L 489.872405 1375.120453 
" style="fill: none; stroke: #ffffff; stroke-width: 1.25; stroke-linejoin: miter; stroke-linecap: square"/>
   </g>
   <g id="patch_4">
    <path d="M 768.872405 1652.320453 
L 768.872405 1375.120453 
" style="fill: none; stroke: #ffffff; stroke-width: 1.25; stroke-linejoin: miter; stroke-linecap: square"/>
   </g>
   <g id="patch_5">
    <path d="M 489.872405 1652.320453 
L 768.872405 1652.320453 
" style="fill: none; stroke: #ffffff; stroke-width: 1.25; stroke-linejoin: miter; stroke-linecap: square"/>
   </g>
   <g id="patch_6">
    <path d="M 489.872405 1375.120453 
L 768.872405 1375.120453 
" style="fill: none; stroke: #ffffff; stroke-width: 1.25; stroke-linejoin: miter; stroke-linecap: square"/>
   </g>
   <g id="text_17">
    <!-- GCF_001742185.1 -->
    <g style="fill: #262626" transform="translate(492.626405 1392.619528) scale(0.12 -0.12)">
     <defs>
      <path id="DejaVuSans-47" d="M 3809 666 
L 3809 1919 
L 2778 1919 
L 2778 2438 
L 4434 2438 
L 4434 434 
Q 4069 175 3628 42 
Q 3188 -91 2688 -91 
Q 1594 -91 976 548 
Q 359 1188 359 2328 
Q 359 3472 976 4111 
Q 1594 4750 2688 4750 
Q 3144 4750 3555 4637 
Q 3966 4525 4313 4306 
L 4313 3634 
Q 3963 3931 3569 4081 
Q 3175 4231 2741 4231 
Q 1884 4231 1454 3753 
Q 1025 3275 1025 2328 
Q 1025 1384 1454 906 
Q 1884 428 2741 428 
Q 3075 428 3337 486 
Q 3600 544 3809 666 
z
" transform="scale(0.015625)"/>
      <path id="DejaVuSans-46" d="M 628 4666 
L 3309 4666 
L 3309 4134 
L 1259 4134 
L 1259 2759 
L 3109 2759 
L 3109 2228 
L 1259 2228 
L 1259 0 
L 628 0 
L 628 4666 
z
" transform="scale(0.015625)"/>
      <path id="DejaVuSans-5f" d="M 3263 -1063 
L 3263 -1509 
L -63 -1509 
L -63 -1063 
L 3263 -1063 
z
" transform="scale(0.015625)"/>
     </defs>
     <use xlink:href="#DejaVuSans-47"/>
     <use xlink:href="#DejaVuSans-43" x="77.490234"/>
     <use xlink:href="#DejaVuSans-46" x="147.314453"/>
     <use xlink:href="#DejaVuSans-5f" x="204.833984"/>
     <use xlink:href="#DejaVuSans-30" x="254.833984"/>
     <use xlink:href="#DejaVuSans-30" x="318.457031"/>
     <use xlink:href="#DejaVuSans-31" x="382.080078"/>
     <use xlink:href="#DejaVuSans-37" x="445.703125"/>
     <use xlink:href="#DejaVuSans-34" x="509.326172"/>
     <use xlink:href="#DejaVuSans-32" x="572.949219"/>
     <use xlink:href="#DejaVuSans-31" x="636.572266"/>
     <use xlink:href="#DejaVuSans-38" x="700.195312"/>
     <use xlink:href="#DejaVuSans-35" x="763.818359"/>
     <use xlink:href="#DejaVuSans-2e" x="827.441406"/>
     <use xlink:href="#DejaVuSans-31" x="859.228516"/>
    </g>
    <!-- Pectobacterium -->
    <g style="fill: #262626" transform="translate(492.626405 1406.390653) scale(0.12 -0.12)">
     <defs>
      <path id="DejaVuSans-65" d="M 3597 1894 
L 3597 1613 
L 953 1613 
Q 991 1019 1311 708 
Q 1631 397 2203 397 
Q 2534 397 2845 478 
Q 3156 559 3463 722 
L 3463 178 
Q 3153 47 2828 -22 
Q 2503 -91 2169 -91 
Q 1331 -91 842 396 
Q 353 884 353 1716 
Q 353 2575 817 3079 
Q 1281 3584 2069 3584 
Q 2775 3584 3186 3129 
Q 3597 2675 3597 1894 
z
M 3022 2063 
Q 3016 2534 2758 2815 
Q 2500 3097 2075 3097 
Q 1594 3097 1305 2825 
Q 1016 2553 972 2059 
L 3022 2063 
z
" transform="scale(0.015625)"/>
      <path id="DejaVuSans-63" d="M 3122 3366 
L 3122 2828 
Q 2878 2963 2633 3030 
Q 2388 3097 2138 3097 
Q 1578 3097 1268 2742 
Q 959 2388 959 1747 
Q 959 1106 1268 751 
Q 1578 397 2138 397 
Q 2388 397 2633 464 
Q 2878 531 3122 666 
L 3122 134 
Q 2881 22 2623 -34 
Q 2366 -91 2075 -91 
Q 1284 -91 818 406 
Q 353 903 353 1747 
Q 353 2603 823 3093 
Q 1294 3584 2113 3584 
Q 2378 3584 2631 3529 
Q 2884 3475 3122 3366 
z
" transform="scale(0.015625)"/>
      <path id="DejaVuSans-74" d="M 1172 4494 
L 1172 3500 
L 2356 3500 
L 2356 3053 
L 1172 3053 
L 1172 1153 
Q 1172 725 1289 603 
Q 1406 481 1766 481 
L 2356 481 
L 2356 0 
L 1766 0 
Q 1100 0 847 248 
Q 594 497 594 1153 
L 594 3053 
L 172 3053 
L 172 3500 
L 594 3500 
L 594 4494 
L 1172 4494 
z
" transform="scale(0.015625)"/>
      <path id="DejaVuSans-6f" d="M 1959 3097 
Q 1497 3097 1228 2736 
Q 959 2375 959 1747 
Q 959 1119 1226 758 
Q 1494 397 1959 397 
Q 2419 397 2687 759 
Q 2956 1122 2956 1747 
Q 2956 2369 2687 2733 
Q 2419 3097 1959 3097 
z
M 1959 3584 
Q 2709 3584 3137 3096 
Q 3566 2609 3566 1747 
Q 3566 888 3137 398 
Q 2709 -91 1959 -91 
Q 1206 -91 779 398 
Q 353 888 353 1747 
Q 353 2609 779 3096 
Q 1206 3584 1959 3584 
z
" transform="scale(0.015625)"/>
      <path id="DejaVuSans-62" d="M 3116 1747 
Q 3116 2381 2855 2742 
Q 2594 3103 2138 3103 
Q 1681 3103 1420 2742 
Q 1159 2381 1159 1747 
Q 1159 1113 1420 752 
Q 1681 391 2138 391 
Q 2594 391 2855 752 
Q 3116 1113 3116 1747 
z
M 1159 2969 
Q 1341 3281 1617 3432 
Q 1894 3584 2278 3584 
Q 2916 3584 3314 3078 
Q 3713 2572 3713 1747 
Q 3713 922 3314 415 
Q 2916 -91 2278 -91 
Q 1894 -91 1617 61 
Q 1341 213 1159 525 
L 1159 0 
L 581 0 
L 581 4863 
L 1159 4863 
L 1159 2969 
z
" transform="scale(0.015625)"/>
      <path id="DejaVuSans-61" d="M 2194 1759 
Q 1497 1759 1228 1600 
Q 959 1441 959 1056 
Q 959 750 1161 570 
Q 1363 391 1709 391 
Q 2188 391 2477 730 
Q 2766 1069 2766 1631 
L 2766 1759 
L 2194 1759 
z
M 3341 1997 
L 3341 0 
L 2766 0 
L 2766 531 
Q 2569 213 2275 61 
Q 1981 -91 1556 -91 
Q 1019 -91 701 211 
Q 384 513 384 1019 
Q 384 1609 779 1909 
Q 1175 2209 1959 2209 
L 2766 2209 
L 2766 2266 
Q 2766 2663 2505 2880 
Q 2244 3097 1772 3097 
Q 1472 3097 1187 3025 
Q 903 2953 641 2809 
L 641 3341 
Q 956 3463 1253 3523 
Q 1550 3584 1831 3584 
Q 2591 3584 2966 3190 
Q 3341 2797 3341 1997 
z
" transform="scale(0.015625)"/>
      <path id="DejaVuSans-72" d="M 2631 2963 
Q 2534 3019 2420 3045 
Q 2306 3072 2169 3072 
Q 1681 3072 1420 2755 
Q 1159 2438 1159 1844 
L 1159 0 
L 581 0 
L 581 3500 
L 1159 3500 
L 1159 2956 
Q 1341 3275 1631 3429 
Q 1922 3584 2338 3584 
Q 2397 3584 2469 3576 
Q 2541 3569 2628 3553 
L 2631 2963 
z
" transform="scale(0.015625)"/>
      <path id="DejaVuSans-69" d="M 603 3500 
L 1178 3500 
L 1178 0 
L 603 0 
L 603 3500 
z
M 603 4863 
L 1178 4863 
L 1178 4134 
L 603 4134 
L 603 4863 
z
" transform="scale(0.015625)"/>
      <path id="DejaVuSans-75" d="M 544 1381 
L 544 3500 
L 1119 3500 
L 1119 1403 
Q 1119 906 1312 657 
Q 1506 409 1894 409 
Q 2359 409 2629 706 
Q 2900 1003 2900 1516 
L 2900 3500 
L 3475 3500 
L 3475 0 
L 2900 0 
L 2900 538 
Q 2691 219 2414 64 
Q 2138 -91 1772 -91 
Q 1169 -91 856 284 
Q 544 659 544 1381 
z
M 1991 3584 
L 1991 3584 
z
" transform="scale(0.015625)"/>
      <path id="DejaVuSans-6d" d="M 3328 2828 
Q 3544 3216 3844 3400 
Q 4144 3584 4550 3584 
Q 5097 3584 5394 3201 
Q 5691 2819 5691 2113 
L 5691 0 
L 5113 0 
L 5113 2094 
Q 5113 2597 4934 2840 
Q 4756 3084 4391 3084 
Q 3944 3084 3684 2787 
Q 3425 2491 3425 1978 
L 3425 0 
L 2847 0 
L 2847 2094 
Q 2847 2600 2669 2842 
Q 2491 3084 2119 3084 
Q 1678 3084 1418 2786 
Q 1159 2488 1159 1978 
L 1159 0 
L 581 0 
L 581 3500 
L 1159 3500 
L 1159 2956 
Q 1356 3278 1631 3431 
Q 1906 3584 2284 3584 
Q 2666 3584 2933 3390 
Q 3200 3197 3328 2828 
z
" transform="scale(0.015625)"/>
     </defs>
     <use xlink:href="#DejaVuSans-50"/>
     <use xlink:href="#DejaVuSans-65" x="56.677734"/>
     <use xlink:href="#DejaVuSans-63" x="118.201172"/>
     <use xlink:href="#DejaVuSans-74" x="173.181641"/>
     <use xlink:href="#DejaVuSans-6f" x="212.390625"/>
     <use xlink:href="#DejaVuSans-62" x="273.572266"/>
     <use xlink:href="#DejaVuSans-61" x="337.048828"/>
     <use xlink:href="#DejaVuSans-63" x="398.328125"/>
     <use xlink:href="#DejaVuSans-74" x="453.308594"/>
     <use xlink:href="#DejaVuSans-65" x="492.517578"/>
     <use xlink:href="#DejaVuSans-72" x="554.041016"/>
     <use xlink:href="#DejaVuSans-69" x="595.154297"/>
     <use xlink:href="#DejaVuSans-75" x="622.9375"/>
     <use xlink:href="#DejaVuSans-6d" x="686.316406"/>
    </g>
    <!-- wasabiae -->
    <g style="fill: #262626" transform="translate(492.626405 1419.828028) scale(0.12 -0.12)">
     <defs>
      <path id="DejaVuSans-77" d="M 269 3500 
L 844 3500 
L 1563 769 
L 2278 3500 
L 2956 3500 
L 3675 769 
L 4391 3500 
L 4966 3500 
L 4050 0 
L 3372 0 
L 2619 2869 
L 1863 0 
L 1184 0 
L 269 3500 
z
" transform="scale(0.015625)"/>
      <path id="DejaVuSans-73" d="M 2834 3397 
L 2834 2853 
Q 2591 2978 2328 3040 
Q 2066 3103 1784 3103 
Q 1356 3103 1142 2972 
Q 928 2841 928 2578 
Q 928 2378 1081 2264 
Q 1234 2150 1697 2047 
L 1894 2003 
Q 2506 1872 2764 1633 
Q 3022 1394 3022 966 
Q 3022 478 2636 193 
Q 2250 -91 1575 -91 
Q 1294 -91 989 -36 
Q 684 19 347 128 
L 347 722 
Q 666 556 975 473 
Q 1284 391 1588 391 
Q 1994 391 2212 530 
Q 2431 669 2431 922 
Q 2431 1156 2273 1281 
Q 2116 1406 1581 1522 
L 1381 1569 
Q 847 1681 609 1914 
Q 372 2147 372 2553 
Q 372 3047 722 3315 
Q 1072 3584 1716 3584 
Q 2034 3584 2315 3537 
Q 2597 3491 2834 3397 
z
" transform="scale(0.015625)"/>
     </defs>
     <use xlink:href="#DejaVuSans-77"/>
     <use xlink:href="#DejaVuSans-61" x="81.787109"/>
     <use xlink:href="#DejaVuSans-73" x="143.066406"/>
     <use xlink:href="#DejaVuSans-61" x="195.166016"/>
     <use xlink:href="#DejaVuSans-62" x="256.445312"/>
     <use xlink:href="#DejaVuSans-69" x="319.921875"/>
     <use xlink:href="#DejaVuSans-61" x="347.705078"/>
     <use xlink:href="#DejaVuSans-65" x="408.984375"/>
    </g>
   </g>
   <g id="patch_7">
    <path d="M 540.330221 1381.848545 
Q 273.76511 694.524272 7.2 7.2 
" style="fill: none; stroke: #000000; stroke-linecap: round"/>
   </g>
   <g id="legend_1"/>
  </g>
 </g>
 <defs>
  <clipPath id="p49da269ade">
   <rect x="489.872405" y="1375.120453" width="279" height="277.2"/>
  </clipPath>
 </defs>
</svg>
