<?xml version="1.0" encoding="utf-8" standalone="no"?>
<!DOCTYPE svg PUBLIC "-//W3C//DTD SVG 1.1//EN"
  "http://www.w3.org/Graphics/SVG/1.1/DTD/svg11.dtd">
<svg xmlns:xlink="http://www.w3.org/1999/xlink" width="455.145766pt" height="745.427pt" viewBox="0 0 455.145766 745.427" xmlns="http://www.w3.org/2000/svg" version="1.1">
 <metadata>
  <rdf:RDF xmlns:dc="http://purl.org/dc/elements/1.1/" xmlns:cc="http://creativecommons.org/ns#" xmlns:rdf="http://www.w3.org/1999/02/22-rdf-syntax-ns#">
   <cc:Work>
    <dc:type rdf:resource="http://purl.org/dc/dcmitype/StillImage"/>
    <dc:date>2023-10-03T21:20:08.170738</dc:date>
    <dc:format>image/svg+xml</dc:format>
    <dc:creator>
     <cc:Agent>
      <dc:title>Matplotlib v3.8.0, https://matplotlib.org/</dc:title>
     </cc:Agent>
    </dc:creator>
   </cc:Work>
  </rdf:RDF>
 </metadata>
 <defs>
  <style type="text/css">*{stroke-linejoin: round; stroke-linecap: butt}</style>
 </defs>
 <g id="figure_1">
  <g id="patch_1">
   <path d="M 0 745.427 
L 455.145766 745.427 
L 455.145766 0 
L 0 0 
z
" style="fill: #ffffff"/>
  </g>
  <g id="axes_1">
   <g id="patch_2">
    <path d="M 88.072883 561.6 
L 367.072883 561.6 
L 367.072883 7.2 
L 88.072883 7.2 
z
" style="fill: #eaeaf2"/>
   </g>
   <g id="matplotlib.axis_1">
    <g id="xtick_1">
     <g id="line2d_1">
      <path d="M 98.050024 561.6 
L 98.050024 7.2 
" clip-path="url(#pc3846f01c7)" style="fill: none; stroke: #ffffff; stroke-linecap: round"/>
     </g>
     <g id="text_1">
      <!-- −5 -->
      <g style="fill: #262626" transform="translate(88.72559 580.712023) scale(0.1265 -0.1265)">
       <defs>
        <path id="DejaVuSans-2212" d="M 678 2272 
L 4684 2272 
L 4684 1741 
L 678 1741 
L 678 2272 
z
" transform="scale(0.015625)"/>
        <path id="DejaVuSans-35" d="M 691 4666 
L 3169 4666 
L 3169 4134 
L 1269 4134 
L 1269 2991 
Q 1406 3038 1543 3061 
Q 1681 3084 1819 3084 
Q 2600 3084 3056 2656 
Q 3513 2228 3513 1497 
Q 3513 744 3044 326 
Q 2575 -91 1722 -91 
Q 1428 -91 1123 -41 
Q 819 9 494 109 
L 494 744 
Q 775 591 1075 516 
Q 1375 441 1709 441 
Q 2250 441 2565 725 
Q 2881 1009 2881 1497 
Q 2881 1984 2565 2268 
Q 2250 2553 1709 2553 
Q 1456 2553 1204 2497 
Q 953 2441 691 2322 
L 691 4666 
z
" transform="scale(0.015625)"/>
       </defs>
       <use xlink:href="#DejaVuSans-2212"/>
       <use xlink:href="#DejaVuSans-35" x="83.789062"/>
      </g>
     </g>
    </g>
    <g id="xtick_2">
     <g id="line2d_2">
      <path d="M 149.318232 561.6 
L 149.318232 7.2 
" clip-path="url(#pc3846f01c7)" style="fill: none; stroke: #ffffff; stroke-linecap: round"/>
     </g>
     <g id="text_2">
      <!-- −4 -->
      <g style="fill: #262626" transform="translate(139.993798 580.712023) scale(0.1265 -0.1265)">
       <defs>
        <path id="DejaVuSans-34" d="M 2419 4116 
L 825 1625 
L 2419 1625 
L 2419 4116 
z
M 2253 4666 
L 3047 4666 
L 3047 1625 
L 3713 1625 
L 3713 1100 
L 3047 1100 
L 3047 0 
L 2419 0 
L 2419 1100 
L 313 1100 
L 313 1709 
L 2253 4666 
z
" transform="scale(0.015625)"/>
       </defs>
       <use xlink:href="#DejaVuSans-2212"/>
       <use xlink:href="#DejaVuSans-34" x="83.789062"/>
      </g>
     </g>
    </g>
    <g id="xtick_3">
     <g id="line2d_3">
      <path d="M 200.58644 561.6 
L 200.58644 7.2 
" clip-path="url(#pc3846f01c7)" style="fill: none; stroke: #ffffff; stroke-linecap: round"/>
     </g>
     <g id="text_3">
      <!-- −3 -->
      <g style="fill: #262626" transform="translate(191.262006 580.712023) scale(0.1265 -0.1265)">
       <defs>
        <path id="DejaVuSans-33" d="M 2597 2516 
Q 3050 2419 3304 2112 
Q 3559 1806 3559 1356 
Q 3559 666 3084 287 
Q 2609 -91 1734 -91 
Q 1441 -91 1130 -33 
Q 819 25 488 141 
L 488 750 
Q 750 597 1062 519 
Q 1375 441 1716 441 
Q 2309 441 2620 675 
Q 2931 909 2931 1356 
Q 2931 1769 2642 2001 
Q 2353 2234 1838 2234 
L 1294 2234 
L 1294 2753 
L 1863 2753 
Q 2328 2753 2575 2939 
Q 2822 3125 2822 3475 
Q 2822 3834 2567 4026 
Q 2313 4219 1838 4219 
Q 1578 4219 1281 4162 
Q 984 4106 628 3988 
L 628 4550 
Q 988 4650 1302 4700 
Q 1616 4750 1894 4750 
Q 2613 4750 3031 4423 
Q 3450 4097 3450 3541 
Q 3450 3153 3228 2886 
Q 3006 2619 2597 2516 
z
" transform="scale(0.015625)"/>
       </defs>
       <use xlink:href="#DejaVuSans-2212"/>
       <use xlink:href="#DejaVuSans-33" x="83.789062"/>
      </g>
     </g>
    </g>
    <g id="xtick_4">
     <g id="line2d_4">
      <path d="M 251.854648 561.6 
L 251.854648 7.2 
" clip-path="url(#pc3846f01c7)" style="fill: none; stroke: #ffffff; stroke-linecap: round"/>
     </g>
     <g id="text_4">
      <!-- −2 -->
      <g style="fill: #262626" transform="translate(242.530215 580.712023) scale(0.1265 -0.1265)">
       <defs>
        <path id="DejaVuSans-32" d="M 1228 531 
L 3431 531 
L 3431 0 
L 469 0 
L 469 531 
Q 828 903 1448 1529 
Q 2069 2156 2228 2338 
Q 2531 2678 2651 2914 
Q 2772 3150 2772 3378 
Q 2772 3750 2511 3984 
Q 2250 4219 1831 4219 
Q 1534 4219 1204 4116 
Q 875 4013 500 3803 
L 500 4441 
Q 881 4594 1212 4672 
Q 1544 4750 1819 4750 
Q 2544 4750 2975 4387 
Q 3406 4025 3406 3419 
Q 3406 3131 3298 2873 
Q 3191 2616 2906 2266 
Q 2828 2175 2409 1742 
Q 1991 1309 1228 531 
z
" transform="scale(0.015625)"/>
       </defs>
       <use xlink:href="#DejaVuSans-2212"/>
       <use xlink:href="#DejaVuSans-32" x="83.789062"/>
      </g>
     </g>
    </g>
    <g id="xtick_5">
     <g id="line2d_5">
      <path d="M 303.122856 561.6 
L 303.122856 7.2 
" clip-path="url(#pc3846f01c7)" style="fill: none; stroke: #ffffff; stroke-linecap: round"/>
     </g>
     <g id="text_5">
      <!-- −1 -->
      <g style="fill: #262626" transform="translate(293.798423 580.712023) scale(0.1265 -0.1265)">
       <defs>
        <path id="DejaVuSans-31" d="M 794 531 
L 1825 531 
L 1825 4091 
L 703 3866 
L 703 4441 
L 1819 4666 
L 2450 4666 
L 2450 531 
L 3481 531 
L 3481 0 
L 794 0 
L 794 531 
z
" transform="scale(0.015625)"/>
       </defs>
       <use xlink:href="#DejaVuSans-2212"/>
       <use xlink:href="#DejaVuSans-31" x="83.789062"/>
      </g>
     </g>
    </g>
    <g id="xtick_6">
     <g id="line2d_6">
      <path d="M 354.391065 561.6 
L 354.391065 7.2 
" clip-path="url(#pc3846f01c7)" style="fill: none; stroke: #ffffff; stroke-linecap: round"/>
     </g>
     <g id="text_6">
      <!-- 0 -->
      <g style="fill: #262626" transform="translate(350.366783 580.712023) scale(0.1265 -0.1265)">
       <defs>
        <path id="DejaVuSans-30" d="M 2034 4250 
Q 1547 4250 1301 3770 
Q 1056 3291 1056 2328 
Q 1056 1369 1301 889 
Q 1547 409 2034 409 
Q 2525 409 2770 889 
Q 3016 1369 3016 2328 
Q 3016 3291 2770 3770 
Q 2525 4250 2034 4250 
z
M 2034 4750 
Q 2819 4750 3233 4129 
Q 3647 3509 3647 2328 
Q 3647 1150 3233 529 
Q 2819 -91 2034 -91 
Q 1250 -91 836 529 
Q 422 1150 422 2328 
Q 422 3509 836 4129 
Q 1250 4750 2034 4750 
z
" transform="scale(0.015625)"/>
       </defs>
       <use xlink:href="#DejaVuSans-30"/>
      </g>
     </g>
    </g>
    <g id="text_7">
     <!-- PC1 16.91% -->
     <g style="fill: #262626" transform="translate(185.701742 597.828672) scale(0.138 -0.138)">
      <defs>
       <path id="DejaVuSans-50" d="M 1259 4147 
L 1259 2394 
L 2053 2394 
Q 2494 2394 2734 2622 
Q 2975 2850 2975 3272 
Q 2975 3691 2734 3919 
Q 2494 4147 2053 4147 
L 1259 4147 
z
M 628 4666 
L 2053 4666 
Q 2838 4666 3239 4311 
Q 3641 3956 3641 3272 
Q 3641 2581 3239 2228 
Q 2838 1875 2053 1875 
L 1259 1875 
L 1259 0 
L 628 0 
L 628 4666 
z
" transform="scale(0.015625)"/>
       <path id="DejaVuSans-43" d="M 4122 4306 
L 4122 3641 
Q 3803 3938 3442 4084 
Q 3081 4231 2675 4231 
Q 1875 4231 1450 3742 
Q 1025 3253 1025 2328 
Q 1025 1406 1450 917 
Q 1875 428 2675 428 
Q 3081 428 3442 575 
Q 3803 722 4122 1019 
L 4122 359 
Q 3791 134 3420 21 
Q 3050 -91 2638 -91 
Q 1578 -91 968 557 
Q 359 1206 359 2328 
Q 359 3453 968 4101 
Q 1578 4750 2638 4750 
Q 3056 4750 3426 4639 
Q 3797 4528 4122 4306 
z
" transform="scale(0.015625)"/>
       <path id="DejaVuSans-20" transform="scale(0.015625)"/>
       <path id="DejaVuSans-36" d="M 2113 2584 
Q 1688 2584 1439 2293 
Q 1191 2003 1191 1497 
Q 1191 994 1439 701 
Q 1688 409 2113 409 
Q 2538 409 2786 701 
Q 3034 994 3034 1497 
Q 3034 2003 2786 2293 
Q 2538 2584 2113 2584 
z
M 3366 4563 
L 3366 3988 
Q 3128 4100 2886 4159 
Q 2644 4219 2406 4219 
Q 1781 4219 1451 3797 
Q 1122 3375 1075 2522 
Q 1259 2794 1537 2939 
Q 1816 3084 2150 3084 
Q 2853 3084 3261 2657 
Q 3669 2231 3669 1497 
Q 3669 778 3244 343 
Q 2819 -91 2113 -91 
Q 1303 -91 875 529 
Q 447 1150 447 2328 
Q 447 3434 972 4092 
Q 1497 4750 2381 4750 
Q 2619 4750 2861 4703 
Q 3103 4656 3366 4563 
z
" transform="scale(0.015625)"/>
       <path id="DejaVuSans-2e" d="M 684 794 
L 1344 794 
L 1344 0 
L 684 0 
L 684 794 
z
" transform="scale(0.015625)"/>
       <path id="DejaVuSans-39" d="M 703 97 
L 703 672 
Q 941 559 1184 500 
Q 1428 441 1663 441 
Q 2288 441 2617 861 
Q 2947 1281 2994 2138 
Q 2813 1869 2534 1725 
Q 2256 1581 1919 1581 
Q 1219 1581 811 2004 
Q 403 2428 403 3163 
Q 403 3881 828 4315 
Q 1253 4750 1959 4750 
Q 2769 4750 3195 4129 
Q 3622 3509 3622 2328 
Q 3622 1225 3098 567 
Q 2575 -91 1691 -91 
Q 1453 -91 1209 -44 
Q 966 3 703 97 
z
M 1959 2075 
Q 2384 2075 2632 2365 
Q 2881 2656 2881 3163 
Q 2881 3666 2632 3958 
Q 2384 4250 1959 4250 
Q 1534 4250 1286 3958 
Q 1038 3666 1038 3163 
Q 1038 2656 1286 2365 
Q 1534 2075 1959 2075 
z
" transform="scale(0.015625)"/>
       <path id="DejaVuSans-25" d="M 4653 2053 
Q 4381 2053 4226 1822 
Q 4072 1591 4072 1178 
Q 4072 772 4226 539 
Q 4381 306 4653 306 
Q 4919 306 5073 539 
Q 5228 772 5228 1178 
Q 5228 1588 5073 1820 
Q 4919 2053 4653 2053 
z
M 4653 2450 
Q 5147 2450 5437 2106 
Q 5728 1763 5728 1178 
Q 5728 594 5436 251 
Q 5144 -91 4653 -91 
Q 4153 -91 3862 251 
Q 3572 594 3572 1178 
Q 3572 1766 3864 2108 
Q 4156 2450 4653 2450 
z
M 1428 4353 
Q 1159 4353 1004 4120 
Q 850 3888 850 3481 
Q 850 3069 1003 2837 
Q 1156 2606 1428 2606 
Q 1700 2606 1854 2837 
Q 2009 3069 2009 3481 
Q 2009 3884 1853 4118 
Q 1697 4353 1428 4353 
z
M 4250 4750 
L 4750 4750 
L 1831 -91 
L 1331 -91 
L 4250 4750 
z
M 1428 4750 
Q 1922 4750 2215 4408 
Q 2509 4066 2509 3481 
Q 2509 2891 2217 2550 
Q 1925 2209 1428 2209 
Q 931 2209 642 2551 
Q 353 2894 353 3481 
Q 353 4063 643 4406 
Q 934 4750 1428 4750 
z
" transform="scale(0.015625)"/>
      </defs>
      <use xlink:href="#DejaVuSans-50"/>
      <use xlink:href="#DejaVuSans-43" x="60.302734"/>
      <use xlink:href="#DejaVuSans-31" x="130.126953"/>
      <use xlink:href="#DejaVuSans-20" x="193.75"/>
      <use xlink:href="#DejaVuSans-31" x="225.537109"/>
      <use xlink:href="#DejaVuSans-36" x="289.160156"/>
      <use xlink:href="#DejaVuSans-2e" x="352.783203"/>
      <use xlink:href="#DejaVuSans-39" x="384.570312"/>
      <use xlink:href="#DejaVuSans-31" x="448.193359"/>
      <use xlink:href="#DejaVuSans-25" x="511.816406"/>
     </g>
    </g>
   </g>
   <g id="matplotlib.axis_2">
    <g id="ytick_1">
     <g id="line2d_7">
      <path d="M 88.072883 534.994453 
L 367.072883 534.994453 
" clip-path="url(#pc3846f01c7)" style="fill: none; stroke: #ffffff; stroke-linecap: round"/>
     </g>
     <g id="text_8">
      <!-- −4 -->
      <g style="fill: #262626" transform="translate(59.924016 539.800465) scale(0.1265 -0.1265)">
       <use xlink:href="#DejaVuSans-2212"/>
       <use xlink:href="#DejaVuSans-34" x="83.789062"/>
      </g>
     </g>
    </g>
    <g id="ytick_2">
     <g id="line2d_8">
      <path d="M 88.072883 462.020966 
L 367.072883 462.020966 
" clip-path="url(#pc3846f01c7)" style="fill: none; stroke: #ffffff; stroke-linecap: round"/>
     </g>
     <g id="text_9">
      <!-- −2 -->
      <g style="fill: #262626" transform="translate(59.924016 466.826978) scale(0.1265 -0.1265)">
       <use xlink:href="#DejaVuSans-2212"/>
       <use xlink:href="#DejaVuSans-32" x="83.789062"/>
      </g>
     </g>
    </g>
    <g id="ytick_3">
     <g id="line2d_9">
      <path d="M 88.072883 389.04748 
L 367.072883 389.04748 
" clip-path="url(#pc3846f01c7)" style="fill: none; stroke: #ffffff; stroke-linecap: round"/>
     </g>
     <g id="text_10">
      <!-- 0 -->
      <g style="fill: #262626" transform="translate(70.52432 393.853491) scale(0.1265 -0.1265)">
       <use xlink:href="#DejaVuSans-30"/>
      </g>
     </g>
    </g>
    <g id="ytick_4">
     <g id="line2d_10">
      <path d="M 88.072883 316.073993 
L 367.072883 316.073993 
" clip-path="url(#pc3846f01c7)" style="fill: none; stroke: #ffffff; stroke-linecap: round"/>
     </g>
     <g id="text_11">
      <!-- 2 -->
      <g style="fill: #262626" transform="translate(70.52432 320.880005) scale(0.1265 -0.1265)">
       <use xlink:href="#DejaVuSans-32"/>
      </g>
     </g>
    </g>
    <g id="ytick_5">
     <g id="line2d_11">
      <path d="M 88.072883 243.100506 
L 367.072883 243.100506 
" clip-path="url(#pc3846f01c7)" style="fill: none; stroke: #ffffff; stroke-linecap: round"/>
     </g>
     <g id="text_12">
      <!-- 4 -->
      <g style="fill: #262626" transform="translate(70.52432 247.906518) scale(0.1265 -0.1265)">
       <use xlink:href="#DejaVuSans-34"/>
      </g>
     </g>
    </g>
    <g id="ytick_6">
     <g id="line2d_12">
      <path d="M 88.072883 170.12702 
L 367.072883 170.12702 
" clip-path="url(#pc3846f01c7)" style="fill: none; stroke: #ffffff; stroke-linecap: round"/>
     </g>
     <g id="text_13">
      <!-- 6 -->
      <g style="fill: #262626" transform="translate(70.52432 174.933031) scale(0.1265 -0.1265)">
       <use xlink:href="#DejaVuSans-36"/>
      </g>
     </g>
    </g>
    <g id="ytick_7">
     <g id="line2d_13">
      <path d="M 88.072883 97.153533 
L 367.072883 97.153533 
" clip-path="url(#pc3846f01c7)" style="fill: none; stroke: #ffffff; stroke-linecap: round"/>
     </g>
     <g id="text_14">
      <!-- 8 -->
      <g style="fill: #262626" transform="translate(70.52432 101.959545) scale(0.1265 -0.1265)">
       <defs>
        <path id="DejaVuSans-38" d="M 2034 2216 
Q 1584 2216 1326 1975 
Q 1069 1734 1069 1313 
Q 1069 891 1326 650 
Q 1584 409 2034 409 
Q 2484 409 2743 651 
Q 3003 894 3003 1313 
Q 3003 1734 2745 1975 
Q 2488 2216 2034 2216 
z
M 1403 2484 
Q 997 2584 770 2862 
Q 544 3141 544 3541 
Q 544 4100 942 4425 
Q 1341 4750 2034 4750 
Q 2731 4750 3128 4425 
Q 3525 4100 3525 3541 
Q 3525 3141 3298 2862 
Q 3072 2584 2669 2484 
Q 3125 2378 3379 2068 
Q 3634 1759 3634 1313 
Q 3634 634 3220 271 
Q 2806 -91 2034 -91 
Q 1263 -91 848 271 
Q 434 634 434 1313 
Q 434 1759 690 2068 
Q 947 2378 1403 2484 
z
M 1172 3481 
Q 1172 3119 1398 2916 
Q 1625 2713 2034 2713 
Q 2441 2713 2670 2916 
Q 2900 3119 2900 3481 
Q 2900 3844 2670 4047 
Q 2441 4250 2034 4250 
Q 1625 4250 1398 4047 
Q 1172 3844 1172 3481 
z
" transform="scale(0.015625)"/>
       </defs>
       <use xlink:href="#DejaVuSans-38"/>
      </g>
     </g>
    </g>
    <g id="ytick_8">
     <g id="line2d_14">
      <path d="M 88.072883 24.180046 
L 367.072883 24.180046 
" clip-path="url(#pc3846f01c7)" style="fill: none; stroke: #ffffff; stroke-linecap: round"/>
     </g>
     <g id="text_15">
      <!-- 10 -->
      <g style="fill: #262626" transform="translate(62.475758 28.986058) scale(0.1265 -0.1265)">
       <use xlink:href="#DejaVuSans-31"/>
       <use xlink:href="#DejaVuSans-30" x="63.623047"/>
      </g>
     </g>
    </g>
    <g id="text_16">
     <!-- PC2 8.06% -->
     <g style="fill: #262626" transform="translate(53.054047 321.881016) rotate(-90) scale(0.138 -0.138)">
      <use xlink:href="#DejaVuSans-50"/>
      <use xlink:href="#DejaVuSans-43" x="60.302734"/>
      <use xlink:href="#DejaVuSans-32" x="130.126953"/>
      <use xlink:href="#DejaVuSans-20" x="193.75"/>
      <use xlink:href="#DejaVuSans-38" x="225.537109"/>
      <use xlink:href="#DejaVuSans-2e" x="289.160156"/>
      <use xlink:href="#DejaVuSans-30" x="320.947266"/>
      <use xlink:href="#DejaVuSans-36" x="384.570312"/>
      <use xlink:href="#DejaVuSans-25" x="448.193359"/>
     </g>
    </g>
   </g>
   <g id="PathCollection_1">
    <path d="M 198.878304 333.002775 
C 200.447267 333.002775 201.95218 332.379419 203.061604 331.269995 
C 204.171028 330.160571 204.794384 328.655657 204.794384 327.086695 
C 204.794384 325.517732 204.171028 324.012819 203.061604 322.903395 
C 201.95218 321.79397 200.447267 321.170615 198.878304 321.170615 
C 197.309341 321.170615 195.804428 321.79397 194.695004 322.903395 
C 193.58558 324.012819 192.962224 325.517732 192.962224 327.086695 
C 192.962224 328.655657 193.58558 330.160571 194.695004 331.269995 
C 195.804428 332.379419 197.309341 333.002775 198.878304 333.002775 
z
" clip-path="url(#pc3846f01c7)" style="fill: #f77189; stroke: #ffffff; stroke-width: 0.946573"/>
    <path d="M 171.095851 458.972075 
L 174.053891 456.014035 
L 177.011931 458.972075 
L 179.969971 456.014035 
L 177.011931 453.055995 
L 179.969971 450.097955 
L 177.011931 447.139915 
L 174.053891 450.097955 
L 171.095851 447.139915 
L 168.137811 450.097955 
L 171.095851 453.055995 
L 168.137811 456.014035 
z
" clip-path="url(#pc3846f01c7)" style="fill: #f8763b; stroke: #ffffff; stroke-width: 0.946573"/>
    <path d="M 220.387475 450.615436 
L 220.387475 458.982036 
L 228.754075 458.982036 
L 228.754075 450.615436 
z
" clip-path="url(#pc3846f01c7)" style="fill: #d28e32; stroke: #ffffff; stroke-width: 0.946573"/>
    <path d="M 202.36865 438.945942 
L 202.36865 447.312543 
L 210.73525 447.312543 
L 210.73525 438.945942 
z
" clip-path="url(#pc3846f01c7)" style="fill: #d28e32; stroke: #ffffff; stroke-width: 0.946573"/>
    <path d="M 182.949319 270.376527 
L 186.893372 270.376527 
L 186.893372 266.432474 
L 190.837425 266.432474 
L 190.837425 262.48842 
L 186.893372 262.48842 
L 186.893372 258.544367 
L 182.949319 258.544367 
L 182.949319 262.48842 
L 179.005266 262.48842 
L 179.005266 266.432474 
L 182.949319 266.432474 
z
" clip-path="url(#pc3846f01c7)" style="fill: #b79932; stroke: #ffffff; stroke-width: 0.946573"/>
    <path d="M 202.83833 417.697249 
L 196.922251 423.613328 
L 202.83833 429.529408 
L 208.75441 423.613328 
z
" clip-path="url(#pc3846f01c7)" style="fill: #9ea231; stroke: #ffffff; stroke-width: 0.946573"/>
    <path d="M 185.58127 446.134429 
L 185.58127 454.50103 
L 193.94787 454.50103 
L 193.94787 446.134429 
z
" clip-path="url(#pc3846f01c7)" style="fill: #d28e32; stroke: #ffffff; stroke-width: 0.946573"/>
    <path d="M 153.522547 36.438885 
L 151.430897 40.263315 
L 147.606468 42.354965 
L 151.430897 44.446615 
L 153.522547 48.271044 
L 155.614198 44.446615 
L 159.438627 42.354965 
L 155.614198 40.263315 
z
" clip-path="url(#pc3846f01c7)" style="fill: #7caa31; stroke: #ffffff; stroke-width: 0.946573"/>
    <path d="M 240.049172 476.79119 
L 234.133092 488.62335 
L 245.965252 488.62335 
z
" clip-path="url(#pc3846f01c7)" style="fill: #31b345; stroke: #ffffff; stroke-width: 0.946573"/>
    <path d="M 255.240714 475.064231 
L 249.324635 486.89639 
L 261.156794 486.89639 
z
" clip-path="url(#pc3846f01c7)" style="fill: #31b345; stroke: #ffffff; stroke-width: 0.946573"/>
    <path d="M 244.405783 475.223357 
L 238.489703 487.055517 
L 250.321863 487.055517 
z
" clip-path="url(#pc3846f01c7)" style="fill: #31b345; stroke: #ffffff; stroke-width: 0.946573"/>
    <path d="M 240.643848 476.310428 
L 234.727768 488.142587 
L 246.559928 488.142587 
z
" clip-path="url(#pc3846f01c7)" style="fill: #31b345; stroke: #ffffff; stroke-width: 0.946573"/>
    <path d="M 244.405783 475.223357 
L 238.489703 487.055517 
L 250.321863 487.055517 
z
" clip-path="url(#pc3846f01c7)" style="fill: #31b345; stroke: #ffffff; stroke-width: 0.946573"/>
    <path d="M 201.874248 411.622578 
L 195.958168 423.454738 
L 207.790328 423.454738 
z
" clip-path="url(#pc3846f01c7)" style="fill: #31b345; stroke: #ffffff; stroke-width: 0.946573"/>
    <path d="M 230.240894 477.139857 
L 224.324814 488.972016 
L 236.156974 488.972016 
z
" clip-path="url(#pc3846f01c7)" style="fill: #31b345; stroke: #ffffff; stroke-width: 0.946573"/>
    <path d="M 148.836693 28.909591 
L 146.745043 32.734021 
L 142.920613 34.825671 
L 146.745043 36.917321 
L 148.836693 40.741751 
L 150.928343 36.917321 
L 154.752772 34.825671 
L 150.928343 32.734021 
z
" clip-path="url(#pc3846f01c7)" style="fill: #7caa31; stroke: #ffffff; stroke-width: 0.946573"/>
    <path d="M 163.989291 527.322023 
L 163.989291 535.688623 
L 172.355891 535.688623 
L 172.355891 527.322023 
z
" clip-path="url(#pc3846f01c7)" style="fill: #d28e32; stroke: #ffffff; stroke-width: 0.946573"/>
    <path d="M 182.363226 274.135328 
L 186.307279 274.135328 
L 186.307279 270.191275 
L 190.251332 270.191275 
L 190.251332 266.247222 
L 186.307279 266.247222 
L 186.307279 262.303169 
L 182.363226 262.303169 
L 182.363226 266.247222 
L 178.419173 266.247222 
L 178.419173 270.191275 
L 182.363226 270.191275 
z
" clip-path="url(#pc3846f01c7)" style="fill: #b79932; stroke: #ffffff; stroke-width: 0.946573"/>
    <path d="M 244.954671 457.512305 
L 239.038592 469.344465 
L 250.870751 469.344465 
z
" clip-path="url(#pc3846f01c7)" style="fill: #31b345; stroke: #ffffff; stroke-width: 0.946573"/>
    <path d="M 240.049172 476.79119 
L 234.133092 488.62335 
L 245.965252 488.62335 
z
" clip-path="url(#pc3846f01c7)" style="fill: #31b345; stroke: #ffffff; stroke-width: 0.946573"/>
    <path d="M 197.837475 404.523584 
L 191.921395 416.355743 
L 203.753554 416.355743 
z
" clip-path="url(#pc3846f01c7)" style="fill: #31b345; stroke: #ffffff; stroke-width: 0.946573"/>
    <path d="M 196.567313 464.696907 
L 199.525352 461.738867 
L 202.483392 464.696907 
L 205.441432 461.738867 
L 202.483392 458.780827 
L 205.441432 455.822787 
L 202.483392 452.864747 
L 199.525352 455.822787 
L 196.567313 452.864747 
L 193.609273 455.822787 
L 196.567313 458.780827 
L 193.609273 461.738867 
z
" clip-path="url(#pc3846f01c7)" style="fill: #f8763b; stroke: #ffffff; stroke-width: 0.946573"/>
    <path d="M 254.186774 471.288713 
L 248.270694 483.120873 
L 260.102853 483.120873 
z
" clip-path="url(#pc3846f01c7)" style="fill: #31b345; stroke: #ffffff; stroke-width: 0.946573"/>
    <path d="M 244.405783 475.223357 
L 238.489703 487.055517 
L 250.321863 487.055517 
z
" clip-path="url(#pc3846f01c7)" style="fill: #31b345; stroke: #ffffff; stroke-width: 0.946573"/>
    <path d="M 181.774517 434.1903 
L 182.999777 438.3736 
L 181.774517 442.5569 
L 185.957817 441.33164 
L 190.141117 442.5569 
L 188.915857 438.3736 
L 190.141117 434.1903 
L 185.957817 435.41556 
z
" clip-path="url(#pc3846f01c7)" style="fill: #34b081; stroke: #ffffff; stroke-width: 0.946573"/>
    <path d="M 254.423562 467.004157 
L 248.507482 478.836316 
L 260.339642 478.836316 
z
" clip-path="url(#pc3846f01c7)" style="fill: #31b345; stroke: #ffffff; stroke-width: 0.946573"/>
    <path d="M 241.936995 475.382982 
L 236.020915 487.215141 
L 247.853075 487.215141 
z
" clip-path="url(#pc3846f01c7)" style="fill: #31b345; stroke: #ffffff; stroke-width: 0.946573"/>
    <path d="M 235.247928 445.483049 
L 229.331848 457.315209 
L 241.164008 457.315209 
z
" clip-path="url(#pc3846f01c7)" style="fill: #31b345; stroke: #ffffff; stroke-width: 0.946573"/>
    <path d="M 230.314584 412.81116 
L 236.230664 400.979 
L 224.398504 400.979 
z
" clip-path="url(#pc3846f01c7)" style="fill: #35ae9a; stroke: #ffffff; stroke-width: 0.946573"/>
    <path d="M 241.447924 426.898609 
L 235.531844 438.730768 
L 247.364004 438.730768 
z
" clip-path="url(#pc3846f01c7)" style="fill: #31b345; stroke: #ffffff; stroke-width: 0.946573"/>
    <path d="M 224.894969 457.229899 
L 218.97889 463.145978 
L 224.894969 469.062058 
L 230.811049 463.145978 
z
" clip-path="url(#pc3846f01c7)" style="fill: #9ea231; stroke: #ffffff; stroke-width: 0.946573"/>
    <path d="M 97.796661 334.783315 
L 98.192963 338.42777 
L 94.838621 339.90679 
L 98.192963 341.38581 
L 97.796661 345.030265 
L 100.754701 342.86483 
L 103.712741 345.030265 
L 103.316439 341.38581 
L 106.670781 339.90679 
L 103.316439 338.42777 
L 103.712741 334.783315 
L 100.754701 336.94875 
z
" clip-path="url(#pc3846f01c7)" style="fill: #36acad; stroke: #ffffff; stroke-width: 0.946573"/>
    <path d="M 218.656476 434.035901 
L 212.740396 439.951981 
L 218.656476 445.868061 
L 224.572556 439.951981 
z
" clip-path="url(#pc3846f01c7)" style="fill: #9ea231; stroke: #ffffff; stroke-width: 0.946573"/>
    <path d="M 222.992225 458.684519 
L 222.992225 467.05112 
L 231.358825 467.05112 
L 231.358825 458.684519 
z
" clip-path="url(#pc3846f01c7)" style="fill: #d28e32; stroke: #ffffff; stroke-width: 0.946573"/>
    <path d="M 188.407879 344.367935 
C 189.976842 344.367935 191.481755 343.744579 192.591179 342.635155 
C 193.700603 341.525731 194.323959 340.020818 194.323959 338.451855 
C 194.323959 336.882892 193.700603 335.377979 192.591179 334.268555 
C 191.481755 333.159131 189.976842 332.535775 188.407879 332.535775 
C 186.838916 332.535775 185.334003 333.159131 184.224579 334.268555 
C 183.115155 335.377979 182.491799 336.882892 182.491799 338.451855 
C 182.491799 340.020818 183.115155 341.525731 184.224579 342.635155 
C 185.334003 343.744579 186.838916 344.367935 188.407879 344.367935 
z
" clip-path="url(#pc3846f01c7)" style="fill: #f77189; stroke: #ffffff; stroke-width: 0.946573"/>
    <path d="M 158.358684 243.247801 
L 162.302738 243.247801 
L 162.302738 239.303748 
L 166.246791 239.303748 
L 166.246791 235.359695 
L 162.302738 235.359695 
L 162.302738 231.415641 
L 158.358684 231.415641 
L 158.358684 235.359695 
L 154.414631 235.359695 
L 154.414631 239.303748 
L 158.358684 239.303748 
z
" clip-path="url(#pc3846f01c7)" style="fill: #b79932; stroke: #ffffff; stroke-width: 0.946573"/>
    <path d="M 195.659169 405.3075 
L 189.743089 417.139659 
L 201.575249 417.139659 
z
" clip-path="url(#pc3846f01c7)" style="fill: #31b345; stroke: #ffffff; stroke-width: 0.946573"/>
    <path d="M 242.227478 476.007274 
L 236.311398 487.839433 
L 248.143557 487.839433 
z
" clip-path="url(#pc3846f01c7)" style="fill: #31b345; stroke: #ffffff; stroke-width: 0.946573"/>
    <path d="M 245.573421 444.287007 
L 239.657341 456.119166 
L 251.489501 456.119166 
z
" clip-path="url(#pc3846f01c7)" style="fill: #31b345; stroke: #ffffff; stroke-width: 0.946573"/>
    <path d="M 172.745449 292.070619 
L 178.661529 280.238459 
L 166.82937 280.238459 
z
" clip-path="url(#pc3846f01c7)" style="fill: #35ae9a; stroke: #ffffff; stroke-width: 0.946573"/>
    <path d="M 188.927373 257.569651 
L 192.871426 257.569651 
L 192.871426 253.625598 
L 196.815479 253.625598 
L 196.815479 249.681545 
L 192.871426 249.681545 
L 192.871426 245.737491 
L 188.927373 245.737491 
L 188.927373 249.681545 
L 184.98332 249.681545 
L 184.98332 253.625598 
L 188.927373 253.625598 
z
" clip-path="url(#pc3846f01c7)" style="fill: #b79932; stroke: #ffffff; stroke-width: 0.946573"/>
    <path d="M 190.256205 432.948037 
L 184.340125 438.864117 
L 190.256205 444.780197 
L 196.172285 438.864117 
z
" clip-path="url(#pc3846f01c7)" style="fill: #9ea231; stroke: #ffffff; stroke-width: 0.946573"/>
    <path d="M 258.189295 425.356553 
L 259.414555 429.539853 
L 258.189295 433.723153 
L 262.372595 432.497893 
L 266.555895 433.723153 
L 265.330635 429.539853 
L 266.555895 425.356553 
L 262.372595 426.581813 
z
" clip-path="url(#pc3846f01c7)" style="fill: #34b081; stroke: #ffffff; stroke-width: 0.946573"/>
    <path d="M 189.438655 407.255454 
L 195.354734 395.423295 
L 183.522575 395.423295 
z
" clip-path="url(#pc3846f01c7)" style="fill: #35ae9a; stroke: #ffffff; stroke-width: 0.946573"/>
    <path d="M 244.405783 475.223357 
L 238.489703 487.055517 
L 250.321863 487.055517 
z
" clip-path="url(#pc3846f01c7)" style="fill: #31b345; stroke: #ffffff; stroke-width: 0.946573"/>
    <path d="M 195.943419 446.627149 
L 195.943419 454.993749 
L 204.310019 454.993749 
L 204.310019 446.627149 
z
" clip-path="url(#pc3846f01c7)" style="fill: #d28e32; stroke: #ffffff; stroke-width: 0.946573"/>
    <path d="M 242.227478 476.007274 
L 236.311398 487.839433 
L 248.143557 487.839433 
z
" clip-path="url(#pc3846f01c7)" style="fill: #31b345; stroke: #ffffff; stroke-width: 0.946573"/>
    <path d="M 168.465992 45.17683 
L 166.374342 49.001259 
L 162.549912 51.092909 
L 166.374342 53.184559 
L 168.465992 57.008989 
L 170.557642 53.184559 
L 174.382071 51.092909 
L 170.557642 49.001259 
z
" clip-path="url(#pc3846f01c7)" style="fill: #7caa31; stroke: #ffffff; stroke-width: 0.946573"/>
    <path d="M 219.778103 145.819962 
L 217.686453 149.644392 
L 213.862024 151.736042 
L 217.686453 153.827692 
L 219.778103 157.652122 
L 221.869754 153.827692 
L 225.694183 151.736042 
L 221.869754 149.644392 
z
" clip-path="url(#pc3846f01c7)" style="fill: #7caa31; stroke: #ffffff; stroke-width: 0.946573"/>
    <path d="M 235.231336 411.920228 
L 235.231336 420.286828 
L 243.597936 420.286828 
L 243.597936 411.920228 
z
" clip-path="url(#pc3846f01c7)" style="fill: #d28e32; stroke: #ffffff; stroke-width: 0.946573"/>
    <path d="M 229.610789 439.002739 
L 223.694709 450.834899 
L 235.526868 450.834899 
z
" clip-path="url(#pc3846f01c7)" style="fill: #31b345; stroke: #ffffff; stroke-width: 0.946573"/>
    <path d="M 219.765573 448.954005 
L 213.849494 460.786165 
L 225.681653 460.786165 
z
" clip-path="url(#pc3846f01c7)" style="fill: #31b345; stroke: #ffffff; stroke-width: 0.946573"/>
    <path d="M 214.18932 405.143244 
L 208.27324 411.059324 
L 214.18932 416.975404 
L 220.105399 411.059324 
z
" clip-path="url(#pc3846f01c7)" style="fill: #9ea231; stroke: #ffffff; stroke-width: 0.946573"/>
    <path d="M 221.383806 347.38215 
L 222.609066 351.56545 
L 221.383806 355.74875 
L 225.567106 354.52349 
L 229.750406 355.74875 
L 228.525146 351.56545 
L 229.750406 347.38215 
L 225.567106 348.60741 
z
" clip-path="url(#pc3846f01c7)" style="fill: #34b081; stroke: #ffffff; stroke-width: 0.946573"/>
    <path d="M 205.748827 392.662639 
L 202.790787 397.786115 
L 205.748827 402.90959 
L 211.664907 402.90959 
L 214.622947 397.786115 
L 211.664907 392.662639 
z
" clip-path="url(#pc3846f01c7)" style="fill: #38aac1; stroke: #ffffff; stroke-width: 0.946573"/>
    <path d="M 202.188132 431.614713 
L 202.188132 439.981313 
L 210.554732 439.981313 
L 210.554732 431.614713 
z
" clip-path="url(#pc3846f01c7)" style="fill: #d28e32; stroke: #ffffff; stroke-width: 0.946573"/>
    <path d="M 180.410532 128.534448 
L 178.318882 132.358878 
L 174.494452 134.450528 
L 178.318882 136.542178 
L 180.410532 140.366608 
L 182.502182 136.542178 
L 186.326611 134.450528 
L 182.502182 132.358878 
z
" clip-path="url(#pc3846f01c7)" style="fill: #7caa31; stroke: #ffffff; stroke-width: 0.946573"/>
    <path d="M 195.752312 123.838935 
L 193.660662 127.663365 
L 189.836233 129.755015 
L 193.660662 131.846665 
L 195.752312 135.671094 
L 197.843962 131.846665 
L 201.668392 129.755015 
L 197.843962 127.663365 
z
" clip-path="url(#pc3846f01c7)" style="fill: #7caa31; stroke: #ffffff; stroke-width: 0.946573"/>
    <path d="M 243.227073 433.052856 
L 237.310994 444.885016 
L 249.143153 444.885016 
z
" clip-path="url(#pc3846f01c7)" style="fill: #31b345; stroke: #ffffff; stroke-width: 0.946573"/>
    <path d="M 186.9806 471.432284 
L 186.9806 479.798884 
L 195.3472 479.798884 
L 195.3472 471.432284 
z
" clip-path="url(#pc3846f01c7)" style="fill: #d28e32; stroke: #ffffff; stroke-width: 0.946573"/>
    <path d="M 253.64159 438.731541 
L 247.72551 450.5637 
L 259.55767 450.5637 
z
" clip-path="url(#pc3846f01c7)" style="fill: #31b345; stroke: #ffffff; stroke-width: 0.946573"/>
    <path d="M 229.582448 406.773907 
L 227.843755 410.296882 
L 223.955921 410.861817 
L 226.769184 413.604071 
L 226.105063 417.476196 
L 229.582448 415.648027 
L 233.059832 417.476196 
L 232.395711 413.604071 
L 235.208974 410.861817 
L 231.32114 410.296882 
z
" clip-path="url(#pc3846f01c7)" style="fill: #3aa6dd; stroke: #ffffff; stroke-width: 0.946573"/>
    <path d="M 217.918687 450.775061 
L 217.918687 459.141661 
L 226.285287 459.141661 
L 226.285287 450.775061 
z
" clip-path="url(#pc3846f01c7)" style="fill: #d28e32; stroke: #ffffff; stroke-width: 0.946573"/>
    <path d="M 241.447924 426.898609 
L 235.531844 438.730768 
L 247.364004 438.730768 
z
" clip-path="url(#pc3846f01c7)" style="fill: #31b345; stroke: #ffffff; stroke-width: 0.946573"/>
    <path d="M 263.055811 434.613328 
L 257.139732 446.445488 
L 268.971891 446.445488 
z
" clip-path="url(#pc3846f01c7)" style="fill: #31b345; stroke: #ffffff; stroke-width: 0.946573"/>
    <path d="M 173.003451 491.481044 
L 173.003451 499.847644 
L 181.370051 499.847644 
L 181.370051 491.481044 
z
" clip-path="url(#pc3846f01c7)" style="fill: #d28e32; stroke: #ffffff; stroke-width: 0.946573"/>
    <path d="M 244.405783 475.223357 
L 238.489703 487.055517 
L 250.321863 487.055517 
z
" clip-path="url(#pc3846f01c7)" style="fill: #31b345; stroke: #ffffff; stroke-width: 0.946573"/>
    <path d="M 210.874895 424.921947 
L 204.958815 436.754106 
L 216.790975 436.754106 
z
" clip-path="url(#pc3846f01c7)" style="fill: #31b345; stroke: #ffffff; stroke-width: 0.946573"/>
    <path d="M 142.145318 34.860689 
L 140.053668 38.685119 
L 136.229238 40.776769 
L 140.053668 42.868419 
L 142.145318 46.692849 
L 144.236968 42.868419 
L 148.061398 40.776769 
L 144.236968 38.685119 
z
" clip-path="url(#pc3846f01c7)" style="fill: #7caa31; stroke: #ffffff; stroke-width: 0.946573"/>
    <path d="M 237.236644 465.659951 
L 231.320564 477.49211 
L 243.152723 477.49211 
z
" clip-path="url(#pc3846f01c7)" style="fill: #31b345; stroke: #ffffff; stroke-width: 0.946573"/>
    <path d="M 210.914648 289.56289 
L 214.858701 289.56289 
L 214.858701 285.618837 
L 218.802755 285.618837 
L 218.802755 281.674784 
L 214.858701 281.674784 
L 214.858701 277.730731 
L 210.914648 277.730731 
L 210.914648 281.674784 
L 206.970595 281.674784 
L 206.970595 285.618837 
L 210.914648 285.618837 
z
" clip-path="url(#pc3846f01c7)" style="fill: #b79932; stroke: #ffffff; stroke-width: 0.946573"/>
    <path d="M 217.802369 406.718852 
L 211.886289 418.551011 
L 223.718448 418.551011 
z
" clip-path="url(#pc3846f01c7)" style="fill: #31b345; stroke: #ffffff; stroke-width: 0.946573"/>
    <path d="M 179.832293 448.324074 
L 173.916213 460.156233 
L 185.748372 460.156233 
z
" clip-path="url(#pc3846f01c7)" style="fill: #31b345; stroke: #ffffff; stroke-width: 0.946573"/>
    <path d="M 198.81953 422.979024 
L 192.903451 434.811183 
L 204.73561 434.811183 
z
" clip-path="url(#pc3846f01c7)" style="fill: #31b345; stroke: #ffffff; stroke-width: 0.946573"/>
    <path d="M 203.472231 134.498264 
L 201.380581 138.322694 
L 197.556152 140.414344 
L 201.380581 142.505994 
L 203.472231 146.330423 
L 205.563881 142.505994 
L 209.388311 140.414344 
L 205.563881 138.322694 
z
" clip-path="url(#pc3846f01c7)" style="fill: #7caa31; stroke: #ffffff; stroke-width: 0.946573"/>
    <path d="M 190.259727 125.402775 
L 188.168077 129.227205 
L 184.343648 131.318855 
L 188.168077 133.410505 
L 190.259727 137.234935 
L 192.351378 133.410505 
L 196.175807 131.318855 
L 192.351378 129.227205 
z
" clip-path="url(#pc3846f01c7)" style="fill: #7caa31; stroke: #ffffff; stroke-width: 0.946573"/>
    <path d="M 178.934675 472.705067 
L 178.934675 481.071667 
L 187.301276 481.071667 
L 187.301276 472.705067 
z
" clip-path="url(#pc3846f01c7)" style="fill: #d28e32; stroke: #ffffff; stroke-width: 0.946573"/>
    <path d="M 244.405783 475.223357 
L 238.489703 487.055517 
L 250.321863 487.055517 
z
" clip-path="url(#pc3846f01c7)" style="fill: #31b345; stroke: #ffffff; stroke-width: 0.946573"/>
    <path d="M 200.193706 415.674012 
L 206.109786 403.841852 
L 194.277627 403.841852 
z
" clip-path="url(#pc3846f01c7)" style="fill: #35ae9a; stroke: #ffffff; stroke-width: 0.946573"/>
    <path d="M 244.405783 475.223357 
L 238.489703 487.055517 
L 250.321863 487.055517 
z
" clip-path="url(#pc3846f01c7)" style="fill: #31b345; stroke: #ffffff; stroke-width: 0.946573"/>
    <path d="M 205.650537 133.714348 
L 203.558887 137.538777 
L 199.734457 139.630427 
L 203.558887 141.722077 
L 205.650537 145.546507 
L 207.742187 141.722077 
L 211.566617 139.630427 
L 207.742187 137.538777 
z
" clip-path="url(#pc3846f01c7)" style="fill: #7caa31; stroke: #ffffff; stroke-width: 0.946573"/>
    <path d="M 254.191034 455.347147 
L 248.274954 467.179306 
L 260.107114 467.179306 
z
" clip-path="url(#pc3846f01c7)" style="fill: #31b345; stroke: #ffffff; stroke-width: 0.946573"/>
    <path d="M 184.281935 531.783441 
L 184.281935 540.150041 
L 192.648535 540.150041 
L 192.648535 531.783441 
z
" clip-path="url(#pc3846f01c7)" style="fill: #d28e32; stroke: #ffffff; stroke-width: 0.946573"/>
    <path d="M 225.795659 434.746984 
L 219.879579 440.663064 
L 225.795659 446.579143 
L 231.711739 440.663064 
z
" clip-path="url(#pc3846f01c7)" style="fill: #9ea231; stroke: #ffffff; stroke-width: 0.946573"/>
    <path d="M 167.838785 462.964371 
L 167.838785 471.330971 
L 176.205385 471.330971 
L 176.205385 462.964371 
z
" clip-path="url(#pc3846f01c7)" style="fill: #d28e32; stroke: #ffffff; stroke-width: 0.946573"/>
    <path d="M 253.879952 471.739495 
L 247.963873 483.571655 
L 259.796032 483.571655 
z
" clip-path="url(#pc3846f01c7)" style="fill: #31b345; stroke: #ffffff; stroke-width: 0.946573"/>
    <path d="M 140.310585 510.636078 
L 140.310585 519.002678 
L 148.677185 519.002678 
L 148.677185 510.636078 
z
" clip-path="url(#pc3846f01c7)" style="fill: #d28e32; stroke: #ffffff; stroke-width: 0.946573"/>
    <path d="M 174.697175 461.22422 
L 168.781095 473.05638 
L 180.613254 473.05638 
z
" clip-path="url(#pc3846f01c7)" style="fill: #31b345; stroke: #ffffff; stroke-width: 0.946573"/>
    <path d="M 186.728692 314.341156 
C 188.297655 314.341156 189.802568 313.717801 190.911992 312.608376 
C 192.021416 311.498952 192.644772 309.994039 192.644772 308.425076 
C 192.644772 306.856114 192.021416 305.3512 190.911992 304.241776 
C 189.802568 303.132352 188.297655 302.508997 186.728692 302.508997 
C 185.159729 302.508997 183.654816 303.132352 182.545392 304.241776 
C 181.435968 305.3512 180.812612 306.856114 180.812612 308.425076 
C 180.812612 309.994039 181.435968 311.498952 182.545392 312.608376 
C 183.654816 313.717801 185.159729 314.341156 186.728692 314.341156 
z
" clip-path="url(#pc3846f01c7)" style="fill: #f77189; stroke: #ffffff; stroke-width: 0.946573"/>
    <path d="M 151.851412 375.29956 
L 146.224886 379.387471 
L 148.374027 386.001849 
L 155.328796 386.001849 
L 157.477938 379.387471 
z
" clip-path="url(#pc3846f01c7)" style="fill: #7699f4; stroke: #ffffff; stroke-width: 0.946573"/>
    <path d="M 181.401748 268.791788 
L 185.345801 268.791788 
L 185.345801 264.847735 
L 189.289854 264.847735 
L 189.289854 260.903682 
L 185.345801 260.903682 
L 185.345801 256.959628 
L 181.401748 256.959628 
L 181.401748 260.903682 
L 177.457695 260.903682 
L 177.457695 264.847735 
L 181.401748 264.847735 
z
" clip-path="url(#pc3846f01c7)" style="fill: #b79932; stroke: #ffffff; stroke-width: 0.946573"/>
    <path d="M 194.797548 476.445089 
L 194.797548 484.811689 
L 203.164148 484.811689 
L 203.164148 476.445089 
z
" clip-path="url(#pc3846f01c7)" style="fill: #d28e32; stroke: #ffffff; stroke-width: 0.946573"/>
    <path d="M 228.25865 439.129802 
L 222.342571 450.961962 
L 234.17473 450.961962 
z
" clip-path="url(#pc3846f01c7)" style="fill: #31b345; stroke: #ffffff; stroke-width: 0.946573"/>
    <path d="M 204.047658 151.623005 
L 201.956008 155.447435 
L 198.131578 157.539085 
L 201.956008 159.630735 
L 204.047658 163.455165 
L 206.139308 159.630735 
L 209.963737 157.539085 
L 206.139308 155.447435 
z
" clip-path="url(#pc3846f01c7)" style="fill: #7caa31; stroke: #ffffff; stroke-width: 0.946573"/>
    <path d="M 144.122333 376.419916 
L 145.347593 380.603216 
L 144.122333 384.786516 
L 148.305633 383.561256 
L 152.488933 384.786516 
L 151.263673 380.603216 
L 152.488933 376.419916 
L 148.305633 377.645176 
z
" clip-path="url(#pc3846f01c7)" style="fill: #34b081; stroke: #ffffff; stroke-width: 0.946573"/>
    <path d="M 257.156366 292.927224 
L 257.410568 296.41312 
L 253.955506 296.940976 
L 256.839381 298.915653 
L 255.097879 301.946043 
L 258.439811 300.922529 
L 259.723257 304.173507 
L 261.006702 300.922529 
L 264.348634 301.946043 
L 262.607133 298.915653 
L 265.491008 296.940976 
L 262.035946 296.41312 
L 262.290148 292.927224 
L 259.723257 295.299387 
z
" clip-path="url(#pc3846f01c7)" style="fill: #b087f4; stroke: #ffffff; stroke-width: 0.946573"/>
    <path d="M 190.491241 405.605431 
L 190.491241 413.972031 
L 198.857841 413.972031 
L 198.857841 405.605431 
z
" clip-path="url(#pc3846f01c7)" style="fill: #d28e32; stroke: #ffffff; stroke-width: 0.946573"/>
    <path d="M 229.016113 439.483501 
L 223.100033 451.315661 
L 234.932193 451.315661 
z
" clip-path="url(#pc3846f01c7)" style="fill: #31b345; stroke: #ffffff; stroke-width: 0.946573"/>
    <path d="M 236.254476 427.470768 
L 230.338396 433.386848 
L 236.254476 439.302928 
L 242.170555 433.386848 
z
" clip-path="url(#pc3846f01c7)" style="fill: #9ea231; stroke: #ffffff; stroke-width: 0.946573"/>
    <path d="M 204.792433 458.011894 
L 207.750473 455.053854 
L 210.708513 458.011894 
L 213.666553 455.053854 
L 210.708513 452.095814 
L 213.666553 449.137774 
L 210.708513 446.179735 
L 207.750473 449.137774 
L 204.792433 446.179735 
L 201.834393 449.137774 
L 204.792433 452.095814 
L 201.834393 455.053854 
z
" clip-path="url(#pc3846f01c7)" style="fill: #f8763b; stroke: #ffffff; stroke-width: 0.946573"/>
    <path d="M 172.945447 367.555308 
L 167.029368 373.471388 
L 172.945447 379.387468 
L 178.861527 373.471388 
z
" clip-path="url(#pc3846f01c7)" style="fill: #9ea231; stroke: #ffffff; stroke-width: 0.946573"/>
    <path d="M 190.086186 279.55527 
L 194.030239 279.55527 
L 194.030239 275.611216 
L 197.974293 275.611216 
L 197.974293 271.667163 
L 194.030239 271.667163 
L 194.030239 267.72311 
L 190.086186 267.72311 
L 190.086186 271.667163 
L 186.142133 271.667163 
L 186.142133 275.611216 
L 190.086186 275.611216 
z
" clip-path="url(#pc3846f01c7)" style="fill: #b79932; stroke: #ffffff; stroke-width: 0.946573"/>
    <path d="M 173.958577 43.612989 
L 171.866926 47.437419 
L 168.042497 49.529069 
L 171.866926 51.620719 
L 173.958577 55.445149 
L 176.050227 51.620719 
L 179.874656 49.529069 
L 176.050227 47.437419 
z
" clip-path="url(#pc3846f01c7)" style="fill: #7caa31; stroke: #ffffff; stroke-width: 0.946573"/>
    <path d="M 222.844381 441.530579 
L 216.928301 453.362739 
L 228.76046 453.362739 
z
" clip-path="url(#pc3846f01c7)" style="fill: #31b345; stroke: #ffffff; stroke-width: 0.946573"/>
    <path d="M 244.405783 475.223357 
L 238.489703 487.055517 
L 250.321863 487.055517 
z
" clip-path="url(#pc3846f01c7)" style="fill: #31b345; stroke: #ffffff; stroke-width: 0.946573"/>
    <path d="M 227.209282 464.398574 
L 221.293202 476.230734 
L 233.125362 476.230734 
z
" clip-path="url(#pc3846f01c7)" style="fill: #31b345; stroke: #ffffff; stroke-width: 0.946573"/>
    <path d="M 244.405783 475.223357 
L 238.489703 487.055517 
L 250.321863 487.055517 
z
" clip-path="url(#pc3846f01c7)" style="fill: #31b345; stroke: #ffffff; stroke-width: 0.946573"/>
    <path d="M 219.778103 145.819962 
L 217.686453 149.644392 
L 213.862024 151.736042 
L 217.686453 153.827692 
L 219.778103 157.652122 
L 221.869754 153.827692 
L 225.694183 151.736042 
L 221.869754 149.644392 
z
" clip-path="url(#pc3846f01c7)" style="fill: #7caa31; stroke: #ffffff; stroke-width: 0.946573"/>
    <path d="M 182.353788 492.391077 
L 182.353788 500.757678 
L 190.720389 500.757678 
L 190.720389 492.391077 
z
" clip-path="url(#pc3846f01c7)" style="fill: #d28e32; stroke: #ffffff; stroke-width: 0.946573"/>
    <path d="M 229.942661 406.403893 
L 224.026581 418.236053 
L 235.858741 418.236053 
z
" clip-path="url(#pc3846f01c7)" style="fill: #31b345; stroke: #ffffff; stroke-width: 0.946573"/>
    <path d="M 244.405783 475.223357 
L 238.489703 487.055517 
L 250.321863 487.055517 
z
" clip-path="url(#pc3846f01c7)" style="fill: #31b345; stroke: #ffffff; stroke-width: 0.946573"/>
    <path d="M 229.389957 457.087422 
L 223.473877 468.919581 
L 235.306036 468.919581 
z
" clip-path="url(#pc3846f01c7)" style="fill: #31b345; stroke: #ffffff; stroke-width: 0.946573"/>
    <path d="M 256.514763 463.2525 
L 250.598683 475.08466 
L 262.430842 475.08466 
z
" clip-path="url(#pc3846f01c7)" style="fill: #31b345; stroke: #ffffff; stroke-width: 0.946573"/>
    <path d="M 258.395779 472.227985 
L 252.479699 484.060144 
L 264.311858 484.060144 
z
" clip-path="url(#pc3846f01c7)" style="fill: #31b345; stroke: #ffffff; stroke-width: 0.946573"/>
    <path d="M 238.905726 438.451678 
L 232.989647 450.283838 
L 244.821806 450.283838 
z
" clip-path="url(#pc3846f01c7)" style="fill: #31b345; stroke: #ffffff; stroke-width: 0.946573"/>
    <path d="M 260.574084 471.444068 
L 254.658004 483.276228 
L 266.490164 483.276228 
z
" clip-path="url(#pc3846f01c7)" style="fill: #31b345; stroke: #ffffff; stroke-width: 0.946573"/>
    <path d="M 158.496706 528.885863 
L 158.496706 537.252463 
L 166.863306 537.252463 
L 166.863306 528.885863 
z
" clip-path="url(#pc3846f01c7)" style="fill: #d28e32; stroke: #ffffff; stroke-width: 0.946573"/>
    <path d="M 216.147177 425.875688 
L 210.231097 437.707848 
L 222.063257 437.707848 
z
" clip-path="url(#pc3846f01c7)" style="fill: #31b345; stroke: #ffffff; stroke-width: 0.946573"/>
    <path d="M 186.746184 345.25028 
L 183.545323 349.264032 
L 184.687697 354.269099 
L 189.313074 356.496564 
L 193.938452 354.269099 
L 195.080826 349.264032 
L 191.879965 345.25028 
z
" clip-path="url(#pc3846f01c7)" style="fill: #df6df4; stroke: #ffffff; stroke-width: 0.946573"/>
    <path d="M 263.969657 472.223781 
L 258.053577 484.055941 
L 269.885736 484.055941 
z
" clip-path="url(#pc3846f01c7)" style="fill: #31b345; stroke: #ffffff; stroke-width: 0.946573"/>
    <path d="M 235.231336 411.920228 
L 235.231336 420.286828 
L 243.597936 420.286828 
L 243.597936 411.920228 
z
" clip-path="url(#pc3846f01c7)" style="fill: #d28e32; stroke: #ffffff; stroke-width: 0.946573"/>
    <path d="M 177.53446 373.68454 
L 171.61838 379.60062 
L 177.53446 385.5167 
L 183.45054 379.60062 
z
" clip-path="url(#pc3846f01c7)" style="fill: #9ea231; stroke: #ffffff; stroke-width: 0.946573"/>
    <path d="M 216.69037 450.837137 
L 210.77429 456.753217 
L 216.69037 462.669297 
L 222.60645 456.753217 
z
" clip-path="url(#pc3846f01c7)" style="fill: #9ea231; stroke: #ffffff; stroke-width: 0.946573"/>
    <path d="M 197.988506 438.291748 
L 200.946545 435.333708 
L 203.904585 438.291748 
L 206.862625 435.333708 
L 203.904585 432.375668 
L 206.862625 429.417628 
L 203.904585 426.459588 
L 200.946545 429.417628 
L 197.988506 426.459588 
L 195.030466 429.417628 
L 197.988506 432.375668 
L 195.030466 435.333708 
z
" clip-path="url(#pc3846f01c7)" style="fill: #f8763b; stroke: #ffffff; stroke-width: 0.946573"/>
    <path d="M 258.395779 472.227985 
L 252.479699 484.060144 
L 264.311858 484.060144 
z
" clip-path="url(#pc3846f01c7)" style="fill: #31b345; stroke: #ffffff; stroke-width: 0.946573"/>
    <path d="M 247.637997 451.686971 
L 241.721917 463.519131 
L 253.554077 463.519131 
z
" clip-path="url(#pc3846f01c7)" style="fill: #31b345; stroke: #ffffff; stroke-width: 0.946573"/>
    <path d="M 178.734504 278.255968 
L 182.678557 278.255968 
L 182.678557 274.311915 
L 186.62261 274.311915 
L 186.62261 270.367862 
L 182.678557 270.367862 
L 182.678557 266.423808 
L 178.734504 266.423808 
L 178.734504 270.367862 
L 174.790451 270.367862 
L 174.790451 274.311915 
L 178.734504 274.311915 
z
" clip-path="url(#pc3846f01c7)" style="fill: #b79932; stroke: #ffffff; stroke-width: 0.946573"/>
    <path d="M 229.610789 439.002739 
L 223.694709 450.834899 
L 235.526868 450.834899 
z
" clip-path="url(#pc3846f01c7)" style="fill: #31b345; stroke: #ffffff; stroke-width: 0.946573"/>
    <path d="M 177.441357 279.183414 
L 181.38541 279.183414 
L 181.38541 275.239361 
L 185.329463 275.239361 
L 185.329463 271.295308 
L 181.38541 271.295308 
L 181.38541 267.351255 
L 177.441357 267.351255 
L 177.441357 271.295308 
L 173.497303 271.295308 
L 173.497303 275.239361 
L 177.441357 275.239361 
z
" clip-path="url(#pc3846f01c7)" style="fill: #b79932; stroke: #ffffff; stroke-width: 0.946573"/>
    <path d="M 189.537187 344.837669 
L 183.621108 356.669829 
L 195.453267 356.669829 
z
" clip-path="url(#pc3846f01c7)" style="fill: #31b345; stroke: #ffffff; stroke-width: 0.946573"/>
    <path d="M 206.496997 281.108196 
L 205.017977 284.462538 
L 201.373522 284.066236 
L 203.538957 287.024276 
L 201.373522 289.982316 
L 205.017977 289.586014 
L 206.496997 292.940356 
L 207.976017 289.586014 
L 211.620473 289.982316 
L 209.455037 287.024276 
L 211.620473 284.066236 
L 207.976017 284.462538 
z
" clip-path="url(#pc3846f01c7)" style="fill: #f563d8; stroke: #ffffff; stroke-width: 0.946573"/>
    <path d="M 160.045173 43.14966 
L 157.953522 46.974089 
L 154.129093 49.065739 
L 157.953522 51.15739 
L 160.045173 54.981819 
L 162.136823 51.15739 
L 165.961252 49.065739 
L 162.136823 46.974089 
z
" clip-path="url(#pc3846f01c7)" style="fill: #7caa31; stroke: #ffffff; stroke-width: 0.946573"/>
    <path d="M 201.134711 133.225858 
L 199.043061 137.050288 
L 195.218631 139.141938 
L 199.043061 141.233588 
L 201.134711 145.058018 
L 203.226361 141.233588 
L 207.05079 139.141938 
L 203.226361 137.050288 
z
" clip-path="url(#pc3846f01c7)" style="fill: #7caa31; stroke: #ffffff; stroke-width: 0.946573"/>
    <path d="M 225.795659 434.746984 
L 219.879579 440.663064 
L 225.795659 446.579143 
L 231.711739 440.663064 
z
" clip-path="url(#pc3846f01c7)" style="fill: #9ea231; stroke: #ffffff; stroke-width: 0.946573"/>
    <path d="M 202.170593 459.022549 
L 202.170593 467.389149 
L 210.537194 467.389149 
L 210.537194 459.022549 
z
" clip-path="url(#pc3846f01c7)" style="fill: #d28e32; stroke: #ffffff; stroke-width: 0.946573"/>
    <path d="M 229.918291 431.286338 
L 229.918291 439.652938 
L 238.284891 439.652938 
L 238.284891 431.286338 
z
" clip-path="url(#pc3846f01c7)" style="fill: #d28e32; stroke: #ffffff; stroke-width: 0.946573"/>
    <path d="M 171.733743 364.190562 
L 168.532882 368.204314 
L 169.675256 373.209381 
L 174.300634 375.436845 
L 178.926011 373.209381 
L 180.068385 368.204314 
L 176.867524 364.190562 
z
" clip-path="url(#pc3846f01c7)" style="fill: #df6df4; stroke: #ffffff; stroke-width: 0.946573"/>
    <path d="M 162.028507 44.460737 
L 159.936857 48.285166 
L 156.112427 50.376816 
L 159.936857 52.468467 
L 162.028507 56.292896 
L 164.120157 52.468467 
L 167.944587 50.376816 
L 164.120157 48.285166 
z
" clip-path="url(#pc3846f01c7)" style="fill: #7caa31; stroke: #ffffff; stroke-width: 0.946573"/>
    <path d="M 217.18665 427.909943 
L 211.27057 433.826023 
L 217.18665 439.742102 
L 223.102729 433.826023 
z
" clip-path="url(#pc3846f01c7)" style="fill: #9ea231; stroke: #ffffff; stroke-width: 0.946573"/>
    <path d="M 190.259727 125.402775 
L 188.168077 129.227205 
L 184.343648 131.318855 
L 188.168077 133.410505 
L 190.259727 137.234935 
L 192.351378 133.410505 
L 196.175807 131.318855 
L 192.351378 129.227205 
z
" clip-path="url(#pc3846f01c7)" style="fill: #7caa31; stroke: #ffffff; stroke-width: 0.946573"/>
    <path d="M 192.264492 278.771353 
L 196.208545 278.771353 
L 196.208545 274.8273 
L 200.152598 274.8273 
L 200.152598 270.883247 
L 196.208545 270.883247 
L 196.208545 266.939194 
L 192.264492 266.939194 
L 192.264492 270.883247 
L 188.320439 270.883247 
L 188.320439 274.8273 
L 192.264492 274.8273 
z
" clip-path="url(#pc3846f01c7)" style="fill: #b79932; stroke: #ffffff; stroke-width: 0.946573"/>
    <path d="M 195.413306 125.15009 
L 193.321656 128.97452 
L 189.497226 131.06617 
L 193.321656 133.15782 
L 195.413306 136.98225 
L 197.504956 133.15782 
L 201.329386 131.06617 
L 197.504956 128.97452 
z
" clip-path="url(#pc3846f01c7)" style="fill: #7caa31; stroke: #ffffff; stroke-width: 0.946573"/>
    <path d="M 184.271013 457.704494 
L 182.532321 461.227469 
L 178.644487 461.792404 
L 181.45775 464.534658 
L 180.793629 468.406782 
L 184.271013 466.578613 
L 187.748398 468.406782 
L 187.084276 464.534658 
L 189.897539 461.792404 
L 186.009705 461.227469 
z
" clip-path="url(#pc3846f01c7)" style="fill: #3aa6dd; stroke: #ffffff; stroke-width: 0.946573"/>
    <path d="M 191.649484 478.126587 
L 191.649484 486.493187 
L 200.016084 486.493187 
L 200.016084 478.126587 
z
" clip-path="url(#pc3846f01c7)" style="fill: #d28e32; stroke: #ffffff; stroke-width: 0.946573"/>
    <path d="M 244.405783 475.223357 
L 238.489703 487.055517 
L 250.321863 487.055517 
z
" clip-path="url(#pc3846f01c7)" style="fill: #31b345; stroke: #ffffff; stroke-width: 0.946573"/>
    <path d="M 230.108685 470.261599 
L 224.192605 482.093758 
L 236.024765 482.093758 
z
" clip-path="url(#pc3846f01c7)" style="fill: #31b345; stroke: #ffffff; stroke-width: 0.946573"/>
    <path d="M 178.279492 436.017972 
L 178.279492 444.384572 
L 186.646093 444.384572 
L 186.646093 436.017972 
z
" clip-path="url(#pc3846f01c7)" style="fill: #d28e32; stroke: #ffffff; stroke-width: 0.946573"/>
    <path d="M 234.355011 453.401858 
L 228.438931 459.317938 
L 234.355011 465.234017 
L 240.271091 459.317938 
z
" clip-path="url(#pc3846f01c7)" style="fill: #9ea231; stroke: #ffffff; stroke-width: 0.946573"/>
    <path d="M 107.541802 436.322366 
L 107.938104 439.966821 
L 104.583762 441.445841 
L 107.938104 442.924861 
L 107.541802 446.569317 
L 110.499842 444.403881 
L 113.457882 446.569317 
L 113.061579 442.924861 
L 116.415922 441.445841 
L 113.061579 439.966821 
L 113.457882 436.322366 
L 110.499842 438.487801 
z
" clip-path="url(#pc3846f01c7)" style="fill: #36acad; stroke: #ffffff; stroke-width: 0.946573"/>
    <path d="M 206.097844 458.567884 
L 206.097844 466.934485 
L 214.464444 466.934485 
L 214.464444 458.567884 
z
" clip-path="url(#pc3846f01c7)" style="fill: #d28e32; stroke: #ffffff; stroke-width: 0.946573"/>
    <path d="M 173.125193 26.48392 
L 171.033543 30.30835 
L 167.209113 32.4 
L 171.033543 34.49165 
L 173.125193 38.31608 
L 175.216843 34.49165 
L 179.041273 32.4 
L 175.216843 30.30835 
z
" clip-path="url(#pc3846f01c7)" style="fill: #7caa31; stroke: #ffffff; stroke-width: 0.946573"/>
    <path d="M 221.713971 426.448663 
L 215.797891 432.364743 
L 221.713971 438.280823 
L 227.63005 432.364743 
z
" clip-path="url(#pc3846f01c7)" style="fill: #9ea231; stroke: #ffffff; stroke-width: 0.946573"/>
    <path d="M 192.343387 335.354524 
C 193.91235 335.354524 195.417263 334.731168 196.526688 333.621744 
C 197.636112 332.51232 198.259467 331.007407 198.259467 329.438444 
C 198.259467 327.869481 197.636112 326.364568 196.526688 325.255144 
C 195.417263 324.14572 193.91235 323.522364 192.343387 323.522364 
C 190.774425 323.522364 189.269511 324.14572 188.160087 325.255144 
C 187.050663 326.364568 186.427308 327.869481 186.427308 329.438444 
C 186.427308 331.007407 187.050663 332.51232 188.160087 333.621744 
C 189.269511 334.731168 190.774425 335.354524 192.343387 335.354524 
z
" clip-path="url(#pc3846f01c7)" style="fill: #f77189; stroke: #ffffff; stroke-width: 0.946573"/>
    <path d="M 242.469356 443.689907 
L 236.553276 449.605987 
L 242.469356 455.522066 
L 248.385436 449.605987 
z
" clip-path="url(#pc3846f01c7)" style="fill: #9ea231; stroke: #ffffff; stroke-width: 0.946573"/>
    <path d="M 234.355011 453.401858 
L 228.438931 459.317938 
L 234.355011 465.234017 
L 240.271091 459.317938 
z
" clip-path="url(#pc3846f01c7)" style="fill: #9ea231; stroke: #ffffff; stroke-width: 0.946573"/>
    <path d="M 243.470459 454.474141 
L 237.554379 466.306301 
L 249.386539 466.306301 
z
" clip-path="url(#pc3846f01c7)" style="fill: #31b345; stroke: #ffffff; stroke-width: 0.946573"/>
    <path d="M 244.405783 475.223357 
L 238.489703 487.055517 
L 250.321863 487.055517 
z
" clip-path="url(#pc3846f01c7)" style="fill: #31b345; stroke: #ffffff; stroke-width: 0.946573"/>
    <path d="M 244.405783 475.223357 
L 238.489703 487.055517 
L 250.321863 487.055517 
z
" clip-path="url(#pc3846f01c7)" style="fill: #31b345; stroke: #ffffff; stroke-width: 0.946573"/>
    <path d="M 219.279617 429.888087 
L 213.363537 435.804167 
L 219.279617 441.720246 
L 225.195697 435.804167 
z
" clip-path="url(#pc3846f01c7)" style="fill: #9ea231; stroke: #ffffff; stroke-width: 0.946573"/>
    <path d="M 177.441357 279.183414 
L 181.38541 279.183414 
L 181.38541 275.239361 
L 185.329463 275.239361 
L 185.329463 271.295308 
L 181.38541 271.295308 
L 181.38541 267.351255 
L 177.441357 267.351255 
L 177.441357 271.295308 
L 173.497303 271.295308 
L 173.497303 275.239361 
L 177.441357 275.239361 
z
" clip-path="url(#pc3846f01c7)" style="fill: #b79932; stroke: #ffffff; stroke-width: 0.946573"/>
    <path d="M 223.990407 399.770277 
L 222.251714 403.293253 
L 218.36388 403.858188 
L 221.177143 406.600442 
L 220.513022 410.472566 
L 223.990407 408.644397 
L 227.467791 410.472566 
L 226.80367 406.600442 
L 229.616933 403.858188 
L 225.729099 403.293253 
z
" clip-path="url(#pc3846f01c7)" style="fill: #3aa6dd; stroke: #ffffff; stroke-width: 0.946573"/>
    <path d="M 243.678978 462.893134 
L 237.762899 474.725293 
L 249.595058 474.725293 
z
" clip-path="url(#pc3846f01c7)" style="fill: #31b345; stroke: #ffffff; stroke-width: 0.946573"/>
    <path d="M 259.023983 446.40907 
L 260.249243 450.59237 
L 259.023983 454.77567 
L 263.207283 453.55041 
L 267.390583 454.77567 
L 266.165323 450.59237 
L 267.390583 446.40907 
L 263.207283 447.63433 
z
" clip-path="url(#pc3846f01c7)" style="fill: #34b081; stroke: #ffffff; stroke-width: 0.946573"/>
    <path d="M 196.567313 464.696907 
L 199.525352 461.738867 
L 202.483392 464.696907 
L 205.441432 461.738867 
L 202.483392 458.780827 
L 205.441432 455.822787 
L 202.483392 452.864747 
L 199.525352 455.822787 
L 196.567313 452.864747 
L 193.609273 455.822787 
L 196.567313 458.780827 
L 193.609273 461.738867 
z
" clip-path="url(#pc3846f01c7)" style="fill: #f8763b; stroke: #ffffff; stroke-width: 0.946573"/>
    <path d="M 240.049172 476.79119 
L 234.133092 488.62335 
L 245.965252 488.62335 
z
" clip-path="url(#pc3846f01c7)" style="fill: #31b345; stroke: #ffffff; stroke-width: 0.946573"/>
    <path d="M 211.369305 434.993748 
L 211.369305 443.360349 
L 219.735905 443.360349 
L 219.735905 434.993748 
z
" clip-path="url(#pc3846f01c7)" style="fill: #d28e32; stroke: #ffffff; stroke-width: 0.946573"/>
    <path d="M 194.113042 261.68761 
L 192.634022 265.041952 
L 188.989567 264.64565 
L 191.155003 267.60369 
L 188.989567 270.56173 
L 192.634022 270.165428 
L 194.113042 273.51977 
L 195.592062 270.165428 
L 199.236518 270.56173 
L 197.071082 267.60369 
L 199.236518 264.64565 
L 195.592062 265.041952 
z
" clip-path="url(#pc3846f01c7)" style="fill: #f563d8; stroke: #ffffff; stroke-width: 0.946573"/>
    <path d="M 244.405783 475.223357 
L 238.489703 487.055517 
L 250.321863 487.055517 
z
" clip-path="url(#pc3846f01c7)" style="fill: #31b345; stroke: #ffffff; stroke-width: 0.946573"/>
    <path d="M 181.19411 123.388352 
L 179.10246 127.212781 
L 175.27803 129.304431 
L 179.10246 131.396081 
L 181.19411 135.220511 
L 183.28576 131.396081 
L 187.11019 129.304431 
L 183.28576 127.212781 
z
" clip-path="url(#pc3846f01c7)" style="fill: #7caa31; stroke: #ffffff; stroke-width: 0.946573"/>
    <path d="M 190.241864 154.961996 
L 188.150214 158.786426 
L 184.325784 160.878076 
L 188.150214 162.969726 
L 190.241864 166.794156 
L 192.333514 162.969726 
L 196.157944 160.878076 
L 192.333514 158.786426 
z
" clip-path="url(#pc3846f01c7)" style="fill: #7caa31; stroke: #ffffff; stroke-width: 0.946573"/>
    <path d="M 198.342837 404.544972 
L 192.426757 410.461052 
L 198.342837 416.377132 
L 204.258917 410.461052 
z
" clip-path="url(#pc3846f01c7)" style="fill: #9ea231; stroke: #ffffff; stroke-width: 0.946573"/>
    <path d="M 162.386633 532.2167 
L 162.386633 540.5833 
L 170.753233 540.5833 
L 170.753233 532.2167 
z
" clip-path="url(#pc3846f01c7)" style="fill: #d28e32; stroke: #ffffff; stroke-width: 0.946573"/>
    <path d="M 181.936555 352.684314 
L 176.81308 355.642354 
L 176.81308 361.558434 
L 181.936555 364.516474 
L 187.060031 361.558434 
L 187.060031 355.642354 
z
" clip-path="url(#pc3846f01c7)" style="fill: #f66ab2; stroke: #ffffff; stroke-width: 0.946573"/>
    <path d="M 259.167257 463.709366 
L 253.251178 475.541525 
L 265.083337 475.541525 
z
" clip-path="url(#pc3846f01c7)" style="fill: #31b345; stroke: #ffffff; stroke-width: 0.946573"/>
    <path d="M 240.049172 476.79119 
L 234.133092 488.62335 
L 245.965252 488.62335 
z
" clip-path="url(#pc3846f01c7)" style="fill: #31b345; stroke: #ffffff; stroke-width: 0.946573"/>
    <path d="M 118.491446 455.152508 
L 118.887748 458.796963 
L 115.533406 460.275983 
L 118.887748 461.755003 
L 118.491446 465.399458 
L 121.449486 463.234023 
L 124.407526 465.399458 
L 124.011224 461.755003 
L 127.365566 460.275983 
L 124.011224 458.796963 
L 124.407526 455.152508 
L 121.449486 457.317943 
z
" clip-path="url(#pc3846f01c7)" style="fill: #36acad; stroke: #ffffff; stroke-width: 0.946573"/>
    <path d="M 237.077547 469.332049 
L 231.161467 481.164208 
L 242.993627 481.164208 
z
" clip-path="url(#pc3846f01c7)" style="fill: #31b345; stroke: #ffffff; stroke-width: 0.946573"/>
    <path d="M 196.297449 304.953666 
L 196.297449 313.320266 
L 204.66405 313.320266 
L 204.66405 304.953666 
z
" clip-path="url(#pc3846f01c7)" style="fill: #d28e32; stroke: #ffffff; stroke-width: 0.946573"/>
    <path d="M 232.6629 468.907292 
L 232.6629 477.273892 
L 241.0295 477.273892 
L 241.0295 468.907292 
z
" clip-path="url(#pc3846f01c7)" style="fill: #d28e32; stroke: #ffffff; stroke-width: 0.946573"/>
    <path d="M 191.61696 406.471538 
L 197.53304 394.639379 
L 185.70088 394.639379 
z
" clip-path="url(#pc3846f01c7)" style="fill: #35ae9a; stroke: #ffffff; stroke-width: 0.946573"/>
    <path d="M 195.016248 400.491395 
L 200.932328 388.659236 
L 189.100168 388.659236 
z
" clip-path="url(#pc3846f01c7)" style="fill: #35ae9a; stroke: #ffffff; stroke-width: 0.946573"/>
    <path d="M 237.870867 477.575106 
L 231.954787 489.407266 
L 243.786947 489.407266 
z
" clip-path="url(#pc3846f01c7)" style="fill: #31b345; stroke: #ffffff; stroke-width: 0.946573"/>
    <path d="M 262.507541 469.362039 
L 263.732801 473.545339 
L 262.507541 477.72864 
L 266.690841 476.503379 
L 270.874141 477.72864 
L 269.648881 473.545339 
L 270.874141 469.362039 
L 266.690841 470.5873 
z
" clip-path="url(#pc3846f01c7)" style="fill: #34b081; stroke: #ffffff; stroke-width: 0.946573"/>
    <path d="M 241.312447 467.025712 
L 235.396367 472.941792 
L 241.312447 478.857872 
L 247.228526 472.941792 
z
" clip-path="url(#pc3846f01c7)" style="fill: #9ea231; stroke: #ffffff; stroke-width: 0.946573"/>
    <path d="M 178.934675 472.705067 
L 178.934675 481.071667 
L 187.301276 481.071667 
L 187.301276 472.705067 
z
" clip-path="url(#pc3846f01c7)" style="fill: #d28e32; stroke: #ffffff; stroke-width: 0.946573"/>
    <path d="M 161.744608 278.803435 
L 165.688661 278.803435 
L 165.688661 274.859382 
L 169.632715 274.859382 
L 169.632715 270.915329 
L 165.688661 270.915329 
L 165.688661 266.971276 
L 161.744608 266.971276 
L 161.744608 270.915329 
L 157.800555 270.915329 
L 157.800555 274.859382 
L 161.744608 274.859382 
z
" clip-path="url(#pc3846f01c7)" style="fill: #b79932; stroke: #ffffff; stroke-width: 0.946573"/>
    <path d="M 253.608105 467.492708 
L 247.692025 473.408788 
L 253.608105 479.324868 
L 259.524184 473.408788 
z
" clip-path="url(#pc3846f01c7)" style="fill: #9ea231; stroke: #ffffff; stroke-width: 0.946573"/>
    <path d="M 184.413202 530.351411 
L 184.413202 538.718011 
L 192.779803 538.718011 
L 192.779803 530.351411 
z
" clip-path="url(#pc3846f01c7)" style="fill: #d28e32; stroke: #ffffff; stroke-width: 0.946573"/>
   </g>
   <g id="line2d_15"/>
   <g id="line2d_16"/>
   <g id="line2d_17"/>
   <g id="line2d_18"/>
   <g id="line2d_19"/>
   <g id="line2d_20"/>
   <g id="line2d_21"/>
   <g id="line2d_22"/>
   <g id="line2d_23"/>
   <g id="line2d_24"/>
   <g id="line2d_25"/>
   <g id="line2d_26"/>
   <g id="line2d_27"/>
   <g id="line2d_28"/>
   <g id="line2d_29"/>
   <g id="line2d_30"/>
   <g id="line2d_31"/>
   <g id="line2d_32">
    <path d="M 88.072883 389.04748 
L 367.072883 389.04748 
" clip-path="url(#pc3846f01c7)" style="fill: none; stroke-dasharray: 4.625,2; stroke-dashoffset: 0; stroke: #808080; stroke-width: 1.25"/>
   </g>
   <g id="line2d_33">
    <path d="M 354.391065 561.6 
L 354.391065 7.2 
" clip-path="url(#pc3846f01c7)" style="fill: none; stroke-dasharray: 4.625,2; stroke-dashoffset: 0; stroke: #808080; stroke-width: 1.25"/>
   </g>
   <g id="patch_3">
    <path d="M 88.072883 561.6 
L 88.072883 7.2 
" style="fill: none; stroke: #ffffff; stroke-width: 1.25; stroke-linejoin: miter; stroke-linecap: square"/>
   </g>
   <g id="patch_4">
    <path d="M 367.072883 561.6 
L 367.072883 7.2 
" style="fill: none; stroke: #ffffff; stroke-width: 1.25; stroke-linejoin: miter; stroke-linecap: square"/>
   </g>
   <g id="patch_5">
    <path d="M 88.072883 561.6 
L 367.072883 561.6 
" style="fill: none; stroke: #ffffff; stroke-width: 1.25; stroke-linejoin: miter; stroke-linecap: square"/>
   </g>
   <g id="patch_6">
    <path d="M 88.072883 7.2 
L 367.072883 7.2 
" style="fill: none; stroke: #ffffff; stroke-width: 1.25; stroke-linejoin: miter; stroke-linecap: square"/>
   </g>
   <g id="text_17">
    <!-- GCF_001742185.1 -->
    <g style="fill: #262626" transform="translate(146.948076 294.152302) scale(0.12 -0.12)">
     <defs>
      <path id="DejaVuSans-47" d="M 3809 666 
L 3809 1919 
L 2778 1919 
L 2778 2438 
L 4434 2438 
L 4434 434 
Q 4069 175 3628 42 
Q 3188 -91 2688 -91 
Q 1594 -91 976 548 
Q 359 1188 359 2328 
Q 359 3472 976 4111 
Q 1594 4750 2688 4750 
Q 3144 4750 3555 4637 
Q 3966 4525 4313 4306 
L 4313 3634 
Q 3963 3931 3569 4081 
Q 3175 4231 2741 4231 
Q 1884 4231 1454 3753 
Q 1025 3275 1025 2328 
Q 1025 1384 1454 906 
Q 1884 428 2741 428 
Q 3075 428 3337 486 
Q 3600 544 3809 666 
z
" transform="scale(0.015625)"/>
      <path id="DejaVuSans-46" d="M 628 4666 
L 3309 4666 
L 3309 4134 
L 1259 4134 
L 1259 2759 
L 3109 2759 
L 3109 2228 
L 1259 2228 
L 1259 0 
L 628 0 
L 628 4666 
z
" transform="scale(0.015625)"/>
      <path id="DejaVuSans-5f" d="M 3263 -1063 
L 3263 -1509 
L -63 -1509 
L -63 -1063 
L 3263 -1063 
z
" transform="scale(0.015625)"/>
      <path id="DejaVuSans-37" d="M 525 4666 
L 3525 4666 
L 3525 4397 
L 1831 0 
L 1172 0 
L 2766 4134 
L 525 4134 
L 525 4666 
z
" transform="scale(0.015625)"/>
     </defs>
     <use xlink:href="#DejaVuSans-47"/>
     <use xlink:href="#DejaVuSans-43" x="77.490234"/>
     <use xlink:href="#DejaVuSans-46" x="147.314453"/>
     <use xlink:href="#DejaVuSans-5f" x="204.833984"/>
     <use xlink:href="#DejaVuSans-30" x="254.833984"/>
     <use xlink:href="#DejaVuSans-30" x="318.457031"/>
     <use xlink:href="#DejaVuSans-31" x="382.080078"/>
     <use xlink:href="#DejaVuSans-37" x="445.703125"/>
     <use xlink:href="#DejaVuSans-34" x="509.326172"/>
     <use xlink:href="#DejaVuSans-32" x="572.949219"/>
     <use xlink:href="#DejaVuSans-31" x="636.572266"/>
     <use xlink:href="#DejaVuSans-38" x="700.195312"/>
     <use xlink:href="#DejaVuSans-35" x="763.818359"/>
     <use xlink:href="#DejaVuSans-2e" x="827.441406"/>
     <use xlink:href="#DejaVuSans-31" x="859.228516"/>
    </g>
   </g>
   <g id="patch_7">
    <path d="M 252.315117 297.251411 
Q 255.029867 297.620071 257.744618 297.98873 
" style="fill: none; stroke: #000000; stroke-linecap: round"/>
   </g>
   <g id="legend_1">
    <g id="text_18">
     <!-- Pectobacterium sp. -->
     <g style="fill: #262626" transform="translate(161.134508 618.890062) scale(0.138 -0.138)">
      <defs>
       <path id="DejaVuSans-65" d="M 3597 1894 
L 3597 1613 
L 953 1613 
Q 991 1019 1311 708 
Q 1631 397 2203 397 
Q 2534 397 2845 478 
Q 3156 559 3463 722 
L 3463 178 
Q 3153 47 2828 -22 
Q 2503 -91 2169 -91 
Q 1331 -91 842 396 
Q 353 884 353 1716 
Q 353 2575 817 3079 
Q 1281 3584 2069 3584 
Q 2775 3584 3186 3129 
Q 3597 2675 3597 1894 
z
M 3022 2063 
Q 3016 2534 2758 2815 
Q 2500 3097 2075 3097 
Q 1594 3097 1305 2825 
Q 1016 2553 972 2059 
L 3022 2063 
z
" transform="scale(0.015625)"/>
       <path id="DejaVuSans-63" d="M 3122 3366 
L 3122 2828 
Q 2878 2963 2633 3030 
Q 2388 3097 2138 3097 
Q 1578 3097 1268 2742 
Q 959 2388 959 1747 
Q 959 1106 1268 751 
Q 1578 397 2138 397 
Q 2388 397 2633 464 
Q 2878 531 3122 666 
L 3122 134 
Q 2881 22 2623 -34 
Q 2366 -91 2075 -91 
Q 1284 -91 818 406 
Q 353 903 353 1747 
Q 353 2603 823 3093 
Q 1294 3584 2113 3584 
Q 2378 3584 2631 3529 
Q 2884 3475 3122 3366 
z
" transform="scale(0.015625)"/>
       <path id="DejaVuSans-74" d="M 1172 4494 
L 1172 3500 
L 2356 3500 
L 2356 3053 
L 1172 3053 
L 1172 1153 
Q 1172 725 1289 603 
Q 1406 481 1766 481 
L 2356 481 
L 2356 0 
L 1766 0 
Q 1100 0 847 248 
Q 594 497 594 1153 
L 594 3053 
L 172 3053 
L 172 3500 
L 594 3500 
L 594 4494 
L 1172 4494 
z
" transform="scale(0.015625)"/>
       <path id="DejaVuSans-6f" d="M 1959 3097 
Q 1497 3097 1228 2736 
Q 959 2375 959 1747 
Q 959 1119 1226 758 
Q 1494 397 1959 397 
Q 2419 397 2687 759 
Q 2956 1122 2956 1747 
Q 2956 2369 2687 2733 
Q 2419 3097 1959 3097 
z
M 1959 3584 
Q 2709 3584 3137 3096 
Q 3566 2609 3566 1747 
Q 3566 888 3137 398 
Q 2709 -91 1959 -91 
Q 1206 -91 779 398 
Q 353 888 353 1747 
Q 353 2609 779 3096 
Q 1206 3584 1959 3584 
z
" transform="scale(0.015625)"/>
       <path id="DejaVuSans-62" d="M 3116 1747 
Q 3116 2381 2855 2742 
Q 2594 3103 2138 3103 
Q 1681 3103 1420 2742 
Q 1159 2381 1159 1747 
Q 1159 1113 1420 752 
Q 1681 391 2138 391 
Q 2594 391 2855 752 
Q 3116 1113 3116 1747 
z
M 1159 2969 
Q 1341 3281 1617 3432 
Q 1894 3584 2278 3584 
Q 2916 3584 3314 3078 
Q 3713 2572 3713 1747 
Q 3713 922 3314 415 
Q 2916 -91 2278 -91 
Q 1894 -91 1617 61 
Q 1341 213 1159 525 
L 1159 0 
L 581 0 
L 581 4863 
L 1159 4863 
L 1159 2969 
z
" transform="scale(0.015625)"/>
       <path id="DejaVuSans-61" d="M 2194 1759 
Q 1497 1759 1228 1600 
Q 959 1441 959 1056 
Q 959 750 1161 570 
Q 1363 391 1709 391 
Q 2188 391 2477 730 
Q 2766 1069 2766 1631 
L 2766 1759 
L 2194 1759 
z
M 3341 1997 
L 3341 0 
L 2766 0 
L 2766 531 
Q 2569 213 2275 61 
Q 1981 -91 1556 -91 
Q 1019 -91 701 211 
Q 384 513 384 1019 
Q 384 1609 779 1909 
Q 1175 2209 1959 2209 
L 2766 2209 
L 2766 2266 
Q 2766 2663 2505 2880 
Q 2244 3097 1772 3097 
Q 1472 3097 1187 3025 
Q 903 2953 641 2809 
L 641 3341 
Q 956 3463 1253 3523 
Q 1550 3584 1831 3584 
Q 2591 3584 2966 3190 
Q 3341 2797 3341 1997 
z
" transform="scale(0.015625)"/>
       <path id="DejaVuSans-72" d="M 2631 2963 
Q 2534 3019 2420 3045 
Q 2306 3072 2169 3072 
Q 1681 3072 1420 2755 
Q 1159 2438 1159 1844 
L 1159 0 
L 581 0 
L 581 3500 
L 1159 3500 
L 1159 2956 
Q 1341 3275 1631 3429 
Q 1922 3584 2338 3584 
Q 2397 3584 2469 3576 
Q 2541 3569 2628 3553 
L 2631 2963 
z
" transform="scale(0.015625)"/>
       <path id="DejaVuSans-69" d="M 603 3500 
L 1178 3500 
L 1178 0 
L 603 0 
L 603 3500 
z
M 603 4863 
L 1178 4863 
L 1178 4134 
L 603 4134 
L 603 4863 
z
" transform="scale(0.015625)"/>
       <path id="DejaVuSans-75" d="M 544 1381 
L 544 3500 
L 1119 3500 
L 1119 1403 
Q 1119 906 1312 657 
Q 1506 409 1894 409 
Q 2359 409 2629 706 
Q 2900 1003 2900 1516 
L 2900 3500 
L 3475 3500 
L 3475 0 
L 2900 0 
L 2900 538 
Q 2691 219 2414 64 
Q 2138 -91 1772 -91 
Q 1169 -91 856 284 
Q 544 659 544 1381 
z
M 1991 3584 
L 1991 3584 
z
" transform="scale(0.015625)"/>
       <path id="DejaVuSans-6d" d="M 3328 2828 
Q 3544 3216 3844 3400 
Q 4144 3584 4550 3584 
Q 5097 3584 5394 3201 
Q 5691 2819 5691 2113 
L 5691 0 
L 5113 0 
L 5113 2094 
Q 5113 2597 4934 2840 
Q 4756 3084 4391 3084 
Q 3944 3084 3684 2787 
Q 3425 2491 3425 1978 
L 3425 0 
L 2847 0 
L 2847 2094 
Q 2847 2600 2669 2842 
Q 2491 3084 2119 3084 
Q 1678 3084 1418 2786 
Q 1159 2488 1159 1978 
L 1159 0 
L 581 0 
L 581 3500 
L 1159 3500 
L 1159 2956 
Q 1356 3278 1631 3431 
Q 1906 3584 2284 3584 
Q 2666 3584 2933 3390 
Q 3200 3197 3328 2828 
z
" transform="scale(0.015625)"/>
       <path id="DejaVuSans-73" d="M 2834 3397 
L 2834 2853 
Q 2591 2978 2328 3040 
Q 2066 3103 1784 3103 
Q 1356 3103 1142 2972 
Q 928 2841 928 2578 
Q 928 2378 1081 2264 
Q 1234 2150 1697 2047 
L 1894 2003 
Q 2506 1872 2764 1633 
Q 3022 1394 3022 966 
Q 3022 478 2636 193 
Q 2250 -91 1575 -91 
Q 1294 -91 989 -36 
Q 684 19 347 128 
L 347 722 
Q 666 556 975 473 
Q 1284 391 1588 391 
Q 1994 391 2212 530 
Q 2431 669 2431 922 
Q 2431 1156 2273 1281 
Q 2116 1406 1581 1522 
L 1381 1569 
Q 847 1681 609 1914 
Q 372 2147 372 2553 
Q 372 3047 722 3315 
Q 1072 3584 1716 3584 
Q 2034 3584 2315 3537 
Q 2597 3491 2834 3397 
z
" transform="scale(0.015625)"/>
       <path id="DejaVuSans-70" d="M 1159 525 
L 1159 -1331 
L 581 -1331 
L 581 3500 
L 1159 3500 
L 1159 2969 
Q 1341 3281 1617 3432 
Q 1894 3584 2278 3584 
Q 2916 3584 3314 3078 
Q 3713 2572 3713 1747 
Q 3713 922 3314 415 
Q 2916 -91 2278 -91 
Q 1894 -91 1617 61 
Q 1341 213 1159 525 
z
M 3116 1747 
Q 3116 2381 2855 2742 
Q 2594 3103 2138 3103 
Q 1681 3103 1420 2742 
Q 1159 2381 1159 1747 
Q 1159 1113 1420 752 
Q 1681 391 2138 391 
Q 2594 391 2855 752 
Q 3116 1113 3116 1747 
z
" transform="scale(0.015625)"/>
      </defs>
      <use xlink:href="#DejaVuSans-50"/>
      <use xlink:href="#DejaVuSans-65" x="56.677734"/>
      <use xlink:href="#DejaVuSans-63" x="118.201172"/>
      <use xlink:href="#DejaVuSans-74" x="173.181641"/>
      <use xlink:href="#DejaVuSans-6f" x="212.390625"/>
      <use xlink:href="#DejaVuSans-62" x="273.572266"/>
      <use xlink:href="#DejaVuSans-61" x="337.048828"/>
      <use xlink:href="#DejaVuSans-63" x="398.328125"/>
      <use xlink:href="#DejaVuSans-74" x="453.308594"/>
      <use xlink:href="#DejaVuSans-65" x="492.517578"/>
      <use xlink:href="#DejaVuSans-72" x="554.041016"/>
      <use xlink:href="#DejaVuSans-69" x="595.154297"/>
      <use xlink:href="#DejaVuSans-75" x="622.9375"/>
      <use xlink:href="#DejaVuSans-6d" x="686.316406"/>
      <use xlink:href="#DejaVuSans-20" x="783.728516"/>
      <use xlink:href="#DejaVuSans-73" x="815.515625"/>
      <use xlink:href="#DejaVuSans-70" x="867.615234"/>
      <use xlink:href="#DejaVuSans-2e" x="931.091797"/>
     </g>
    </g>
    <g id="line2d_34">
     <defs>
      <path id="m123cafb32e" d="M 0 5.91608 
C 1.568963 5.91608 3.073876 5.292724 4.1833 4.1833 
C 5.292724 3.073876 5.91608 1.568963 5.91608 0 
C 5.91608 -1.568963 5.292724 -3.073876 4.1833 -4.1833 
C 3.073876 -5.292724 1.568963 -5.91608 0 -5.91608 
C -1.568963 -5.91608 -3.073876 -5.292724 -4.1833 -4.1833 
C -5.292724 -3.073876 -5.91608 -1.568963 -5.91608 0 
C -5.91608 1.568963 -5.292724 3.073876 -4.1833 4.1833 
C -3.073876 5.292724 -1.568963 5.91608 0 5.91608 
z
" style="stroke: #ffffff; stroke-width: 0.946573"/>
     </defs>
     <g>
      <use xlink:href="#m123cafb32e" x="24.91" y="633.269555" style="fill: #f77189; stroke: #ffffff; stroke-width: 0.946573"/>
     </g>
    </g>
    <g id="text_19">
     <!-- brasiliense A -->
     <g style="fill: #262626" transform="translate(47.68 637.697055) scale(0.1265 -0.1265)">
      <defs>
       <path id="DejaVuSans-6c" d="M 603 4863 
L 1178 4863 
L 1178 0 
L 603 0 
L 603 4863 
z
" transform="scale(0.015625)"/>
       <path id="DejaVuSans-6e" d="M 3513 2113 
L 3513 0 
L 2938 0 
L 2938 2094 
Q 2938 2591 2744 2837 
Q 2550 3084 2163 3084 
Q 1697 3084 1428 2787 
Q 1159 2491 1159 1978 
L 1159 0 
L 581 0 
L 581 3500 
L 1159 3500 
L 1159 2956 
Q 1366 3272 1645 3428 
Q 1925 3584 2291 3584 
Q 2894 3584 3203 3211 
Q 3513 2838 3513 2113 
z
" transform="scale(0.015625)"/>
       <path id="DejaVuSans-41" d="M 2188 4044 
L 1331 1722 
L 3047 1722 
L 2188 4044 
z
M 1831 4666 
L 2547 4666 
L 4325 0 
L 3669 0 
L 3244 1197 
L 1141 1197 
L 716 0 
L 50 0 
L 1831 4666 
z
" transform="scale(0.015625)"/>
      </defs>
      <use xlink:href="#DejaVuSans-62"/>
      <use xlink:href="#DejaVuSans-72" x="63.476562"/>
      <use xlink:href="#DejaVuSans-61" x="104.589844"/>
      <use xlink:href="#DejaVuSans-73" x="165.869141"/>
      <use xlink:href="#DejaVuSans-69" x="217.96875"/>
      <use xlink:href="#DejaVuSans-6c" x="245.751953"/>
      <use xlink:href="#DejaVuSans-69" x="273.535156"/>
      <use xlink:href="#DejaVuSans-65" x="301.318359"/>
      <use xlink:href="#DejaVuSans-6e" x="362.841797"/>
      <use xlink:href="#DejaVuSans-73" x="426.220703"/>
      <use xlink:href="#DejaVuSans-65" x="478.320312"/>
      <use xlink:href="#DejaVuSans-20" x="539.84375"/>
      <use xlink:href="#DejaVuSans-41" x="571.630859"/>
     </g>
    </g>
    <g id="line2d_35">
     <defs>
      <path id="m4a84f0f167" d="M -2.95804 5.91608 
L 0 2.95804 
L 2.95804 5.91608 
L 5.91608 2.95804 
L 2.95804 0 
L 5.91608 -2.95804 
L 2.95804 -5.91608 
L 0 -2.95804 
L -2.95804 -5.91608 
L -5.91608 -2.95804 
L -2.95804 0 
L -5.91608 2.95804 
z
" style="stroke: #ffffff; stroke-width: 0.946573; stroke-linejoin: miter"/>
     </defs>
     <g>
      <use xlink:href="#m4a84f0f167" x="24.91" y="651.837383" style="fill: #f8763b; stroke: #ffffff; stroke-width: 0.946573; stroke-linejoin: miter"/>
     </g>
    </g>
    <g id="text_20">
     <!-- aroidearum -->
     <g style="fill: #262626" transform="translate(47.68 656.264883) scale(0.1265 -0.1265)">
      <defs>
       <path id="DejaVuSans-64" d="M 2906 2969 
L 2906 4863 
L 3481 4863 
L 3481 0 
L 2906 0 
L 2906 525 
Q 2725 213 2448 61 
Q 2172 -91 1784 -91 
Q 1150 -91 751 415 
Q 353 922 353 1747 
Q 353 2572 751 3078 
Q 1150 3584 1784 3584 
Q 2172 3584 2448 3432 
Q 2725 3281 2906 2969 
z
M 947 1747 
Q 947 1113 1208 752 
Q 1469 391 1925 391 
Q 2381 391 2643 752 
Q 2906 1113 2906 1747 
Q 2906 2381 2643 2742 
Q 2381 3103 1925 3103 
Q 1469 3103 1208 2742 
Q 947 2381 947 1747 
z
" transform="scale(0.015625)"/>
      </defs>
      <use xlink:href="#DejaVuSans-61"/>
      <use xlink:href="#DejaVuSans-72" x="61.279297"/>
      <use xlink:href="#DejaVuSans-6f" x="100.142578"/>
      <use xlink:href="#DejaVuSans-69" x="161.324219"/>
      <use xlink:href="#DejaVuSans-64" x="189.107422"/>
      <use xlink:href="#DejaVuSans-65" x="252.583984"/>
      <use xlink:href="#DejaVuSans-61" x="314.107422"/>
      <use xlink:href="#DejaVuSans-72" x="375.386719"/>
      <use xlink:href="#DejaVuSans-75" x="416.5"/>
      <use xlink:href="#DejaVuSans-6d" x="479.878906"/>
     </g>
    </g>
    <g id="line2d_36">
     <defs>
      <path id="m514a42e878" d="M -4.1833 -4.1833 
L -4.1833 4.1833 
L 4.1833 4.1833 
L 4.1833 -4.1833 
z
" style="stroke: #ffffff; stroke-width: 0.946573; stroke-linejoin: miter"/>
     </defs>
     <g>
      <use xlink:href="#m514a42e878" x="24.91" y="670.405211" style="fill: #d28e32; stroke: #ffffff; stroke-width: 0.946573; stroke-linejoin: miter"/>
     </g>
    </g>
    <g id="text_21">
     <!-- carotovorum -->
     <g style="fill: #262626" transform="translate(47.68 674.832711) scale(0.1265 -0.1265)">
      <defs>
       <path id="DejaVuSans-76" d="M 191 3500 
L 800 3500 
L 1894 563 
L 2988 3500 
L 3597 3500 
L 2284 0 
L 1503 0 
L 191 3500 
z
" transform="scale(0.015625)"/>
      </defs>
      <use xlink:href="#DejaVuSans-63"/>
      <use xlink:href="#DejaVuSans-61" x="54.980469"/>
      <use xlink:href="#DejaVuSans-72" x="116.259766"/>
      <use xlink:href="#DejaVuSans-6f" x="155.123047"/>
      <use xlink:href="#DejaVuSans-74" x="216.304688"/>
      <use xlink:href="#DejaVuSans-6f" x="255.513672"/>
      <use xlink:href="#DejaVuSans-76" x="316.695312"/>
      <use xlink:href="#DejaVuSans-6f" x="375.875"/>
      <use xlink:href="#DejaVuSans-72" x="437.056641"/>
      <use xlink:href="#DejaVuSans-75" x="478.169922"/>
      <use xlink:href="#DejaVuSans-6d" x="541.548828"/>
     </g>
    </g>
    <g id="line2d_37">
     <defs>
      <path id="mb32d4bcf72" d="M -1.972027 5.91608 
L 1.972027 5.91608 
L 1.972027 1.972027 
L 5.91608 1.972027 
L 5.91608 -1.972027 
L 1.972027 -1.972027 
L 1.972027 -5.91608 
L -1.972027 -5.91608 
L -1.972027 -1.972027 
L -5.91608 -1.972027 
L -5.91608 1.972027 
L -1.972027 1.972027 
z
" style="stroke: #ffffff; stroke-width: 0.946573; stroke-linejoin: miter"/>
     </defs>
     <g>
      <use xlink:href="#mb32d4bcf72" x="24.91" y="688.973039" style="fill: #b79932; stroke: #ffffff; stroke-width: 0.946573; stroke-linejoin: miter"/>
     </g>
    </g>
    <g id="text_22">
     <!-- aquaticum -->
     <g style="fill: #262626" transform="translate(47.68 693.400539) scale(0.1265 -0.1265)">
      <defs>
       <path id="DejaVuSans-71" d="M 947 1747 
Q 947 1113 1208 752 
Q 1469 391 1925 391 
Q 2381 391 2643 752 
Q 2906 1113 2906 1747 
Q 2906 2381 2643 2742 
Q 2381 3103 1925 3103 
Q 1469 3103 1208 2742 
Q 947 2381 947 1747 
z
M 2906 525 
Q 2725 213 2448 61 
Q 2172 -91 1784 -91 
Q 1150 -91 751 415 
Q 353 922 353 1747 
Q 353 2572 751 3078 
Q 1150 3584 1784 3584 
Q 2172 3584 2448 3432 
Q 2725 3281 2906 2969 
L 2906 3500 
L 3481 3500 
L 3481 -1331 
L 2906 -1331 
L 2906 525 
z
" transform="scale(0.015625)"/>
      </defs>
      <use xlink:href="#DejaVuSans-61"/>
      <use xlink:href="#DejaVuSans-71" x="61.279297"/>
      <use xlink:href="#DejaVuSans-75" x="124.755859"/>
      <use xlink:href="#DejaVuSans-61" x="188.134766"/>
      <use xlink:href="#DejaVuSans-74" x="249.414062"/>
      <use xlink:href="#DejaVuSans-69" x="288.623047"/>
      <use xlink:href="#DejaVuSans-63" x="316.40625"/>
      <use xlink:href="#DejaVuSans-75" x="371.386719"/>
      <use xlink:href="#DejaVuSans-6d" x="434.765625"/>
     </g>
    </g>
    <g id="line2d_38">
     <defs>
      <path id="m43e4e76d84" d="M 0 -5.91608 
L -5.91608 -0 
L -0 5.91608 
L 5.91608 0 
z
" style="stroke: #ffffff; stroke-width: 0.946573; stroke-linejoin: miter"/>
     </defs>
     <g>
      <use xlink:href="#m43e4e76d84" x="24.91" y="707.540867" style="fill: #9ea231; stroke: #ffffff; stroke-width: 0.946573; stroke-linejoin: miter"/>
     </g>
    </g>
    <g id="text_23">
     <!-- versatile A -->
     <g style="fill: #262626" transform="translate(47.68 711.968367) scale(0.1265 -0.1265)">
      <use xlink:href="#DejaVuSans-76"/>
      <use xlink:href="#DejaVuSans-65" x="59.179688"/>
      <use xlink:href="#DejaVuSans-72" x="120.703125"/>
      <use xlink:href="#DejaVuSans-73" x="161.816406"/>
      <use xlink:href="#DejaVuSans-61" x="213.916016"/>
      <use xlink:href="#DejaVuSans-74" x="275.195312"/>
      <use xlink:href="#DejaVuSans-69" x="314.404297"/>
      <use xlink:href="#DejaVuSans-6c" x="342.1875"/>
      <use xlink:href="#DejaVuSans-65" x="369.970703"/>
      <use xlink:href="#DejaVuSans-20" x="431.494141"/>
      <use xlink:href="#DejaVuSans-41" x="463.28125"/>
     </g>
    </g>
    <g id="line2d_39">
     <defs>
      <path id="m25d5e1472b" d="M 0 -5.91608 
L -2.09165 -2.09165 
L -5.91608 -0 
L -2.09165 2.09165 
L -0 5.91608 
L 2.09165 2.09165 
L 5.91608 0 
L 2.09165 -2.09165 
z
" style="stroke: #ffffff; stroke-width: 0.946573; stroke-linejoin: bevel"/>
     </defs>
     <g>
      <use xlink:href="#m25d5e1472b" x="24.91" y="726.108695" style="fill: #7caa31; stroke: #ffffff; stroke-width: 0.946573; stroke-linejoin: bevel"/>
     </g>
    </g>
    <g id="text_24">
     <!-- parmentieri -->
     <g style="fill: #262626" transform="translate(47.68 730.536195) scale(0.1265 -0.1265)">
      <use xlink:href="#DejaVuSans-70"/>
      <use xlink:href="#DejaVuSans-61" x="63.476562"/>
      <use xlink:href="#DejaVuSans-72" x="124.755859"/>
      <use xlink:href="#DejaVuSans-6d" x="164.119141"/>
      <use xlink:href="#DejaVuSans-65" x="261.53125"/>
      <use xlink:href="#DejaVuSans-6e" x="323.054688"/>
      <use xlink:href="#DejaVuSans-74" x="386.433594"/>
      <use xlink:href="#DejaVuSans-69" x="425.642578"/>
      <use xlink:href="#DejaVuSans-65" x="453.425781"/>
      <use xlink:href="#DejaVuSans-72" x="514.949219"/>
      <use xlink:href="#DejaVuSans-69" x="556.0625"/>
     </g>
    </g>
    <g id="line2d_40">
     <defs>
      <path id="mec13d41e26" d="M 0 -5.91608 
L -5.91608 5.91608 
L 5.91608 5.91608 
z
" style="stroke: #ffffff; stroke-width: 0.946573; stroke-linejoin: miter"/>
     </defs>
     <g>
      <use xlink:href="#mec13d41e26" x="166.593953" y="633.269555" style="fill: #31b345; stroke: #ffffff; stroke-width: 0.946573; stroke-linejoin: miter"/>
     </g>
    </g>
    <g id="text_25">
     <!-- brasiliense -->
     <g style="fill: #262626" transform="translate(189.363953 637.697055) scale(0.1265 -0.1265)">
      <use xlink:href="#DejaVuSans-62"/>
      <use xlink:href="#DejaVuSans-72" x="63.476562"/>
      <use xlink:href="#DejaVuSans-61" x="104.589844"/>
      <use xlink:href="#DejaVuSans-73" x="165.869141"/>
      <use xlink:href="#DejaVuSans-69" x="217.96875"/>
      <use xlink:href="#DejaVuSans-6c" x="245.751953"/>
      <use xlink:href="#DejaVuSans-69" x="273.535156"/>
      <use xlink:href="#DejaVuSans-65" x="301.318359"/>
      <use xlink:href="#DejaVuSans-6e" x="362.841797"/>
      <use xlink:href="#DejaVuSans-73" x="426.220703"/>
      <use xlink:href="#DejaVuSans-65" x="478.320312"/>
     </g>
    </g>
    <g id="line2d_41">
     <defs>
      <path id="m7f3c8ea6de" d="M -4.1833 -4.1833 
L -2.95804 -0 
L -4.1833 4.1833 
L -0 2.95804 
L 4.1833 4.1833 
L 2.95804 0 
L 4.1833 -4.1833 
L 0 -2.95804 
z
" style="stroke: #ffffff; stroke-width: 0.946573; stroke-linejoin: bevel"/>
     </defs>
     <g>
      <use xlink:href="#m7f3c8ea6de" x="166.593953" y="651.837383" style="fill: #34b081; stroke: #ffffff; stroke-width: 0.946573; stroke-linejoin: bevel"/>
     </g>
    </g>
    <g id="text_26">
     <!-- polaris -->
     <g style="fill: #262626" transform="translate(189.363953 656.264883) scale(0.1265 -0.1265)">
      <use xlink:href="#DejaVuSans-70"/>
      <use xlink:href="#DejaVuSans-6f" x="63.476562"/>
      <use xlink:href="#DejaVuSans-6c" x="124.658203"/>
      <use xlink:href="#DejaVuSans-61" x="152.441406"/>
      <use xlink:href="#DejaVuSans-72" x="213.720703"/>
      <use xlink:href="#DejaVuSans-69" x="254.833984"/>
      <use xlink:href="#DejaVuSans-73" x="282.617188"/>
     </g>
    </g>
    <g id="line2d_42">
     <defs>
      <path id="mb861008360" d="M -0 5.91608 
L 5.91608 -5.91608 
L -5.91608 -5.91608 
z
" style="stroke: #ffffff; stroke-width: 0.946573; stroke-linejoin: miter"/>
     </defs>
     <g>
      <use xlink:href="#mb861008360" x="166.593953" y="670.405211" style="fill: #35ae9a; stroke: #ffffff; stroke-width: 0.946573; stroke-linejoin: miter"/>
     </g>
    </g>
    <g id="text_27">
     <!-- atrosepticum -->
     <g style="fill: #262626" transform="translate(189.363953 674.832711) scale(0.1265 -0.1265)">
      <use xlink:href="#DejaVuSans-61"/>
      <use xlink:href="#DejaVuSans-74" x="61.279297"/>
      <use xlink:href="#DejaVuSans-72" x="100.488281"/>
      <use xlink:href="#DejaVuSans-6f" x="139.351562"/>
      <use xlink:href="#DejaVuSans-73" x="200.533203"/>
      <use xlink:href="#DejaVuSans-65" x="252.632812"/>
      <use xlink:href="#DejaVuSans-70" x="314.15625"/>
      <use xlink:href="#DejaVuSans-74" x="377.632812"/>
      <use xlink:href="#DejaVuSans-69" x="416.841797"/>
      <use xlink:href="#DejaVuSans-63" x="444.625"/>
      <use xlink:href="#DejaVuSans-75" x="499.605469"/>
      <use xlink:href="#DejaVuSans-6d" x="562.984375"/>
     </g>
    </g>
    <g id="line2d_43">
     <defs>
      <path id="m5763a5b579" d="M -2.95804 -5.123475 
L -2.561738 -1.47902 
L -5.91608 -0 
L -2.561738 1.47902 
L -2.95804 5.123475 
L -0 2.95804 
L 2.95804 5.123475 
L 2.561738 1.47902 
L 5.91608 0 
L 2.561738 -1.47902 
L 2.95804 -5.123475 
L 0 -2.95804 
z
" style="stroke: #ffffff; stroke-width: 0.946573; stroke-linejoin: bevel"/>
     </defs>
     <g>
      <use xlink:href="#m5763a5b579" x="166.593953" y="688.973039" style="fill: #36acad; stroke: #ffffff; stroke-width: 0.946573; stroke-linejoin: bevel"/>
     </g>
    </g>
    <g id="text_28">
     <!-- actinidiae -->
     <g style="fill: #262626" transform="translate(189.363953 693.400539) scale(0.1265 -0.1265)">
      <use xlink:href="#DejaVuSans-61"/>
      <use xlink:href="#DejaVuSans-63" x="61.279297"/>
      <use xlink:href="#DejaVuSans-74" x="116.259766"/>
      <use xlink:href="#DejaVuSans-69" x="155.46875"/>
      <use xlink:href="#DejaVuSans-6e" x="183.251953"/>
      <use xlink:href="#DejaVuSans-69" x="246.630859"/>
      <use xlink:href="#DejaVuSans-64" x="274.414062"/>
      <use xlink:href="#DejaVuSans-69" x="337.890625"/>
      <use xlink:href="#DejaVuSans-61" x="365.673828"/>
      <use xlink:href="#DejaVuSans-65" x="426.953125"/>
     </g>
    </g>
    <g id="line2d_44">
     <defs>
      <path id="md11392a62c" d="M -2.95804 -5.123475 
L -5.91608 -0 
L -2.95804 5.123475 
L 2.95804 5.123475 
L 5.91608 0 
L 2.95804 -5.123475 
z
" style="stroke: #ffffff; stroke-width: 0.946573; stroke-linejoin: miter"/>
     </defs>
     <g>
      <use xlink:href="#md11392a62c" x="166.593953" y="707.540867" style="fill: #38aac1; stroke: #ffffff; stroke-width: 0.946573; stroke-linejoin: miter"/>
     </g>
    </g>
    <g id="text_29">
     <!-- sp013449375 -->
     <g style="fill: #262626" transform="translate(189.363953 711.968367) scale(0.1265 -0.1265)">
      <use xlink:href="#DejaVuSans-73"/>
      <use xlink:href="#DejaVuSans-70" x="52.099609"/>
      <use xlink:href="#DejaVuSans-30" x="115.576172"/>
      <use xlink:href="#DejaVuSans-31" x="179.199219"/>
      <use xlink:href="#DejaVuSans-33" x="242.822266"/>
      <use xlink:href="#DejaVuSans-34" x="306.445312"/>
      <use xlink:href="#DejaVuSans-34" x="370.068359"/>
      <use xlink:href="#DejaVuSans-39" x="433.691406"/>
      <use xlink:href="#DejaVuSans-33" x="497.314453"/>
      <use xlink:href="#DejaVuSans-37" x="560.9375"/>
      <use xlink:href="#DejaVuSans-35" x="624.560547"/>
     </g>
    </g>
    <g id="line2d_45">
     <defs>
      <path id="m577e1dc5c3" d="M 0 -5.91608 
L -1.738692 -2.393105 
L -5.626526 -1.828169 
L -2.813263 0.914085 
L -3.477384 4.786209 
L -0 2.95804 
L 3.477384 4.786209 
L 2.813263 0.914085 
L 5.626526 -1.828169 
L 1.738692 -2.393105 
z
" style="stroke: #ffffff; stroke-width: 0.946573; stroke-linejoin: bevel"/>
     </defs>
     <g>
      <use xlink:href="#m577e1dc5c3" x="166.593953" y="726.108695" style="fill: #3aa6dd; stroke: #ffffff; stroke-width: 0.946573; stroke-linejoin: bevel"/>
     </g>
    </g>
    <g id="text_30">
     <!-- zantedeschiae -->
     <g style="fill: #262626" transform="translate(189.363953 730.536195) scale(0.1265 -0.1265)">
      <defs>
       <path id="DejaVuSans-7a" d="M 353 3500 
L 3084 3500 
L 3084 2975 
L 922 459 
L 3084 459 
L 3084 0 
L 275 0 
L 275 525 
L 2438 3041 
L 353 3041 
L 353 3500 
z
" transform="scale(0.015625)"/>
       <path id="DejaVuSans-68" d="M 3513 2113 
L 3513 0 
L 2938 0 
L 2938 2094 
Q 2938 2591 2744 2837 
Q 2550 3084 2163 3084 
Q 1697 3084 1428 2787 
Q 1159 2491 1159 1978 
L 1159 0 
L 581 0 
L 581 4863 
L 1159 4863 
L 1159 2956 
Q 1366 3272 1645 3428 
Q 1925 3584 2291 3584 
Q 2894 3584 3203 3211 
Q 3513 2838 3513 2113 
z
" transform="scale(0.015625)"/>
      </defs>
      <use xlink:href="#DejaVuSans-7a"/>
      <use xlink:href="#DejaVuSans-61" x="52.490234"/>
      <use xlink:href="#DejaVuSans-6e" x="113.769531"/>
      <use xlink:href="#DejaVuSans-74" x="177.148438"/>
      <use xlink:href="#DejaVuSans-65" x="216.357422"/>
      <use xlink:href="#DejaVuSans-64" x="277.880859"/>
      <use xlink:href="#DejaVuSans-65" x="341.357422"/>
      <use xlink:href="#DejaVuSans-73" x="402.880859"/>
      <use xlink:href="#DejaVuSans-63" x="454.980469"/>
      <use xlink:href="#DejaVuSans-68" x="509.960938"/>
      <use xlink:href="#DejaVuSans-69" x="573.339844"/>
      <use xlink:href="#DejaVuSans-61" x="601.123047"/>
      <use xlink:href="#DejaVuSans-65" x="662.402344"/>
     </g>
    </g>
    <g id="line2d_46">
     <defs>
      <path id="m6889c983bc" d="M 0 -5.91608 
L -5.626526 -1.828169 
L -3.477384 4.786209 
L 3.477384 4.786209 
L 5.626526 -1.828169 
z
" style="stroke: #ffffff; stroke-width: 0.946573; stroke-linejoin: miter"/>
     </defs>
     <g>
      <use xlink:href="#m6889c983bc" x="318.892047" y="633.269555" style="fill: #7699f4; stroke: #ffffff; stroke-width: 0.946573; stroke-linejoin: miter"/>
     </g>
    </g>
    <g id="text_31">
     <!-- polonicum -->
     <g style="fill: #262626" transform="translate(341.662047 637.697055) scale(0.1265 -0.1265)">
      <use xlink:href="#DejaVuSans-70"/>
      <use xlink:href="#DejaVuSans-6f" x="63.476562"/>
      <use xlink:href="#DejaVuSans-6c" x="124.658203"/>
      <use xlink:href="#DejaVuSans-6f" x="152.441406"/>
      <use xlink:href="#DejaVuSans-6e" x="213.623047"/>
      <use xlink:href="#DejaVuSans-69" x="277.001953"/>
      <use xlink:href="#DejaVuSans-63" x="304.785156"/>
      <use xlink:href="#DejaVuSans-75" x="359.765625"/>
      <use xlink:href="#DejaVuSans-6d" x="423.144531"/>
     </g>
    </g>
    <g id="line2d_47">
     <defs>
      <path id="m41c2a23938" d="M -2.566891 -5.330204 
L -2.312689 -1.844308 
L -5.767751 -1.316452 
L -2.883876 0.658226 
L -4.625377 3.688615 
L -1.283445 2.665102 
L -0 5.91608 
L 1.283445 2.665102 
L 4.625377 3.688615 
L 2.883876 0.658226 
L 5.767751 -1.316452 
L 2.312689 -1.844308 
L 2.566891 -5.330204 
L 0 -2.95804 
z
" style="stroke: #ffffff; stroke-width: 0.946573; stroke-linejoin: bevel"/>
     </defs>
     <g>
      <use xlink:href="#m41c2a23938" x="318.892047" y="651.837383" style="fill: #b087f4; stroke: #ffffff; stroke-width: 0.946573; stroke-linejoin: bevel"/>
     </g>
    </g>
    <g id="text_32">
     <!-- wasabiae -->
     <g style="fill: #262626" transform="translate(341.662047 656.264883) scale(0.1265 -0.1265)">
      <defs>
       <path id="DejaVuSans-77" d="M 269 3500 
L 844 3500 
L 1563 769 
L 2278 3500 
L 2956 3500 
L 3675 769 
L 4391 3500 
L 4966 3500 
L 4050 0 
L 3372 0 
L 2619 2869 
L 1863 0 
L 1184 0 
L 269 3500 
z
" transform="scale(0.015625)"/>
      </defs>
      <use xlink:href="#DejaVuSans-77"/>
      <use xlink:href="#DejaVuSans-61" x="81.787109"/>
      <use xlink:href="#DejaVuSans-73" x="143.066406"/>
      <use xlink:href="#DejaVuSans-61" x="195.166016"/>
      <use xlink:href="#DejaVuSans-62" x="256.445312"/>
      <use xlink:href="#DejaVuSans-69" x="319.921875"/>
      <use xlink:href="#DejaVuSans-61" x="347.705078"/>
      <use xlink:href="#DejaVuSans-65" x="408.984375"/>
     </g>
    </g>
    <g id="line2d_48">
     <defs>
      <path id="med3e2ceb69" d="M -2.566891 -5.330204 
L -5.767751 -1.316452 
L -4.625377 3.688615 
L -0 5.91608 
L 4.625377 3.688615 
L 5.767751 -1.316452 
L 2.566891 -5.330204 
z
" style="stroke: #ffffff; stroke-width: 0.946573; stroke-linejoin: miter"/>
     </defs>
     <g>
      <use xlink:href="#med3e2ceb69" x="318.892047" y="670.405211" style="fill: #df6df4; stroke: #ffffff; stroke-width: 0.946573; stroke-linejoin: miter"/>
     </g>
    </g>
    <g id="text_33">
     <!-- peruviense -->
     <g style="fill: #262626" transform="translate(341.662047 674.832711) scale(0.1265 -0.1265)">
      <use xlink:href="#DejaVuSans-70"/>
      <use xlink:href="#DejaVuSans-65" x="63.476562"/>
      <use xlink:href="#DejaVuSans-72" x="125"/>
      <use xlink:href="#DejaVuSans-75" x="166.113281"/>
      <use xlink:href="#DejaVuSans-76" x="229.492188"/>
      <use xlink:href="#DejaVuSans-69" x="288.671875"/>
      <use xlink:href="#DejaVuSans-65" x="316.455078"/>
      <use xlink:href="#DejaVuSans-6e" x="377.978516"/>
      <use xlink:href="#DejaVuSans-73" x="441.357422"/>
      <use xlink:href="#DejaVuSans-65" x="493.457031"/>
     </g>
    </g>
    <g id="line2d_49">
     <defs>
      <path id="m0724699b49" d="M 0 -5.91608 
L -1.47902 -2.561738 
L -5.123475 -2.95804 
L -2.95804 -0 
L -5.123475 2.95804 
L -1.47902 2.561738 
L -0 5.91608 
L 1.47902 2.561738 
L 5.123475 2.95804 
L 2.95804 0 
L 5.123475 -2.95804 
L 1.47902 -2.561738 
z
" style="stroke: #ffffff; stroke-width: 0.946573; stroke-linejoin: bevel"/>
     </defs>
     <g>
      <use xlink:href="#m0724699b49" x="318.892047" y="688.973039" style="fill: #f563d8; stroke: #ffffff; stroke-width: 0.946573; stroke-linejoin: bevel"/>
     </g>
    </g>
    <g id="text_34">
     <!-- quasiaquaticum -->
     <g style="fill: #262626" transform="translate(341.662047 693.400539) scale(0.1265 -0.1265)">
      <use xlink:href="#DejaVuSans-71"/>
      <use xlink:href="#DejaVuSans-75" x="63.476562"/>
      <use xlink:href="#DejaVuSans-61" x="126.855469"/>
      <use xlink:href="#DejaVuSans-73" x="188.134766"/>
      <use xlink:href="#DejaVuSans-69" x="240.234375"/>
      <use xlink:href="#DejaVuSans-61" x="268.017578"/>
      <use xlink:href="#DejaVuSans-71" x="329.296875"/>
      <use xlink:href="#DejaVuSans-75" x="392.773438"/>
      <use xlink:href="#DejaVuSans-61" x="456.152344"/>
      <use xlink:href="#DejaVuSans-74" x="517.431641"/>
      <use xlink:href="#DejaVuSans-69" x="556.640625"/>
      <use xlink:href="#DejaVuSans-63" x="584.423828"/>
      <use xlink:href="#DejaVuSans-75" x="639.404297"/>
      <use xlink:href="#DejaVuSans-6d" x="702.783203"/>
     </g>
    </g>
    <g id="line2d_50">
     <defs>
      <path id="mfc17f35597" d="M 0 -5.91608 
L -5.123475 -2.95804 
L -5.123475 2.95804 
L -0 5.91608 
L 5.123475 2.95804 
L 5.123475 -2.95804 
z
" style="stroke: #ffffff; stroke-width: 0.946573; stroke-linejoin: miter"/>
     </defs>
     <g>
      <use xlink:href="#mfc17f35597" x="318.892047" y="707.540867" style="fill: #f66ab2; stroke: #ffffff; stroke-width: 0.946573; stroke-linejoin: miter"/>
     </g>
    </g>
    <g id="text_35">
     <!-- punjabense -->
     <g style="fill: #262626" transform="translate(341.662047 711.968367) scale(0.1265 -0.1265)">
      <defs>
       <path id="DejaVuSans-6a" d="M 603 3500 
L 1178 3500 
L 1178 -63 
Q 1178 -731 923 -1031 
Q 669 -1331 103 -1331 
L -116 -1331 
L -116 -844 
L 38 -844 
Q 366 -844 484 -692 
Q 603 -541 603 -63 
L 603 3500 
z
M 603 4863 
L 1178 4863 
L 1178 4134 
L 603 4134 
L 603 4863 
z
" transform="scale(0.015625)"/>
      </defs>
      <use xlink:href="#DejaVuSans-70"/>
      <use xlink:href="#DejaVuSans-75" x="63.476562"/>
      <use xlink:href="#DejaVuSans-6e" x="126.855469"/>
      <use xlink:href="#DejaVuSans-6a" x="190.234375"/>
      <use xlink:href="#DejaVuSans-61" x="218.017578"/>
      <use xlink:href="#DejaVuSans-62" x="279.296875"/>
      <use xlink:href="#DejaVuSans-65" x="342.773438"/>
      <use xlink:href="#DejaVuSans-6e" x="404.296875"/>
      <use xlink:href="#DejaVuSans-73" x="467.675781"/>
      <use xlink:href="#DejaVuSans-65" x="519.775391"/>
     </g>
    </g>
   </g>
  </g>
 </g>
 <defs>
  <clipPath id="pc3846f01c7">
   <rect x="88.072883" y="7.2" width="279" height="554.4"/>
  </clipPath>
 </defs>
</svg>
